{
.appVersion = "1355";
DisplayStrings = (

glyphs = (
{
color = 8;
glyphname = A;
lastChange = "2021-03-10 17:23:59 +0000";
layers = (
{
background = {
paths = (
{
closed = 1;
nodes = (
"194 0 LINE",
"191 20 LINE",
"175 21 OFFCURVE",
"130 23 OFFCURVE",
"149 71 CURVE",
"391 568 LINE",
"407 568 LINE",
"600 79 LINE SMOOTH",
"620 27 OFFCURVE",
"577 21 OFFCURVE",
"560 20 CURVE",
"557 0 LINE",
"736 0 LINE",
"736 20 LINE",
"697 20 OFFCURVE",
"682 41 OFFCURVE",
"661 94 CURVE SMOOTH",
"418 710 LINE",
"407 710 LINE",
"107 95 LINE",
"69 26 OFFCURVE",
"24 20 OFFCURVE",
"7 20 CURVE",
"7 0 LINE"
);
},
{
closed = 1;
nodes = (
"512 307 LINE",
"512 349 LINE",
"259 349 LINE",
"259 307 LINE"
);
}
);
};
hints = (
{
origin = "{0, 0}";
scale = "{-1, 1}";
type = Corner;
name = _corner.CAP.leftSerif;
},
{
origin = "{0, 3}";
type = Corner;
name = _corner.CAP.leftSerif;
options = 1;
},
{
origin = "{0, 4}";
scale = "{-0.5, 1}";
type = Corner;
name = _corner.CAP.leftSerif;
},
{
origin = "{0, 7}";
scale = "{0.8, 1}";
type = Corner;
name = _corner.CAP.leftSerif;
options = 1;
}
);
layerId = "A2204D38-078E-49A4-B70C-87904FFF8E34";
paths = (
{
closed = 1;
nodes = (
"124 0 LINE",
"401 568 LINE",
"417 568 LINE",
"641 0 LINE",
"708 0 LINE",
"427 710 LINE",
"417 710 LINE",
"71 0 LINE"
);
},
{
closed = 1;
nodes = (
"522 306 LINE",
"522 348 LINE",
"269 348 LINE",
"269 306 LINE"
);
}
);
width = 754;
},
{
background = {
paths = (
{
closed = 1;
nodes = (
"204 0 LINE",
"201 20 LINE",
"185 21 OFFCURVE",
"140 23 OFFCURVE",
"159 71 CURVE",
"401 568 LINE",
"417 568 LINE",
"610 79 LINE SMOOTH",
"630 27 OFFCURVE",
"587 21 OFFCURVE",
"570 20 CURVE",
"567 0 LINE",
"746 0 LINE",
"746 20 LINE",
"707 20 OFFCURVE",
"692 41 OFFCURVE",
"671 94 CURVE SMOOTH",
"428 710 LINE",
"417 710 LINE",
"117 95 LINE",
"79 26 OFFCURVE",
"34 20 OFFCURVE",
"17 20 CURVE",
"17 0 LINE"
);
},
{
closed = 1;
nodes = (
"522 306 LINE",
"522 348 LINE",
"269 348 LINE",
"269 306 LINE"
);
}
);
};
backgroundImage = {
crop = "{{0, 0}, {305.16, 367}}";
imagePath = "img/05 Page 3.png";
locked = "1";
transform = "{42.083, 0, 0, 42.083, -1495, -11801}";
};
hints = (
{
origin = "{0, 3}";
type = Corner;
name = _corner.CAP.leftSerif;
},
{
origin = "{0, 4}";
scale = "{-0.5, 1}";
type = Corner;
name = _corner.CAP.leftSerif;
options = 1;
},
{
origin = "{0, 7}";
scale = "{0.8, 1}";
type = Corner;
name = _corner.CAP.leftSerif;
},
{
origin = "{0, 0}";
scale = "{-1, 1}";
type = Corner;
name = _corner.CAP.leftSerif;
options = 1;
}
);
layerId = "3EDEE92B-4D9D-4D9A-9438-63C2E33416C1";
paths = (
{
closed = 1;
nodes = (
"124 0 LINE",
"401 568 LINE",
"417 568 LINE",
"641 0 LINE",
"708 0 LINE",
"427 710 LINE",
"417 710 LINE",
"71 0 LINE"
);
},
{
closed = 1;
nodes = (
"522 306 LINE",
"522 348 LINE",
"269 348 LINE",
"269 306 LINE"
);
}
);
width = 767;
}
);
unicode = 0041;
},
{
color = 8;
glyphname = B;
lastChange = "2021-03-10 17:25:31 +0000";
layers = (
{
hints = (
{
origin = "{1, 2}";
scale = "{1, -1}";
type = Corner;
name = _corner.CAP.leftSerif;
},
{
origin = "{1, 3}";
scale = "{0.8, 1}";
type = Corner;
name = _corner.CAP.leftSerif;
}
);
layerId = "A2204D38-078E-49A4-B70C-87904FFF8E34";
paths = (
{
closed = 1;
nodes = (
"218 0 LINE SMOOTH",
"356 0 OFFCURVE",
"468 87 OFFCURVE",
"468 221 CURVE SMOOTH",
"468 341 OFFCURVE",
"387 379 OFFCURVE",
"281 388 CURVE",
"281 393 LINE",
"390 417 OFFCURVE",
"426 480 OFFCURVE",
"426 550 CURVE SMOOTH",
"426 642 OFFCURVE",
"378 700 OFFCURVE",
"245 700 CURVE SMOOTH",
"58 700 LINE {name = \"🧨\";}",
"58 660 LINE",
"210 660 LINE SMOOTH",
"313 660 OFFCURVE",
"353 610 OFFCURVE",
"353 550 CURVE SMOOTH",
"353 463 OFFCURVE",
"297 400 OFFCURVE",
"173 400 CURVE SMOOTH",
"95 400 LINE",
"95 366 LINE",
"220 366 LINE SMOOTH",
"325 366 OFFCURVE",
"388 317 OFFCURVE",
"388 221 CURVE SMOOTH",
"388 127 OFFCURVE",
"330 40 OFFCURVE",
"179 40 CURVE SMOOTH",
"60 40 LINE",
"60 0 LINE {name = \"🧨\";}"
);
},
{
closed = 1;
nodes = (
"102 0 LINE {name = \"🧨\";}",
"102 700 LINE {name = \"🧨\";}",
"40 700 LINE {name = \"🧨\";}",
"40 0 LINE {name = \"🧨\";}"
);
}
);
width = 531;
},
{
backgroundImage = {
crop = "{{0, 0}, {305.16, 367}}";
imagePath = "img/05 Page 3.png";
locked = "1";
transform = "{42.083, 0, 0, 42.083, -2322, -11789}";
};
hints = (
{
origin = "{1, 2}";
scale = "{1, -1}";
type = Corner;
name = _corner.CAP.leftSerif;
},
{
origin = "{1, 3}";
scale = "{0.8, 1}";
type = Corner;
name = _corner.CAP.leftSerif;
}
);
layerId = "3EDEE92B-4D9D-4D9A-9438-63C2E33416C1";
paths = (
{
closed = 1;
nodes = (
"296 0 LINE SMOOTH",
"434 0 OFFCURVE",
"546 87 OFFCURVE",
"546 221 CURVE SMOOTH",
"546 341 OFFCURVE",
"465 379 OFFCURVE",
"359 388 CURVE",
"359 393 LINE",
"468 417 OFFCURVE",
"504 480 OFFCURVE",
"504 550 CURVE SMOOTH",
"504 642 OFFCURVE",
"456 700 OFFCURVE",
"323 700 CURVE SMOOTH",
"136 700 LINE {name = \"🧨\";}",
"136 660 LINE",
"288 660 LINE SMOOTH",
"391 660 OFFCURVE",
"431 610 OFFCURVE",
"431 550 CURVE SMOOTH",
"431 463 OFFCURVE",
"375 400 OFFCURVE",
"251 400 CURVE SMOOTH",
"173 400 LINE",
"173 366 LINE",
"298 366 LINE SMOOTH",
"403 366 OFFCURVE",
"466 317 OFFCURVE",
"466 221 CURVE SMOOTH",
"466 127 OFFCURVE",
"408 40 OFFCURVE",
"257 40 CURVE SMOOTH",
"138 40 LINE",
"138 0 LINE {name = \"🧨\";}"
);
},
{
closed = 1;
nodes = (
"180 0 LINE {name = \"🧨\";}",
"180 700 LINE {name = \"🧨\";}",
"118 700 LINE {name = \"🧨\";}",
"118 0 LINE {name = \"🧨\";}"
);
}
);
width = 591;
}
);
unicode = 0042;
},
{
color = 8;
glyphname = C;
lastChange = "2021-03-10 17:48:55 +0000";
layers = (
{
background = {
paths = (
{
closed = 1;
nodes = (
"523 -12 OFFCURVE",
"599 18 OFFCURVE",
"622 29 CURVE",
"643 74 LINE",
"633 85 LINE",
"624 77 OFFCURVE",
"576 32 OFFCURVE",
"436 30 CURVE SMOOTH",
"262 28 OFFCURVE",
"125 165 OFFCURVE",
"125 364 CURVE SMOOTH",
"125 539 OFFCURVE",
"231 668 OFFCURVE",
"399 668 CURVE SMOOTH",
"495 668 OFFCURVE",
"564 643 OFFCURVE",
"598 614 CURVE",
"601 611 OFFCURVE",
"605 607 OFFCURVE",
"608 603 CURVE",
"618 602 LINE",
"644 666 LINE",
"622 677 OFFCURVE",
"566 710 OFFCURVE",
"434 710 CURVE SMOOTH",
"224 710 OFFCURVE",
"40 582 OFFCURVE",
"40 364 CURVE SMOOTH",
"40 127 OFFCURVE",
"187 -12 OFFCURVE",
"418 -12 CURVE SMOOTH"
);
}
);
};
layerId = "A2204D38-078E-49A4-B70C-87904FFF8E34";
paths = (
{
closed = 1;
nodes = (
"524 -12 OFFCURVE",
"601 19 OFFCURVE",
"624 30 CURVE",
"645 75 LINE",
"635 86 LINE",
"626 78 OFFCURVE",
"577 29 OFFCURVE",
"433 29 CURVE SMOOTH",
"283 29 OFFCURVE",
"123 150 OFFCURVE",
"123 364 CURVE SMOOTH",
"123 544 OFFCURVE",
"230 668 OFFCURVE",
"419 668 CURVE SMOOTH",
"494 668 OFFCURVE",
"565 646 OFFCURVE",
"599 617 CURVE",
"603 613 OFFCURVE",
"605 611 OFFCURVE",
"609 606 CURVE",
"618 607 LINE",
"645 662 LINE",
"623 674 OFFCURVE",
"568 710 OFFCURVE",
"419 710 CURVE SMOOTH",
"226 710 OFFCURVE",
"41 582 OFFCURVE",
"41 364 CURVE SMOOTH",
"41 147 OFFCURVE",
"178 -12 OFFCURVE",
"433 -12 CURVE SMOOTH"
);
}
);
width = 681;
},
{
backgroundImage = {
crop = "{{0, 0}, {305.16, 367}}";
imagePath = "img/05 Page 3.png";
locked = "1";
transform = "{41.2538, 0, 0, 41.2538, -2971, -11548}";
};
layerId = "3EDEE92B-4D9D-4D9A-9438-63C2E33416C1";
paths = (
{
closed = 1;
nodes = (
"503 -12 OFFCURVE",
"580 19 OFFCURVE",
"603 30 CURVE",
"624 75 LINE",
"614 86 LINE",
"605 78 OFFCURVE",
"556 29 OFFCURVE",
"412 29 CURVE SMOOTH",
"262 29 OFFCURVE",
"102 150 OFFCURVE",
"102 364 CURVE SMOOTH",
"102 544 OFFCURVE",
"209 668 OFFCURVE",
"398 668 CURVE SMOOTH",
"473 668 OFFCURVE",
"544 646 OFFCURVE",
"578 617 CURVE",
"583 599 OFFCURVE",
"586 585 OFFCURVE",
"588 571 CURVE",
"619 571 LINE",
"624 662 LINE",
"602 673 OFFCURVE",
"547 710 OFFCURVE",
"398 710 CURVE SMOOTH",
"205 710 OFFCURVE",
"20 582 OFFCURVE",
"20 364 CURVE SMOOTH",
"20 147 OFFCURVE",
"157 -12 OFFCURVE",
"412 -12 CURVE SMOOTH"
);
}
);
width = 664;
}
);
unicode = 0043;
},
{
color = 8;
glyphname = D;
lastChange = "2021-03-10 17:37:11 +0000";
layers = (
{
hints = (
{
origin = "{0, 7}";
scale = "{1, -1}";
type = Corner;
name = _corner.CAP.leftSerif;
},
{
origin = "{0, 8}";
scale = "{0.8, 1}";
type = Corner;
name = _corner.CAP.leftSerif;
}
);
layerId = "A2204D38-078E-49A4-B70C-87904FFF8E34";
paths = (
{
closed = 1;
nodes = (
"277 0 LINE SMOOTH",
"495 0 OFFCURVE",
"656 167 OFFCURVE",
"656 383 CURVE SMOOTH",
"656 596 OFFCURVE",
"560 700 OFFCURVE",
"352 700 CURVE SMOOTH",
"40 700 LINE {name = \"🧨\";}",
"40 0 LINE {name = \"🧨\";}"
);
},
{
closed = 1;
nodes = (
"102 658 LINE",
"292 658 LINE SMOOTH",
"487 658 OFFCURVE",
"578 554 OFFCURVE",
"578 383 CURVE SMOOTH",
"578 151 OFFCURVE",
"465 42 OFFCURVE",
"264 42 CURVE SMOOTH",
"102 42 LINE"
);
}
);
width = 719;
},
{
backgroundImage = {
crop = "{{0, 0}, {305.16, 367}}";
imagePath = "img/05 Page 3.png";
locked = "1";
transform = "{42.083, 0, 0, 42.083, -3796, -11793}";
};
hints = (
{
origin = "{0, 7}";
scale = "{1, -1}";
type = Corner;
name = _corner.CAP.leftSerif;
},
{
origin = "{0, 8}";
scale = "{0.8, 1}";
type = Corner;
name = _corner.CAP.leftSerif;
}
);
layerId = "3EDEE92B-4D9D-4D9A-9438-63C2E33416C1";
paths = (
{
closed = 1;
nodes = (
"355 0 LINE SMOOTH",
"573 0 OFFCURVE",
"734 167 OFFCURVE",
"734 383 CURVE SMOOTH",
"734 596 OFFCURVE",
"638 700 OFFCURVE",
"430 700 CURVE SMOOTH",
"118 700 LINE {name = \"🧨\";}",
"118 0 LINE {name = \"🧨\";}"
);
},
{
closed = 1;
nodes = (
"180 658 LINE",
"370 658 LINE SMOOTH",
"565 658 OFFCURVE",
"656 554 OFFCURVE",
"656 383 CURVE SMOOTH",
"656 151 OFFCURVE",
"543 42 OFFCURVE",
"342 42 CURVE SMOOTH",
"180 42 LINE"
);
}
);
width = 779;
}
);
leftMetricsKey = B;
rightMetricsKey = B;
unicode = 0044;
},
{
color = 8;
glyphname = E;
lastChange = "2021-03-15 20:21:31 +0000";
layers = (
{
background = {
hints = (
{
origin = "{0, 2}";
scale = "{1, -1}";
type = Corner;
name = _corner.CAP.leftSerif;
},
{
origin = "{0, 3}";
type = Corner;
name = _corner.CAP.leftSerif;
},
{
origin = "{1, 1}";
scale = "{1, 0.8}";
type = Corner;
name = _corner.CAP.bottom.E;
},
{
origin = "{2, 0}";
scale = "{1, -0.8}";
type = Corner;
name = _corner.CAP.small.E;
},
{
origin = "{2, 1}";
scale = "{1, 0.8}";
type = Corner;
name = _corner.CAP.small.E;
},
{
origin = "{3, 0}";
scale = "{1, 0.8}";
type = Corner;
name = _corner.CAP.top.EE;
}
);
paths = (
{
closed = 1;
nodes = (
"155 0 LINE",
"155 700 LINE",
"85 700 LINE",
"85 0 LINE"
);
},
{
closed = 1;
nodes = (
"454 0 LINE",
"454 40 LINE",
"136 40 LINE",
"136 0 LINE"
);
},
{
closed = 1;
nodes = (
"406 336 LINE",
"406 374 LINE",
"136 374 LINE",
"136 336 LINE"
);
},
{
closed = 1;
nodes = (
"434 660 LINE",
"434 700 LINE",
"136 700 LINE",
"136 660 LINE"
);
}
);
};
hints = (
{
origin = "{0, 2}";
scale = "{1, -1}";
type = Corner;
name = _corner.CAP.leftSerif;
},
{
origin = "{0, 3}";
type = Corner;
name = _corner.CAP.leftSerif;
},
{
origin = "{1, 1}";
scale = "{1, 0.8}";
type = Corner;
name = _corner.CAP.bottom.E;
},
{
origin = "{2, 0}";
scale = "{1, 0.8}";
type = Corner;
name = _corner.CAP.top.EE;
}
);
layerId = "A2204D38-078E-49A4-B70C-87904FFF8E34";
paths = (
{
closed = 1;
nodes = (
"154 0 LINE {name = \"🧨\";}",
"154 700 LINE {name = \"🧨\";}",
"84 700 LINE",
"84 0 LINE"
);
},
{
closed = 1;
nodes = (
"453 0 LINE",
"453 42 LINE",
"135 42 LINE",
"135 0 LINE {name = \"🧨\";}"
);
},
{
closed = 1;
nodes = (
"433 658 LINE",
"433 700 LINE",
"135 700 LINE {name = \"🧨\";}",
"135 658 LINE"
);
},
{
closed = 1;
nodes = (
"335 336 OFFCURVE",
"366 336 OFFCURVE",
"380 336 CURVE",
"414 336 LINE",
"414 338 OFFCURVE",
"414 349 OFFCURVE",
"414 351 CURVE SMOOTH",
"414 361 LINE SMOOTH",
"414 363 OFFCURVE",
"414 374 OFFCURVE",
"414 376 CURVE",
"381 376 LINE",
"367 376 OFFCURVE",
"335 376 OFFCURVE",
"301 376 CURVE SMOOTH",
"136 376 LINE",
"136 336 LINE",
"301 336 LINE SMOOTH"
);
}
);
width = 515;
},
{
background = {
paths = (
{
closed = 1;
nodes = (
"374 336 OFFCURVE",
"385 327 OFFCURVE",
"396 285 CURVE",
"430 285 LINE",
"421 308 OFFCURVE",
"415 329 OFFCURVE",
"415 351 CURVE SMOOTH",
"415 361 LINE SMOOTH",
"415 383 OFFCURVE",
"421 404 OFFCURVE",
"430 427 CURVE",
"396 427 LINE",
"385 385 OFFCURVE",
"374 376 OFFCURVE",
"310 376 CURVE SMOOTH",
"145 376 LINE",
"145 336 LINE",
"310 336 LINE SMOOTH"
);
}
);
};
backgroundImage = {
crop = "{{0, 0}, {305.16, 367}}";
imagePath = "img/05 Page 3.png";
locked = "1";
transform = "{42.083, 0, 0, 42.083, -4691, -11791}";
};
hints = (
{
origin = "{0, 2}";
scale = "{1, -1}";
type = Corner;
name = _corner.CAP.leftSerif;
},
{
origin = "{0, 3}";
type = Corner;
name = _corner.CAP.leftSerif;
},
{
origin = "{1, 1}";
scale = "{1, 0.8}";
type = Corner;
name = _corner.CAP.bottom.E;
},
{
origin = "{2, 0}";
scale = "{1, 0.8}";
type = Corner;
name = _corner.CAP.top.EE;
}
);
layerId = "3EDEE92B-4D9D-4D9A-9438-63C2E33416C1";
paths = (
{
closed = 1;
nodes = (
"164 0 LINE {name = \"🧨\";}",
"164 700 LINE {name = \"🧨\";}",
"94 700 LINE",
"94 0 LINE"
);
},
{
closed = 1;
nodes = (
"463 0 LINE",
"463 42 LINE",
"145 42 LINE",
"145 0 LINE {name = \"🧨\";}"
);
},
{
closed = 1;
nodes = (
"443 658 LINE",
"443 700 LINE",
"145 700 LINE {name = \"🧨\";}",
"145 658 LINE"
);
},
{
closed = 1;
nodes = (
"374 336 OFFCURVE",
"385 327 OFFCURVE",
"396 285 CURVE",
"430 285 LINE",
"429 308 OFFCURVE",
"423 329 OFFCURVE",
"423 351 CURVE SMOOTH",
"423 361 LINE SMOOTH",
"423 383 OFFCURVE",
"429 414 OFFCURVE",
"430 427 CURVE",
"396 427 LINE",
"385 385 OFFCURVE",
"374 376 OFFCURVE",
"310 376 CURVE SMOOTH",
"145 376 LINE",
"145 336 LINE",
"310 336 LINE SMOOTH"
);
}
);
width = 490;
}
);
unicode = 0045;
},
{
color = 8;
glyphname = F;
lastChange = "2021-03-15 20:23:31 +0000";
layers = (
{
hints = (
{
origin = "{0, 0}";
scale = "{-1, 1}";
type = Corner;
name = _corner.CAP.leftSerif;
},
{
origin = "{0, 2}";
scale = "{1, -1}";
type = Corner;
name = _corner.CAP.leftSerif;
},
{
origin = "{0, 3}";
type = Corner;
name = _corner.CAP.leftSerif;
},
{
origin = "{1, 0}";
scale = "{1, 0.8}";
type = Corner;
name = _corner.CAP.top.EE;
}
);
layerId = "A2204D38-078E-49A4-B70C-87904FFF8E34";
paths = (
{
closed = 1;
nodes = (
"154 0 LINE {name = \"🧨\";}",
"154 700 LINE {name = \"🧨\";}",
"84 700 LINE",
"84 0 LINE"
);
},
{
closed = 1;
nodes = (
"433 658 LINE",
"433 700 LINE",
"135 700 LINE {name = \"🧨\";}",
"135 658 LINE"
);
},
{
closed = 1;
nodes = (
"288 286 OFFCURVE",
"319 286 OFFCURVE",
"333 286 CURVE",
"367 286 LINE",
"367 288 OFFCURVE",
"367 299 OFFCURVE",
"367 301 CURVE SMOOTH",
"367 311 LINE SMOOTH",
"367 313 OFFCURVE",
"367 324 OFFCURVE",
"367 326 CURVE",
"334 326 LINE",
"320 326 OFFCURVE",
"288 326 OFFCURVE",
"254 326 CURVE SMOOTH",
"89 326 LINE",
"89 286 LINE",
"254 286 LINE SMOOTH"
);
}
);
width = 418;
},
{
backgroundImage = {
crop = "{{0, 0}, {305.16, 367}}";
imagePath = "img/05 Page 3.png";
transform = "{42.083, 0, 0, 42.083, -5281, -11795}";
};
hints = (
{
origin = "{0, 2}";
scale = "{1, -1}";
type = Corner;
name = _corner.CAP.leftSerif;
},
{
origin = "{0, 3}";
type = Corner;
name = _corner.CAP.leftSerif;
},
{
origin = "{1, 0}";
scale = "{1, 0.8}";
type = Corner;
name = _corner.CAP.top.EE;
},
{
origin = "{0, 0}";
scale = "{-1, 1}";
type = Corner;
name = _corner.CAP.leftSerif;
}
);
layerId = "3EDEE92B-4D9D-4D9A-9438-63C2E33416C1";
paths = (
{
closed = 1;
nodes = (
"164 0 LINE {name = \"🧨\";}",
"164 700 LINE {name = \"🧨\";}",
"94 700 LINE",
"94 0 LINE"
);
},
{
closed = 1;
nodes = (
"443 658 LINE",
"443 700 LINE",
"145 700 LINE {name = \"🧨\";}",
"145 658 LINE"
);
},
{
closed = 1;
nodes = (
"334 286 OFFCURVE",
"345 277 OFFCURVE",
"356 235 CURVE",
"390 235 LINE",
"389 258 OFFCURVE",
"383 279 OFFCURVE",
"383 301 CURVE SMOOTH",
"383 311 LINE SMOOTH",
"383 333 OFFCURVE",
"389 364 OFFCURVE",
"390 377 CURVE",
"356 377 LINE",
"345 335 OFFCURVE",
"334 326 OFFCURVE",
"270 326 CURVE SMOOTH",
"105 326 LINE",
"105 286 LINE",
"270 286 LINE SMOOTH"
);
}
);
width = 467;
}
);
leftMetricsKey = E;
unicode = 0046;
},
{
color = 8;
glyphname = G;
lastChange = "2021-03-13 10:59:55 +0000";
layers = (
{
background = {
paths = (
{
closed = 1;
nodes = (
"538 -12 OFFCURVE",
"615 19 OFFCURVE",
"638 30 CURVE",
"659 75 LINE",
"649 86 LINE",
"640 78 OFFCURVE",
"591 29 OFFCURVE",
"447 29 CURVE SMOOTH",
"297 29 OFFCURVE",
"137 150 OFFCURVE",
"137 364 CURVE SMOOTH",
"137 544 OFFCURVE",
"244 668 OFFCURVE",
"433 668 CURVE SMOOTH",
"508 668 OFFCURVE",
"579 646 OFFCURVE",
"613 617 CURVE",
"617 613 OFFCURVE",
"619 611 OFFCURVE",
"623 606 CURVE",
"632 607 LINE",
"659 662 LINE",
"637 674 OFFCURVE",
"582 710 OFFCURVE",
"433 710 CURVE SMOOTH",
"240 710 OFFCURVE",
"55 582 OFFCURVE",
"55 364 CURVE SMOOTH",
"55 147 OFFCURVE",
"192 -12 OFFCURVE",
"447 -12 CURVE SMOOTH"
);
}
);
};
layerId = "A2204D38-078E-49A4-B70C-87904FFF8E34";
paths = (
{
closed = 1;
nodes = (
"550 -12 OFFCURVE",
"622 19 OFFCURVE",
"676 36 CURVE",
"676 267 LINE {name = \"🧨\";}",
"616 267 LINE {name = \"🧨\";}",
"616 62 LINE",
"567 39 OFFCURVE",
"507 25 OFFCURVE",
"443 25 CURVE SMOOTH",
"300 25 OFFCURVE",
"134 133 OFFCURVE",
"134 339 CURVE SMOOTH",
"134 562 OFFCURVE",
"259 674 OFFCURVE",
"443 674 CURVE SMOOTH",
"521 674 OFFCURVE",
"594 644 OFFCURVE",
"643 611 CURVE",
"647 608 OFFCURVE",
"651 604 OFFCURVE",
"654 600 CURVE",
"663 600 LINE",
"687 657 LINE",
"642 682 OFFCURVE",
"539 710 OFFCURVE",
"443 710 CURVE SMOOTH",
"224 710 OFFCURVE",
"50 568 OFFCURVE",
"50 339 CURVE SMOOTH",
"50 130 OFFCURVE",
"194 -12 OFFCURVE",
"416 -12 CURVE SMOOTH"
);
},
{
closed = 1;
nodes = (
"676 226 LINE",
"676 240 LINE",
"676 267 LINE",
"521 267 LINE",
"521 242 LINE",
"616 226 LINE {name = \"🧨\";}"
);
}
);
width = 672;
},
{
backgroundImage = {
crop = "{{0, 0}, {305.16, 367}}";
imagePath = "img/05 Page 3.png";
locked = "1";
transform = "{42.083, 0, 0, 42.083, -5816, -11793}";
};
layerId = "3EDEE92B-4D9D-4D9A-9438-63C2E33416C1";
paths = (
{
closed = 1;
nodes = (
"555 -12 OFFCURVE",
"627 19 OFFCURVE",
"681 36 CURVE",
"681 267 LINE {name = \"🧨\";}",
"621 267 LINE {name = \"🧨\";}",
"621 62 LINE",
"572 39 OFFCURVE",
"512 25 OFFCURVE",
"448 25 CURVE SMOOTH",
"305 25 OFFCURVE",
"139 133 OFFCURVE",
"139 339 CURVE SMOOTH",
"139 562 OFFCURVE",
"264 674 OFFCURVE",
"448 674 CURVE SMOOTH",
"526 674 OFFCURVE",
"599 644 OFFCURVE",
"648 611 CURVE",
"651 594 OFFCURVE",
"654 577 OFFCURVE",
"657 560 CURVE",
"692 560 LINE",
"692 657 LINE",
"647 682 OFFCURVE",
"544 710 OFFCURVE",
"448 710 CURVE SMOOTH",
"229 710 OFFCURVE",
"55 568 OFFCURVE",
"55 339 CURVE SMOOTH",
"55 130 OFFCURVE",
"199 -12 OFFCURVE",
"421 -12 CURVE SMOOTH"
);
},
{
closed = 1;
nodes = (
"681 226 LINE",
"747 240 LINE",
"747 267 LINE",
"526 267 LINE",
"526 242 LINE",
"621 226 LINE {name = \"🧨\";}"
);
}
);
width = 754;
}
);
leftMetricsKey = O;
rightMetricsKey = F;
unicode = 0047;
},
{
color = 8;
glyphname = H;
lastChange = "2021-03-10 17:58:38 +0000";
layers = (
{
hints = (
{
origin = "{1, 0}";
scale = "{-1.2, 1}";
type = Corner;
name = _corner.CAP.leftSerif;
},
{
origin = "{1, 1}";
scale = "{-1.2, -1}";
type = Corner;
name = _corner.CAP.leftSerif;
},
{
origin = "{1, 2}";
scale = "{1.2, -1}";
type = Corner;
name = _corner.CAP.leftSerif;
},
{
origin = "{1, 3}";
scale = "{1.2, 1}";
type = Corner;
name = _corner.CAP.leftSerif;
},
{
origin = "{0, 0}";
scale = "{-1.2, 1}";
type = Corner;
name = _corner.CAP.leftSerif;
},
{
origin = "{0, 1}";
scale = "{-1.2, -1}";
type = Corner;
name = _corner.CAP.leftSerif;
},
{
origin = "{0, 2}";
scale = "{1.2, -1}";
type = Corner;
name = _corner.CAP.leftSerif;
},
{
origin = "{0, 3}";
scale = "{1.2, 1}";
type = Corner;
name = _corner.CAP.leftSerif;
}
);
layerId = "A2204D38-078E-49A4-B70C-87904FFF8E34";
paths = (
{
closed = 1;
nodes = (
"616 0 LINE",
"616 700 LINE",
"554 700 LINE",
"554 0 LINE"
);
},
{
closed = 1;
nodes = (
"146 0 LINE",
"146 700 LINE",
"84 700 LINE",
"84 0 LINE"
);
},
{
closed = 1;
nodes = (
"576 353 LINE",
"576 395 LINE",
"119 395 LINE",
"119 353 LINE"
);
}
);
width = 687;
},
{
backgroundImage = {
crop = "{{159.328, 274.553}, {16.277, 23.763}}";
imagePath = "img/05 Page 3.png";
locked = "1";
transform = "{42.083, 0, 0, 42.083, -6658, -11792}";
};
hints = (
{
origin = "{1, 0}";
scale = "{-1, 1}";
type = Corner;
name = _corner.CAP.leftSerif;
},
{
origin = "{1, 1}";
scale = "{-1, -1}";
type = Corner;
name = _corner.CAP.leftSerif;
},
{
origin = "{1, 2}";
scale = "{1, -1}";
type = Corner;
name = _corner.CAP.leftSerif;
},
{
origin = "{1, 3}";
type = Corner;
name = _corner.CAP.leftSerif;
},
{
origin = "{0, 0}";
scale = "{-1, 1}";
type = Corner;
name = _corner.CAP.leftSerif;
},
{
origin = "{0, 1}";
scale = "{-1, -1}";
type = Corner;
name = _corner.CAP.leftSerif;
},
{
origin = "{0, 2}";
scale = "{1, -1}";
type = Corner;
name = _corner.CAP.leftSerif;
},
{
origin = "{0, 3}";
type = Corner;
name = _corner.CAP.leftSerif;
}
);
layerId = "3EDEE92B-4D9D-4D9A-9438-63C2E33416C1";
paths = (
{
closed = 1;
nodes = (
"657 0 LINE",
"657 700 LINE",
"595 700 LINE",
"595 0 LINE"
);
},
{
closed = 1;
nodes = (
"187 0 LINE",
"187 700 LINE",
"125 700 LINE",
"125 0 LINE"
);
},
{
closed = 1;
nodes = (
"617 354 LINE",
"617 396 LINE",
"160 396 LINE",
"160 354 LINE"
);
}
);
width = 779;
}
);
unicode = 0048;
},
{
color = 8;
glyphname = I;
lastChange = "2021-03-10 17:58:28 +0000";
layers = (
{
hints = (
{
origin = "{0, 0}";
scale = "{-1, 1}";
type = Corner;
name = _corner.CAP.leftSerif;
},
{
origin = "{0, 1}";
scale = "{-1, -1}";
type = Corner;
name = _corner.CAP.leftSerif;
},
{
origin = "{0, 2}";
scale = "{1, -1}";
type = Corner;
name = _corner.CAP.leftSerif;
},
{
origin = "{0, 3}";
type = Corner;
name = _corner.CAP.leftSerif;
}
);
layerId = "A2204D38-078E-49A4-B70C-87904FFF8E34";
paths = (
{
closed = 1;
nodes = (
"142 0 LINE",
"142 700 LINE",
"80 700 LINE",
"80 0 LINE"
);
}
);
width = 222;
},
{
backgroundImage = {
crop = "{{0, 0}, {305.16, 367}}";
imagePath = "img/05 Page 3.png";
locked = "1";
transform = "{42.083, 0, 0, 42.083, -7537, -11784}";
};
hints = (
{
origin = "{0, 0}";
scale = "{-1, 1}";
type = Corner;
name = _corner.CAP.leftSerif;
},
{
origin = "{0, 3}";
type = Corner;
name = _corner.CAP.leftSerif;
},
{
origin = "{0, 2}";
scale = "{1, -1}";
type = Corner;
name = _corner.CAP.leftSerif;
},
{
origin = "{0, 1}";
scale = "{-1, -1}";
type = Corner;
name = _corner.CAP.leftSerif;
}
);
layerId = "3EDEE92B-4D9D-4D9A-9438-63C2E33416C1";
paths = (
{
closed = 1;
nodes = (
"174 0 LINE",
"174 700 LINE",
"112 700 LINE",
"112 0 LINE"
);
}
);
width = 286;
}
);
unicode = 0049;
},
{
color = 8;
glyphname = J;
lastChange = "2021-03-10 18:56:40 +0000";
layers = (
{
hints = (
{
origin = "{1, 1}";
scale = "{-1, -1}";
type = Corner;
name = _corner.CAP.leftSerif;
},
{
origin = "{1, 2}";
scale = "{1, -1}";
type = Corner;
name = _corner.CAP.leftSerif;
}
);
layerId = "A2204D38-078E-49A4-B70C-87904FFF8E34";
paths = (
{
closed = 1;
nodes = (
"90 48 LINE SMOOTH",
"90 -35 OFFCURVE",
"70 -106 OFFCURVE",
"22 -106 CURVE SMOOTH",
"6 -106 OFFCURVE",
"-6 -102 OFFCURVE",
"-16 -97 CURVE",
"-20 -99 LINE",
"-20 -153 LINE",
"-18 -154 LINE",
"109 -137 OFFCURVE",
"152 -47 OFFCURVE",
"152 51 CURVE SMOOTH",
"152 228 LINE",
"90 228 LINE"
);
},
{
closed = 1;
nodes = (
"152 60 LINE",
"152 700 LINE",
"90 700 LINE",
"90 60 LINE"
);
}
);
width = 232;
},
{
backgroundImage = {
crop = "{{0, 0}, {305.16, 367}}";
imagePath = "img/05 Page 3.png";
locked = "1";
transform = "{42.083, 0, 0, 42.083, -7948, -11790}";
};
hints = (
{
origin = "{1, 1}";
scale = "{-1, -1}";
type = Corner;
name = _corner.CAP.leftSerif;
},
{
origin = "{1, 2}";
scale = "{1, -1}";
type = Corner;
name = _corner.CAP.leftSerif;
}
);
layerId = "3EDEE92B-4D9D-4D9A-9438-63C2E33416C1";
paths = (
{
closed = 1;
nodes = (
"90 48 LINE SMOOTH",
"90 -35 OFFCURVE",
"70 -106 OFFCURVE",
"22 -106 CURVE SMOOTH",
"6 -106 OFFCURVE",
"-6 -102 OFFCURVE",
"-16 -97 CURVE",
"-20 -99 LINE",
"-20 -153 LINE",
"-18 -154 LINE",
"109 -137 OFFCURVE",
"152 -47 OFFCURVE",
"152 51 CURVE SMOOTH",
"152 228 LINE",
"90 228 LINE"
);
},
{
closed = 1;
nodes = (
"152 60 LINE",
"152 700 LINE",
"90 700 LINE",
"90 60 LINE"
);
}
);
width = 264;
}
);
rightMetricsKey = I;
unicode = 004A;
},
{
color = 8;
glyphname = K;
lastChange = "2021-03-15 20:21:48 +0000";
layers = (
{
background = {
hints = (
{
origin = "{1, 0}";
scale = "{-1, 1}";
type = Corner;
name = _corner.CAP.leftSerif;
},
{
origin = "{1, 1}";
scale = "{-1, -1}";
type = Corner;
name = _corner.CAP.leftSerif;
},
{
origin = "{1, 2}";
scale = "{1, -1}";
type = Corner;
name = _corner.CAP.leftSerif;
},
{
origin = "{1, 3}";
type = Corner;
name = _corner.CAP.leftSerif;
}
);
paths = (
{
closed = 1;
nodes = (
"610 0 LINE",
"610 30 LINE",
"583 30 OFFCURVE",
"542 42 OFFCURVE",
"520 63 CURVE",
"219 358 LINE",
"219 363 LINE",
"477 634 LINE",
"496 652 OFFCURVE",
"516 670 OFFCURVE",
"551 670 CURVE",
"551 700 LINE",
"473 700 LINE",
"165 365 LINE",
"143 365 LINE",
"143 323 LINE",
"166 323 LINE",
"496 0 LINE"
);
},
{
closed = 1;
nodes = (
"144 0 LINE",
"144 700 LINE",
"82 700 LINE",
"82 0 LINE"
);
}
);
};
guideLines = (
{
angle = 135.5768;
position = "{370, 211}";
},
{
angle = 46.4077;
position = "{348, 499}";
}
);
hints = (
{
origin = "{1, 0}";
scale = "{-1, 1}";
type = Corner;
name = _corner.CAP.leftSerif;
},
{
origin = "{1, 1}";
scale = "{-1, -1}";
type = Corner;
name = _corner.CAP.leftSerif;
},
{
origin = "{1, 2}";
scale = "{1, -1}";
type = Corner;
name = _corner.CAP.leftSerif;
},
{
origin = "{1, 3}";
type = Corner;
name = _corner.CAP.leftSerif;
}
);
layerId = "A2204D38-078E-49A4-B70C-87904FFF8E34";
paths = (
{
closed = 1;
nodes = (
"585 0 LINE",
"574 11 LINE",
"566 19 OFFCURVE",
"559 26 OFFCURVE",
"520 63 CURVE",
"219 358 LINE",
"219 363 LINE",
"477 634 LINE",
"497 656 OFFCURVE",
"509 668 OFFCURVE",
"520 680 CURVE",
"539 700 LINE",
"473 700 LINE",
"165 365 LINE",
"143 365 LINE",
"143 323 LINE",
"166 323 LINE",
"496 0 LINE"
);
},
{
closed = 1;
nodes = (
"144 0 LINE",
"144 700 LINE",
"82 700 LINE",
"82 0 LINE"
);
}
);
width = 609;
},
{
backgroundImage = {
crop = "{{0, 0}, {305.16, 367}}";
imagePath = "img/05 Page 3.png";
locked = "1";
transform = "{42.083, 0, 0, 42.083, -8342, -11784}";
};
hints = (
{
origin = "{1, 0}";
scale = "{-1, 1}";
type = Corner;
name = _corner.CAP.leftSerif;
},
{
origin = "{1, 1}";
scale = "{-1, -1}";
type = Corner;
name = _corner.CAP.leftSerif;
},
{
origin = "{1, 2}";
scale = "{1, -1}";
type = Corner;
name = _corner.CAP.leftSerif;
},
{
origin = "{1, 3}";
type = Corner;
name = _corner.CAP.leftSerif;
}
);
layerId = "3EDEE92B-4D9D-4D9A-9438-63C2E33416C1";
paths = (
{
closed = 1;
nodes = (
"610 0 LINE",
"610 30 LINE",
"583 30 OFFCURVE",
"542 42 OFFCURVE",
"520 63 CURVE",
"219 358 LINE",
"219 363 LINE",
"477 634 LINE",
"496 652 OFFCURVE",
"516 670 OFFCURVE",
"551 670 CURVE",
"551 700 LINE",
"473 700 LINE",
"165 365 LINE",
"143 365 LINE",
"143 323 LINE",
"166 323 LINE",
"496 0 LINE"
);
},
{
closed = 1;
nodes = (
"144 0 LINE",
"144 700 LINE",
"82 700 LINE",
"82 0 LINE"
);
}
);
width = 635;
}
);
unicode = 004B;
},
{
color = 8;
glyphname = L;
lastChange = "2021-03-12 11:09:20 +0000";
layers = (
{
hints = (
{
origin = "{2, 1}";
scale = "{-1.3, -1}";
type = Corner;
name = _corner.CAP.leftSerif;
},
{
origin = "{2, 2}";
scale = "{1, -1}";
type = Corner;
name = _corner.CAP.leftSerif;
},
{
origin = "{2, 3}";
type = Corner;
name = _corner.CAP.leftSerif;
}
);
layerId = "A2204D38-078E-49A4-B70C-87904FFF8E34";
paths = (
{
closed = 1;
nodes = (
"442 0 LINE {name = \"🧨\";}",
"442 42 LINE",
"135 42 LINE",
"135 0 LINE {name = \"🧨\";}"
);
},
{
closed = 1;
nodes = (
"460 0 LINE",
"460 42 LINE",
"426 42 LINE",
"421 42 LINE",
"400 42 OFFCURVE",
"372 42 OFFCURVE",
"344 42 CURVE {name = \"🧨\";}",
"421 0 LINE {name = \"🧨\";}"
);
},
{
closed = 1;
nodes = (
"162 0 LINE",
"162 700 LINE",
"100 700 LINE",
"100 0 LINE"
);
}
);
width = 505;
},
{
backgroundImage = {
crop = "{{0, 0}, {305.16, 367}}";
imagePath = "img/05 Page 3.png";
locked = "1";
transform = "{42.083, 0, 0, 42.083, -9079, -11786}";
};
hints = (
{
origin = "{2, 1}";
scale = "{-1.3, -1}";
type = Corner;
name = _corner.CAP.leftSerif;
},
{
origin = "{2, 2}";
scale = "{1, -1}";
type = Corner;
name = _corner.CAP.leftSerif;
},
{
origin = "{2, 3}";
type = Corner;
name = _corner.CAP.leftSerif;
}
);
layerId = "3EDEE92B-4D9D-4D9A-9438-63C2E33416C1";
paths = (
{
closed = 1;
nodes = (
"442 0 LINE {name = \"🧨\";}",
"442 42 LINE",
"135 42 LINE",
"135 0 LINE {name = \"🧨\";}"
);
},
{
closed = 1;
nodes = (
"460 0 LINE",
"485 111 LINE",
"461 121 LINE",
"456 118 LINE",
"438 53 OFFCURVE",
"422 42 OFFCURVE",
"344 42 CURVE {name = \"🧨\";}",
"421 0 LINE {name = \"🧨\";}"
);
},
{
closed = 1;
nodes = (
"162 0 LINE",
"162 700 LINE",
"100 700 LINE",
"100 0 LINE"
);
}
);
width = 502;
}
);
unicode = 004C;
},
{
color = 8;
glyphname = M;
lastChange = "2021-03-10 18:56:40 +0000";
layers = (
{
hints = (
{
origin = "{1, 0}";
scale = "{-1, 1}";
type = Corner;
name = _corner.CAP.leftSerif;
},
{
origin = "{1, 2}";
scale = "{1, -1}";
type = Corner;
name = _corner.CAP.leftSerif;
},
{
origin = "{1, 3}";
type = Corner;
name = _corner.CAP.leftSerif;
},
{
origin = "{2, 0}";
scale = "{-1, 1}";
type = Corner;
name = _corner.CAP.leftSerif;
},
{
origin = "{2, 1}";
scale = "{-0.8, -1}";
type = Corner;
name = _corner.CAP.leftSerif;
},
{
origin = "{2, 3}";
type = Corner;
name = _corner.CAP.leftSerif;
}
);
layerId = "A2204D38-078E-49A4-B70C-87904FFF8E34";
paths = (
{
closed = 1;
nodes = (
"457 121 LINE",
"171 700 LINE",
"114 700 LINE",
"114 582 LINE",
"154 582 LINE",
"444 -2 LINE",
"454 -2 LINE",
"768 582 LINE",
"794 582 LINE",
"794 700 LINE",
"779 700 LINE",
"468 121 LINE"
);
},
{
closed = 1;
nodes = (
"136 0 LINE",
"136 700 LINE",
"84 700 LINE",
"84 0 LINE"
);
},
{
closed = 1;
nodes = (
"842 0 LINE",
"842 700 LINE",
"780 700 LINE",
"780 0 LINE"
);
}
);
width = 913;
},
{
backgroundImage = {
crop = "{{0, 0}, {305.16, 367}}";
imagePath = "img/05 Page 3.png";
locked = "1";
transform = "{42.083, 0, 0, 42.083, -9637, -11785}";
};
hints = (
{
origin = "{1, 0}";
scale = "{-1, 1}";
type = Corner;
name = _corner.CAP.leftSerif;
},
{
origin = "{1, 2}";
scale = "{1, -1}";
type = Corner;
name = _corner.CAP.leftSerif;
},
{
origin = "{1, 3}";
type = Corner;
name = _corner.CAP.leftSerif;
},
{
origin = "{2, 0}";
scale = "{-1, 1}";
type = Corner;
name = _corner.CAP.leftSerif;
},
{
origin = "{2, 1}";
scale = "{-0.8, -1}";
type = Corner;
name = _corner.CAP.leftSerif;
},
{
origin = "{2, 3}";
type = Corner;
name = _corner.CAP.leftSerif;
}
);
layerId = "3EDEE92B-4D9D-4D9A-9438-63C2E33416C1";
paths = (
{
closed = 1;
nodes = (
"498 121 LINE",
"212 700 LINE",
"155 700 LINE",
"155 582 LINE",
"195 582 LINE",
"485 -2 LINE",
"495 -2 LINE",
"809 582 LINE",
"835 582 LINE",
"835 700 LINE",
"820 700 LINE",
"509 121 LINE"
);
},
{
closed = 1;
nodes = (
"177 0 LINE",
"177 700 LINE",
"125 700 LINE",
"125 0 LINE"
);
},
{
closed = 1;
nodes = (
"883 0 LINE",
"883 700 LINE",
"821 700 LINE",
"821 0 LINE"
);
}
);
width = 1005;
}
);
leftMetricsKey = H;
rightMetricsKey = H;
unicode = 004D;
},
{
color = 8;
glyphname = N;
lastChange = "2021-03-10 18:56:44 +0000";
layers = (
{
backgroundImage = {
crop = "{{0, 0}, {49.726, 17.296}}";
imagePath = "palatino-source/alon.jpg";
locked = "1";
transform = "{62.53975, 0, 0, 62.53975, -2386, -255}";
};
hints = (
{
origin = "{0, 8}";
scale = "{-1, -1}";
type = Corner;
name = _corner.CAP.leftSerif;
},
{
origin = "{0, 9}";
scale = "{1, -1}";
type = Corner;
name = _corner.CAP.leftSerif;
},
{
origin = "{1, 0}";
scale = "{-1, 1}";
type = Corner;
name = _corner.CAP.leftSerif;
},
{
origin = "{1, 2}";
scale = "{1, -1}";
type = Corner;
name = _corner.CAP.leftSerif;
},
{
origin = "{1, 3}";
type = Corner;
name = _corner.CAP.leftSerif;
}
);
layerId = "A2204D38-078E-49A4-B70C-87904FFF8E34";
paths = (
{
closed = 1;
nodes = (
"595 121 LINE",
"144 700 LINE",
"104 700 LINE",
"104 582 LINE",
"144 582 LINE",
"598 0 LINE",
"659 0 LINE",
"674 0 LINE",
"674 700 LINE",
"612 700 LINE",
"612 121 LINE"
);
},
{
closed = 1;
nodes = (
"136 0 LINE {name = \"🧨\";}",
"136 700 LINE",
"84 700 LINE {name = \"🧨\";}",
"84 0 LINE {name = \"🧨\";}"
);
}
);
width = 745;
},
{
backgroundImage = {
crop = "{{0, 0}, {305.16, 367}}";
imagePath = "img/05 Page 3.png";
locked = "1";
transform = "{42.083, 0, 0, 42.083, -1003, -8605}";
};
hints = (
{
origin = "{1, 0}";
scale = "{-1, 1}";
type = Corner;
name = _corner.CAP.leftSerif;
},
{
origin = "{1, 2}";
scale = "{1, -1}";
type = Corner;
name = _corner.CAP.leftSerif;
},
{
origin = "{1, 3}";
type = Corner;
name = _corner.CAP.leftSerif;
},
{
origin = "{0, 8}";
scale = "{-1, -1}";
type = Corner;
name = _corner.CAP.leftSerif;
},
{
origin = "{0, 9}";
scale = "{1, -1}";
type = Corner;
name = _corner.CAP.leftSerif;
}
);
layerId = "3EDEE92B-4D9D-4D9A-9438-63C2E33416C1";
paths = (
{
closed = 1;
nodes = (
"636 121 LINE",
"185 700 LINE",
"145 700 LINE",
"145 582 LINE",
"185 582 LINE",
"639 0 LINE",
"700 -10 LINE",
"715 -10 LINE",
"715 700 LINE",
"653 700 LINE",
"653 121 LINE"
);
},
{
closed = 1;
nodes = (
"177 0 LINE {name = \"🧨\";}",
"177 700 LINE",
"125 700 LINE {name = \"🧨\";}",
"125 0 LINE {name = \"🧨\";}"
);
}
);
width = 837;
}
);
leftMetricsKey = H;
rightMetricsKey = H;
unicode = 004E;
},
{
color = 8;
glyphname = O;
lastChange = "2021-03-10 17:07:44 +0000";
layers = (
{
background = {
paths = (
{
closed = 1;
nodes = (
"640 -13 OFFCURVE",
"789 173 OFFCURVE",
"789 380 CURVE SMOOTH",
"789 565 OFFCURVE",
"660 710 OFFCURVE",
"452 710 CURVE SMOOTH",
"233 710 OFFCURVE",
"45 549 OFFCURVE",
"45 335 CURVE SMOOTH",
"45 152 OFFCURVE",
"164 -13 OFFCURVE",
"367 -13 CURVE SMOOTH"
);
},
{
closed = 1;
nodes = (
"255 37 OFFCURVE",
"126 179 OFFCURVE",
"126 353 CURVE SMOOTH",
"126 525 OFFCURVE",
"255 667 OFFCURVE",
"416 667 CURVE SMOOTH",
"577 667 OFFCURVE",
"708 525 OFFCURVE",
"708 353 CURVE SMOOTH",
"708 179 OFFCURVE",
"577 37 OFFCURVE",
"416 37 CURVE SMOOTH"
);
}
);
};
backgroundImage = {
crop = "{{0, 0}, {49.726, 17.296}}";
imagePath = "palatino-source/alon.jpg";
locked = "1";
transform = "{60.937, 0, 0, 60.937, -1327, -255}";
};
guideLines = (
{
position = "{-51, 710}";
}
);
layerId = "A2204D38-078E-49A4-B70C-87904FFF8E34";
paths = (
{
closed = 1;
nodes = (
"636 -13 OFFCURVE",
"801 180 OFFCURVE",
"801 380 CURVE SMOOTH",
"801 580 OFFCURVE",
"666 710 OFFCURVE",
"454 710 CURVE SMOOTH",
"261 710 OFFCURVE",
"50 604 OFFCURVE",
"50 335 CURVE SMOOTH",
"50 147 OFFCURVE",
"171 -13 OFFCURVE",
"410 -13 CURVE SMOOTH"
);
},
{
closed = 1;
nodes = (
"260 27 OFFCURVE",
"127 185 OFFCURVE",
"127 353 CURVE SMOOTH",
"127 556 OFFCURVE",
"246 677 OFFCURVE",
"418 677 CURVE SMOOTH",
"620 677 OFFCURVE",
"723 532 OFFCURVE",
"723 353 CURVE SMOOTH",
"723 145 OFFCURVE",
"598 27 OFFCURVE",
"418 27 CURVE SMOOTH"
);
}
);
width = 851;
},
{
backgroundImage = {
crop = "{{0, 0}, {305.16, 367}}";
imagePath = "img/05 Page 3.png";
locked = "1";
transform = "{41.25784, 0, 0, 41.25784, -1876, -8426}";
};
guideLines = (
{
position = "{-44, 710}";
}
);
layerId = "3EDEE92B-4D9D-4D9A-9438-63C2E33416C1";
paths = (
{
closed = 1;
nodes = (
"641 -13 OFFCURVE",
"806 180 OFFCURVE",
"806 380 CURVE SMOOTH",
"806 580 OFFCURVE",
"671 710 OFFCURVE",
"459 710 CURVE SMOOTH",
"266 710 OFFCURVE",
"55 604 OFFCURVE",
"55 335 CURVE SMOOTH",
"55 147 OFFCURVE",
"176 -13 OFFCURVE",
"415 -13 CURVE SMOOTH"
);
},
{
closed = 1;
nodes = (
"265 27 OFFCURVE",
"132 185 OFFCURVE",
"132 353 CURVE SMOOTH",
"132 556 OFFCURVE",
"251 677 OFFCURVE",
"423 677 CURVE SMOOTH",
"625 677 OFFCURVE",
"728 532 OFFCURVE",
"728 353 CURVE SMOOTH",
"728 145 OFFCURVE",
"603 27 OFFCURVE",
"423 27 CURVE SMOOTH"
);
}
);
width = 861;
}
);
unicode = 004F;
},
{
color = 8;
glyphname = P;
lastChange = "2021-03-10 18:25:40 +0000";
layers = (
{
hints = (
{
origin = "{1, 0}";
scale = "{-1, 1}";
type = Corner;
name = _corner.CAP.leftSerif;
},
{
origin = "{1, 2}";
scale = "{1, -1}";
type = Corner;
name = _corner.CAP.leftSerif;
},
{
origin = "{1, 3}";
type = Corner;
name = _corner.CAP.leftSerif;
}
);
layerId = "A2204D38-078E-49A4-B70C-87904FFF8E34";
paths = (
{
closed = 1;
nodes = (
"201 324 LINE SMOOTH",
"324 324 OFFCURVE",
"453 387 OFFCURVE",
"453 527 CURVE SMOOTH",
"453 655 OFFCURVE",
"368 700 OFFCURVE",
"255 700 CURVE SMOOTH",
"80 700 LINE {name = \"🧨\";}",
"80 660 LINE",
"223 660 LINE SMOOTH",
"328 660 OFFCURVE",
"373 612 OFFCURVE",
"373 527 CURVE SMOOTH",
"373 420 OFFCURVE",
"337 362 OFFCURVE",
"192 362 CURVE SMOOTH",
"81 362 LINE",
"81 324 LINE"
);
},
{
closed = 1;
nodes = (
"102 0 LINE",
"102 700 LINE",
"40 700 LINE",
"40 0 LINE"
);
}
);
width = 458;
},
{
backgroundImage = {
crop = "{{0, 0}, {305.16, 367}}";
imagePath = "img/05 Page 3.png";
locked = "1";
transform = "{42.083, 0, 0, 42.083, -2875, -8605}";
};
hints = (
{
origin = "{1, 0}";
scale = "{-1, 1}";
type = Corner;
name = _corner.CAP.leftSerif;
},
{
origin = "{1, 2}";
scale = "{1, -1}";
type = Corner;
name = _corner.CAP.leftSerif;
},
{
origin = "{1, 3}";
type = Corner;
name = _corner.CAP.leftSerif;
}
);
layerId = "3EDEE92B-4D9D-4D9A-9438-63C2E33416C1";
paths = (
{
closed = 1;
nodes = (
"279 324 LINE SMOOTH",
"402 324 OFFCURVE",
"531 387 OFFCURVE",
"531 527 CURVE SMOOTH",
"531 655 OFFCURVE",
"446 700 OFFCURVE",
"333 700 CURVE SMOOTH",
"158 700 LINE {name = \"🧨\";}",
"158 660 LINE",
"301 660 LINE SMOOTH",
"406 660 OFFCURVE",
"451 612 OFFCURVE",
"451 527 CURVE SMOOTH",
"451 420 OFFCURVE",
"415 362 OFFCURVE",
"270 362 CURVE SMOOTH",
"159 362 LINE",
"159 324 LINE"
);
},
{
closed = 1;
nodes = (
"180 0 LINE",
"180 700 LINE",
"118 700 LINE",
"118 0 LINE"
);
}
);
width = 539;
}
);
leftMetricsKey = D;
unicode = 0050;
},
{
color = 8;
glyphname = Q;
lastChange = "2021-03-10 17:07:44 +0000";
layers = (
{
background = {
paths = (
{
closed = 1;
nodes = (
"1639 -920 LINE",
"1682 -862 LINE",
"-170 535 LINE",
"-213 477 LINE"
);
}
);
};
backgroundImage = {
crop = "{{0, 0}, {294, 68.104}}";
imagePath = "palatino-source/alphabet.jpg";
transform = "{72.664, 0, 0, 72.664, -18467, -5984}";
};
components = (
{
locked = 1;
name = O;
}
);
layerId = "A2204D38-078E-49A4-B70C-87904FFF8E34";
paths = (
{
closed = 1;
nodes = (
"727 -74 OFFCURVE",
"746 -48 OFFCURVE",
"764 -22 CURVE",
"693 27 LINE",
"642 63 OFFCURVE",
"591 98 OFFCURVE",
"540 134 CURVE",
"507 158 OFFCURVE",
"474 181 OFFCURVE",
"439 204 CURVE",
"423 217 OFFCURVE",
"406 229 OFFCURVE",
"388 242 CURVE",
"366 209 LINE",
"355 194 OFFCURVE",
"344 178 OFFCURVE",
"333 163 CURVE",
"355 148 OFFCURVE",
"377 132 OFFCURVE",
"400 117 CURVE",
"483 59 LINE",
"536 21 OFFCURVE",
"588 -16 OFFCURVE",
"641 -52 CURVE",
"664 -68 OFFCURVE",
"686 -85 OFFCURVE",
"709 -101 CURVE"
);
}
);
width = 851;
},
{
backgroundImage = {
crop = "{{0, 0}, {305.16, 367}}";
imagePath = "img/05 Page 3.png";
locked = "1";
transform = "{42.083, 0, 0, 42.083, -3549, -8605}";
};
components = (
{
name = O;
}
);
layerId = "3EDEE92B-4D9D-4D9A-9438-63C2E33416C1";
paths = (
{
closed = 1;
nodes = (
"706 -170 OFFCURVE",
"747 -145 OFFCURVE",
"764 -135 CURVE",
"764 -118 LINE",
"749 -123 OFFCURVE",
"743 -127 OFFCURVE",
"718 -127 CURVE SMOOTH",
"688 -127 OFFCURVE",
"506 -43 OFFCURVE",
"424 -24 CURVE",
"422 -16 OFFCURVE",
"420 -8 OFFCURVE",
"417 0 CURVE",
"376 0 LINE",
"376 -10 OFFCURVE",
"374 -17 OFFCURVE",
"370 -24 CURVE",
"322 -38 OFFCURVE",
"275 -85 OFFCURVE",
"261 -97 CURVE",
"270 -109 LINE",
"288 -94 OFFCURVE",
"321 -76 OFFCURVE",
"352 -76 CURVE SMOOTH",
"389 -76 OFFCURVE",
"646 -170 OFFCURVE",
"676 -170 CURVE SMOOTH"
);
}
);
width = 861;
}
);
leftMetricsKey = O;
rightMetricsKey = O;
unicode = 0051;
},
{
color = 8;
glyphname = R;
lastChange = "2021-03-10 18:56:40 +0000";
layers = (
{
hints = (
{
origin = "{0, 0}";
scale = "{-0.8, 1}";
type = Corner;
name = _corner.CAP.leftSerif;
},
{
origin = "{2, 0}";
scale = "{-1, 1}";
type = Corner;
name = _corner.CAP.leftSerif;
},
{
origin = "{2, 2}";
scale = "{1, -1}";
type = Corner;
name = _corner.CAP.leftSerif;
},
{
origin = "{2, 3}";
type = Corner;
name = _corner.CAP.leftSerif;
}
);
layerId = "A2204D38-078E-49A4-B70C-87904FFF8E34";
paths = (
{
closed = 1;
nodes = (
"506 0 LINE",
"239 359 LINE",
"160 359 LINE",
"422 0 LINE"
);
},
{
closed = 1;
nodes = (
"168 344 LINE SMOOTH",
"304 344 OFFCURVE",
"433 420 OFFCURVE",
"433 535 CURVE SMOOTH",
"433 655 OFFCURVE",
"352 700 OFFCURVE",
"241 700 CURVE SMOOTH",
"80 700 LINE {name = \"🧨\";}",
"80 660 LINE",
"188 660 LINE SMOOTH",
"303 660 OFFCURVE",
"353 612 OFFCURVE",
"353 535 CURVE SMOOTH",
"353 440 OFFCURVE",
"300 382 OFFCURVE",
"182 382 CURVE SMOOTH",
"71 382 LINE",
"71 344 LINE"
);
},
{
closed = 1;
nodes = (
"102 0 LINE",
"102 700 LINE",
"40 700 LINE",
"40 0 LINE"
);
}
);
width = 511;
},
{
backgroundImage = {
crop = "{{0, 0}, {305.16, 367}}";
imagePath = "img/05 Page 3.png";
locked = "1";
transform = "{42.083, 0, 0, 42.083, -4476, -8603}";
};
hints = (
{
origin = "{0, 0}";
scale = "{-0.8, 1}";
type = Corner;
name = _corner.CAP.leftSerif;
options = 1;
},
{
origin = "{2, 0}";
scale = "{-1, 1}";
type = Corner;
name = _corner.CAP.leftSerif;
},
{
origin = "{2, 2}";
scale = "{1, -1}";
type = Corner;
name = _corner.CAP.leftSerif;
},
{
origin = "{2, 3}";
type = Corner;
name = _corner.CAP.leftSerif;
}
);
layerId = "3EDEE92B-4D9D-4D9A-9438-63C2E33416C1";
paths = (
{
closed = 1;
nodes = (
"584 0 LINE",
"317 359 LINE",
"238 359 LINE",
"500 0 LINE"
);
},
{
closed = 1;
nodes = (
"246 344 LINE SMOOTH",
"382 344 OFFCURVE",
"511 420 OFFCURVE",
"511 535 CURVE SMOOTH",
"511 655 OFFCURVE",
"430 700 OFFCURVE",
"319 700 CURVE SMOOTH",
"158 700 LINE {name = \"🧨\";}",
"158 660 LINE",
"266 660 LINE SMOOTH",
"381 660 OFFCURVE",
"431 612 OFFCURVE",
"431 535 CURVE SMOOTH",
"431 440 OFFCURVE",
"378 382 OFFCURVE",
"260 382 CURVE SMOOTH",
"149 382 LINE",
"149 344 LINE"
);
},
{
closed = 1;
nodes = (
"180 0 LINE",
"180 700 LINE",
"118 700 LINE",
"118 0 LINE"
);
}
);
width = 638;
}
);
leftMetricsKey = P;
unicode = 0052;
},
{
color = 8;
glyphname = S;
lastChange = "2021-03-10 17:07:44 +0000";
layers = (
{
background = {
paths = (
{
closed = 1;
nodes = (
"384 -12 OFFCURVE",
"504 95 OFFCURVE",
"504 269 CURVE SMOOTH",
"504 355 OFFCURVE",
"458 405 OFFCURVE",
"382 405 CURVE SMOOTH",
"346 405 OFFCURVE",
"294 398 OFFCURVE",
"257 398 CURVE SMOOTH",
"199 398 OFFCURVE",
"134 431 OFFCURVE",
"134 520 CURVE SMOOTH",
"134 604 OFFCURVE",
"199 673 OFFCURVE",
"290 673 CURVE SMOOTH",
"352 673 OFFCURVE",
"397 637 OFFCURVE",
"430 603 CURVE",
"438 603 LINE",
"448 640 LINE",
"457 672 LINE",
"433 686 OFFCURVE",
"380 710 OFFCURVE",
"307 710 CURVE SMOOTH",
"210 710 OFFCURVE",
"65 653 OFFCURVE",
"65 497 CURVE SMOOTH",
"65 393 OFFCURVE",
"125 334 OFFCURVE",
"182 334 CURVE SMOOTH",
"233 334 OFFCURVE",
"270 340 OFFCURVE",
"316 340 CURVE SMOOTH",
"393 340 OFFCURVE",
"437 276 OFFCURVE",
"437 211 CURVE SMOOTH",
"437 100 OFFCURVE",
"361 42 OFFCURVE",
"254 42 CURVE SMOOTH",
"178 42 OFFCURVE",
"108 84 OFFCURVE",
"82 110 CURVE",
"75 110 LINE",
"70 94 LINE",
"50 31 LINE",
"72 16 OFFCURVE",
"144 -12 OFFCURVE",
"225 -12 CURVE SMOOTH"
);
}
);
};
layerId = "A2204D38-078E-49A4-B70C-87904FFF8E34";
paths = (
{
closed = 1;
nodes = (
"383 -12 OFFCURVE",
"505 113 OFFCURVE",
"505 254 CURVE SMOOTH",
"505 365 OFFCURVE",
"454 406 OFFCURVE",
"367 406 CURVE SMOOTH",
"320 406 OFFCURVE",
"290 400 OFFCURVE",
"245 400 CURVE SMOOTH",
"173 400 OFFCURVE",
"132 447 OFFCURVE",
"132 520 CURVE SMOOTH",
"132 614 OFFCURVE",
"195 671 OFFCURVE",
"286 672 CURVE SMOOTH",
"367 673 OFFCURVE",
"417 617 OFFCURVE",
"450 583 CURVE",
"458 583 LINE",
"479 658 LINE",
"477 662 LINE",
"453 676 OFFCURVE",
"390 710 OFFCURVE",
"299 710 CURVE SMOOTH",
"146 710 OFFCURVE",
"59 613 OFFCURVE",
"59 505 CURVE SMOOTH",
"59 384 OFFCURVE",
"117 332 OFFCURVE",
"202 332 CURVE SMOOTH",
"250 332 OFFCURVE",
"262 338 OFFCURVE",
"312 338 CURVE SMOOTH",
"389 338 OFFCURVE",
"434 276 OFFCURVE",
"434 211 CURVE SMOOTH",
"434 100 OFFCURVE",
"357 42 OFFCURVE",
"250 42 CURVE SMOOTH",
"174 42 OFFCURVE",
"108 84 OFFCURVE",
"82 110 CURVE",
"75 110 LINE",
"70 94 LINE",
"50 31 LINE",
"72 16 OFFCURVE",
"140 -12 OFFCURVE",
"221 -12 CURVE SMOOTH"
);
}
);
width = 556;
},
{
backgroundImage = {
crop = "{{0, 0}, {305.16, 367}}";
imagePath = "img/05 Page 3.png";
locked = "1";
transform = "{42.083, 0, 0, 42.083, -5202, -8595}";
};
layerId = "3EDEE92B-4D9D-4D9A-9438-63C2E33416C1";
paths = (
{
closed = 1;
nodes = (
"374 -12 OFFCURVE",
"496 113 OFFCURVE",
"496 254 CURVE SMOOTH",
"496 370 OFFCURVE",
"427 404 OFFCURVE",
"357 404 CURVE SMOOTH",
"310 404 OFFCURVE",
"281 400 OFFCURVE",
"236 400 CURVE SMOOTH",
"164 400 OFFCURVE",
"123 447 OFFCURVE",
"123 520 CURVE SMOOTH",
"123 614 OFFCURVE",
"186 672 OFFCURVE",
"277 672 CURVE SMOOTH",
"339 672 OFFCURVE",
"391 658 OFFCURVE",
"424 624 CURVE",
"419 581 LINE",
"445 581 LINE",
"456 672 LINE",
"432 686 OFFCURVE",
"374 710 OFFCURVE",
"290 710 CURVE SMOOTH",
"137 710 OFFCURVE",
"50 613 OFFCURVE",
"50 505 CURVE SMOOTH",
"50 389 OFFCURVE",
"120 334 OFFCURVE",
"193 334 CURVE SMOOTH",
"241 334 OFFCURVE",
"253 338 OFFCURVE",
"290 338 CURVE SMOOTH",
"380 338 OFFCURVE",
"425 276 OFFCURVE",
"425 211 CURVE SMOOTH",
"425 100 OFFCURVE",
"348 42 OFFCURVE",
"241 42 CURVE SMOOTH",
"165 42 OFFCURVE",
"117 68 OFFCURVE",
"91 94 CURVE",
"86 146 LINE",
"58 146 LINE",
"58 31 LINE",
"80 16 OFFCURVE",
"131 -12 OFFCURVE",
"212 -12 CURVE SMOOTH"
);
}
);
width = 546;
}
);
unicode = 0053;
},
{
color = 8;
glyphname = T;
lastChange = "2021-03-10 18:28:29 +0000";
layers = (
{
background = {
hints = (
{
origin = "{0, 0}";
scale = "{-1, 1}";
type = Corner;
name = _corner.CAP.leftSerif;
},
{
origin = "{0, 3}";
type = Corner;
name = _corner.CAP.leftSerif;
},
{
origin = "{1, 1}";
scale = "{1, 0.9}";
type = Corner;
name = _corner.CAP.top;
},
{
origin = "{1, 2}";
scale = "{-1, 0.9}";
type = Corner;
name = _corner.CAP.top;
}
);
paths = (
{
closed = 1;
nodes = (
"369 0 LINE",
"369 700 LINE",
"299 700 LINE",
"299 0 LINE"
);
},
{
closed = 1;
nodes = (
"44 700 LINE",
"44 656 LINE",
"624 656 LINE",
"624 700 LINE"
);
}
);
};
hints = (
{
origin = "{0, 0}";
scale = "{-1, 1}";
type = Corner;
name = _corner.CAP.leftSerif;
},
{
origin = "{0, 3}";
type = Corner;
name = _corner.CAP.leftSerif;
},
{
origin = "{1, 3}";
type = Corner;
name = _corner.CAP.top;
},
{
origin = "{1, 0}";
scale = "{-1, 1}";
type = Corner;
name = _corner.CAP.top;
}
);
layerId = "A2204D38-078E-49A4-B70C-87904FFF8E34";
paths = (
{
closed = 1;
nodes = (
"369 0 LINE",
"369 700 LINE {name = \"🧨\";}",
"299 700 LINE {name = \"🧨\";}",
"299 0 LINE"
);
},
{
closed = 1;
nodes = (
"624 656 LINE",
"624 700 LINE",
"44 700 LINE",
"44 656 LINE"
);
}
);
width = 668;
},
{
background = {
paths = (
{
closed = 1;
nodes = (
"343 0 LINE",
"343 700 LINE",
"268 700 LINE",
"268 0 LINE"
);
},
{
closed = 1;
nodes = (
"-30 700 LINE",
"-30 640 LINE",
"641 640 LINE",
"641 700 LINE"
);
}
);
};
backgroundImage = {
crop = "{{0, 0}, {305.16, 367}}";
imagePath = "img/05 Page 3.png";
locked = "1";
transform = "{42.083, 0, 0, 42.083, -5810, -8593}";
};
hints = (
{
origin = "{0, 3}";
type = Corner;
name = _corner.CAP.leftSerif;
},
{
origin = "{0, 0}";
scale = "{-1, 1}";
type = Corner;
name = _corner.CAP.leftSerif;
},
{
origin = "{1, 3}";
scale = "{1, 0.9}";
type = Corner;
name = _corner.CAP.top;
},
{
origin = "{1, 0}";
scale = "{-1, 0.9}";
type = Corner;
name = _corner.CAP.top;
}
);
layerId = "3EDEE92B-4D9D-4D9A-9438-63C2E33416C1";
paths = (
{
closed = 1;
nodes = (
"340 0 LINE",
"340 700 LINE {name = \"🧨\";}",
"270 700 LINE {name = \"🧨\";}",
"270 0 LINE"
);
},
{
closed = 1;
nodes = (
"595 658 LINE",
"595 700 LINE",
"15 700 LINE",
"15 658 LINE"
);
}
);
width = 641;
}
);
unicode = 0054;
},
{
color = 8;
glyphname = U;
lastChange = "2021-03-10 18:56:44 +0000";
layers = (
{
backgroundImage = {
crop = "{{0, 0}, {294, 68.104}}";
imagePath = "palatino-source/alphabet.jpg";
locked = "1";
transform = "{72.664, 0, 0, 72.664, -14303, -3637}";
};
hints = (
{
origin = "{0, 3}";
scale = "{-1, -1}";
type = Corner;
name = _corner.CAP.leftSerif;
},
{
origin = "{0, 4}";
scale = "{-1, 1}";
type = Corner;
name = _corner.CAP.leftSerif;
},
{
origin = "{0, 12}";
scale = "{-1, -1}";
type = Corner;
name = _corner.CAP.leftSerif;
},
{
origin = "{0, 13}";
scale = "{1, -1}";
type = Corner;
name = _corner.CAP.leftSerif;
}
);
layerId = "A2204D38-078E-49A4-B70C-87904FFF8E34";
paths = (
{
closed = 1;
nodes = (
"513 -12 OFFCURVE",
"604 53 OFFCURVE",
"604 260 CURVE SMOOTH",
"604 700 LINE",
"552 700 LINE",
"552 255 LINE SMOOTH",
"552 94 OFFCURVE",
"492 30 OFFCURVE",
"353 30 CURVE SMOOTH",
"250 30 OFFCURVE",
"146 55 OFFCURVE",
"146 189 CURVE SMOOTH",
"146 700 LINE",
"84 700 LINE",
"84 189 LINE SMOOTH",
"84 32 OFFCURVE",
"155 -12 OFFCURVE",
"353 -12 CURVE SMOOTH"
);
}
);
width = 675;
},
{
backgroundImage = {
crop = "{{0, 0}, {305.16, 367}}";
imagePath = "img/05 Page 3.png";
locked = "1";
transform = "{42.083, 0, 0, 42.083, -6474, -8600}";
};
hints = (
{
origin = "{0, 13}";
scale = "{1, -1}";
type = Corner;
name = _corner.CAP.leftSerif;
},
{
origin = "{0, 12}";
scale = "{-1, -1}";
type = Corner;
name = _corner.CAP.leftSerif;
},
{
origin = "{0, 4}";
scale = "{-1, 1}";
type = Corner;
name = _corner.CAP.leftSerif;
},
{
origin = "{0, 3}";
scale = "{-1, -1}";
type = Corner;
name = _corner.CAP.leftSerif;
}
);
layerId = "3EDEE92B-4D9D-4D9A-9438-63C2E33416C1";
paths = (
{
closed = 1;
nodes = (
"554 -12 OFFCURVE",
"645 53 OFFCURVE",
"645 260 CURVE SMOOTH",
"645 700 LINE",
"593 700 LINE",
"593 255 LINE SMOOTH",
"593 94 OFFCURVE",
"533 30 OFFCURVE",
"394 30 CURVE SMOOTH",
"291 30 OFFCURVE",
"187 55 OFFCURVE",
"187 189 CURVE SMOOTH",
"187 700 LINE",
"125 700 LINE",
"125 189 LINE SMOOTH",
"125 32 OFFCURVE",
"196 -12 OFFCURVE",
"394 -12 CURVE SMOOTH"
);
}
);
width = 767;
}
);
leftMetricsKey = N;
rightMetricsKey = N;
unicode = 0055;
},
{
color = 8;
glyphname = V;
lastChange = "2021-03-10 18:45:23 +0000";
layers = (
{
backgroundImage = {
crop = "{{0, 0}, {294, 68.104}}";
imagePath = "palatino-source/alphabet.jpg";
locked = "1";
transform = "{72.664, 0, 0, 72.664, -14959, -3627}";
};
hints = (
{
origin = "{0, 1}";
scale = "{-0.8, -1.2}";
type = Corner;
name = _corner.CAP.leftSerif;
options = 1;
},
{
origin = "{0, 2}";
scale = "{1.6, -1}";
type = Corner;
name = _corner.CAP.leftSerif;
},
{
origin = "{0, 5}";
scale = "{-1.4, -1.1}";
type = Corner;
name = _corner.CAP.leftSerif;
options = 1;
},
{
origin = "{0, 6}";
scale = "{1, -1}";
type = Corner;
name = _corner.CAP.leftSerif;
}
);
layerId = "A2204D38-078E-49A4-B70C-87904FFF8E34";
paths = (
{
closed = 1;
nodes = (
"307 -7 LINE",
"640 700 LINE",
"587 700 LINE",
"311 114 LINE",
"297 114 LINE",
"93 700 LINE",
"28 699 LINE",
"273 -7 LINE"
);
}
);
width = 645;
},
{
background = {
paths = (
{
closed = 1;
nodes = (
"439 -362 LINE",
"509 -338 LINE",
"44 1017 LINE",
"-27 993 LINE"
);
}
);
};
backgroundImage = {
crop = "{{0, 0}, {305.16, 367}}";
imagePath = "img/05 Page 3.png";
locked = "1";
transform = "{42.083, 0, 0, 42.083, -7307, -8603}";
};
hints = (
{
origin = "{0, 1}";
scale = "{-0.8, -1}";
type = Corner;
name = _corner.CAP.leftSerif;
},
{
origin = "{0, 2}";
scale = "{1.6, -1}";
type = Corner;
name = _corner.CAP.leftSerif;
options = 1;
},
{
origin = "{0, 5}";
scale = "{-1.4, -1}";
type = Corner;
name = _corner.CAP.leftSerif;
},
{
origin = "{0, 6}";
scale = "{1, -1}";
type = Corner;
name = _corner.CAP.leftSerif;
options = 1;
}
);
layerId = "3EDEE92B-4D9D-4D9A-9438-63C2E33416C1";
paths = (
{
closed = 1;
nodes = (
"353 -7 LINE",
"686 700 LINE",
"633 700 LINE",
"357 114 LINE",
"343 114 LINE",
"139 700 LINE",
"74 699 LINE",
"319 -7 LINE"
);
}
);
width = 739;
}
);
unicode = 0056;
},
{
color = 8;
glyphname = W;
lastChange = "2021-03-10 18:56:40 +0000";
layers = (
{
background = {
hints = (
{
origin = "{0, 2}";
scale = "{-0.8, -1.2}";
type = Corner;
name = _corner.CAP.leftSerif;
},
{
origin = "{0, 3}";
scale = "{1.6, -1}";
type = Corner;
name = _corner.CAP.leftSerif;
options = 1;
},
{
origin = "{0, 10}";
scale = "{-1.4, -1.1}";
type = Corner;
name = _corner.CAP.leftSerif;
},
{
origin = "{0, 11}";
scale = "{1, -1}";
type = Corner;
name = _corner.CAP.leftSerif;
options = 1;
}
);
paths = (
{
closed = 1;
nodes = (
"634 -12 LINE",
"673 -12 LINE",
"865 700 LINE",
"812 700 LINE",
"669 137 LINE",
"655 137 LINE",
"445 710 LINE",
"424 710 LINE",
"175 125 LINE",
"165 125 LINE",
"61 700 LINE",
"-13 700 LINE",
"127 -12 LINE",
"161 -12 LINE",
"431 611 LINE",
"401 612 LINE"
);
}
);
};
backgroundImage = {
crop = "{{0, 0}, {294, 68.104}}";
imagePath = "palatino-source/alphabet.jpg";
locked = "1";
transform = "{72.664, 0, 0, 72.664, -15744, -3627}";
};
hints = (
{
origin = "{0, 5}";
scale = "{-0.8, -1.2}";
type = Corner;
name = _corner.CAP.leftSerif;
options = 1;
},
{
origin = "{0, 6}";
scale = "{1.6, -1}";
type = Corner;
name = _corner.CAP.leftSerif;
},
{
origin = "{0, 13}";
scale = "{-1.4, -1.1}";
type = Corner;
name = _corner.CAP.leftSerif;
options = 1;
},
{
origin = "{0, 14}";
scale = "{1, -1}";
type = Corner;
name = _corner.CAP.leftSerif;
}
);
layerId = "A2204D38-078E-49A4-B70C-87904FFF8E34";
paths = (
{
closed = 1;
nodes = (
"200 -7 LINE",
"456 612 LINE",
"440 612 LINE",
"672 -7 LINE",
"704 -7 LINE",
"888 700 LINE",
"845 700 LINE",
"698 137 LINE",
"684 137 LINE",
"469 710 LINE",
"453 710 LINE",
"213 125 LINE",
"204 125 LINE",
"91 700 LINE",
"28 700 LINE",
"167 -7 LINE"
);
}
);
width = 893;
},
{
backgroundImage = {
crop = "{{0, 0}, {305.16, 367}}";
imagePath = "img/05 Page 3.png";
locked = "1";
transform = "{42.083, 0, 0, 42.083, -8112, -8603}";
};
hints = (
{
origin = "{0, 13}";
scale = "{-1.4, -1.1}";
type = Corner;
name = _corner.CAP.leftSerif;
},
{
origin = "{0, 14}";
scale = "{1, -1}";
type = Corner;
name = _corner.CAP.leftSerif;
options = 1;
},
{
origin = "{0, 5}";
scale = "{-0.8, -1.2}";
type = Corner;
name = _corner.CAP.leftSerif;
},
{
origin = "{0, 6}";
scale = "{1.6, -1}";
type = Corner;
name = _corner.CAP.leftSerif;
options = 1;
}
);
layerId = "3EDEE92B-4D9D-4D9A-9438-63C2E33416C1";
paths = (
{
closed = 1;
nodes = (
"246 -7 LINE",
"502 612 LINE",
"486 612 LINE",
"718 -7 LINE",
"750 -7 LINE",
"934 700 LINE",
"891 700 LINE",
"744 137 LINE",
"730 137 LINE",
"515 710 LINE",
"499 710 LINE",
"259 125 LINE",
"250 125 LINE",
"137 700 LINE",
"74 700 LINE",
"213 -7 LINE"
);
}
);
width = 987;
}
);
leftMetricsKey = V;
rightMetricsKey = V;
unicode = 0057;
},
{
color = 8;
glyphname = X;
lastChange = "2021-03-10 18:56:44 +0000";
layers = (
{
backgroundImage = {
crop = "{{0, 0}, {294, 68.104}}";
imagePath = "palatino-source/alphabet.jpg";
transform = "{72.664, 0, 0, 72.664, -16634, -3627}";
};
hints = (
{
origin = "{0, 0}";
scale = "{1, -1}";
type = Corner;
name = _corner.CAP.leftSerif;
},
{
origin = "{0, 2}";
scale = "{-1, 1}";
type = Corner;
name = _corner.CAP.leftSerif;
},
{
origin = "{1, 3}";
scale = "{0.5, 1}";
type = Corner;
name = _corner.CAP.leftSerif;
options = 1;
},
{
origin = "{2, 0}";
scale = "{0.5, 1}";
type = Corner;
name = _corner.CAP.leftSerif;
options = 1;
}
);
layerId = "A2204D38-078E-49A4-B70C-87904FFF8E34";
paths = (
{
closed = 1;
nodes = (
"584 0 LINE",
"177 700 LINE",
"105 700 LINE",
"512 0 LINE"
);
},
{
closed = 1;
nodes = (
"103 0 LINE",
"354 374 LINE",
"313 374 LINE",
"38 0 LINE"
);
},
{
closed = 1;
nodes = (
"580 700 LINE",
"515 700 LINE",
"320 379 LINE",
"354 379 LINE"
);
}
);
width = 609;
},
{
backgroundImage = {
crop = "{{0, 0}, {305.16, 367}}";
imagePath = "img/05 Page 3.png";
locked = "1";
transform = "{42.083, 0, 0, 42.083, -9185, -8592}";
};
hints = (
{
origin = "{0, 2}";
scale = "{-1, 1}";
type = Corner;
name = _corner.CAP.leftSerif;
options = 1;
},
{
origin = "{0, 0}";
scale = "{1, -1}";
type = Corner;
name = _corner.CAP.leftSerif;
options = 1;
},
{
origin = "{1, 3}";
scale = "{0.5, 1}";
type = Corner;
name = _corner.CAP.leftSerif;
},
{
origin = "{2, 0}";
scale = "{0.5, 1}";
type = Corner;
name = _corner.CAP.leftSerif;
}
);
layerId = "3EDEE92B-4D9D-4D9A-9438-63C2E33416C1";
paths = (
{
closed = 1;
nodes = (
"563 0 LINE",
"156 700 LINE",
"84 700 LINE",
"491 0 LINE"
);
},
{
closed = 1;
nodes = (
"82 0 LINE",
"333 374 LINE",
"292 374 LINE",
"17 0 LINE"
);
},
{
closed = 1;
nodes = (
"559 700 LINE",
"494 700 LINE",
"299 379 LINE",
"333 379 LINE"
);
}
);
width = 673;
}
);
leftMetricsKey = Y;
rightMetricsKey = Y;
unicode = 0058;
},
{
color = 8;
glyphname = Y;
lastChange = "2021-03-10 18:55:32 +0000";
layers = (
{
backgroundImage = {
crop = "{{0, 0}, {294, 68.104}}";
imagePath = "palatino-source/alphabet.jpg";
locked = "1";
transform = "{72.664, 0, 0, 72.664, -17352, -3627}";
};
hints = (
{
origin = "{0, 1}";
scale = "{0.3, 1}";
type = Corner;
name = _corner.CAP.leftSerif;
options = 1;
},
{
origin = "{0, 6}";
scale = "{0.8, -1}";
type = Corner;
name = _corner.CAP.leftSerif;
},
{
origin = "{1, 0}";
scale = "{-1, 1}";
type = Corner;
name = _corner.CAP.leftSerif;
},
{
origin = "{1, 3}";
type = Corner;
name = _corner.CAP.leftSerif;
}
);
layerId = "A2204D38-078E-49A4-B70C-87904FFF8E34";
paths = (
{
closed = 1;
nodes = (
"339 292 LINE",
"616 700 LINE",
"557 700 LINE",
"330 363 LINE",
"325 363 LINE",
"112 700 LINE",
"38 700 LINE",
"297 292 LINE"
);
},
{
closed = 1;
nodes = (
"351 0 LINE",
"351 334 LINE",
"289 334 LINE",
"289 0 LINE"
);
}
);
width = 641;
},
{
backgroundImage = {
crop = "{{0, 0}, {305.16, 367}}";
imagePath = "img/05 Page 3.png";
locked = "1";
transform = "{42.083, 0, 0, 42.083, -9879, -8595}";
};
hints = (
{
origin = "{1, 3}";
type = Corner;
name = _corner.CAP.leftSerif;
},
{
origin = "{1, 0}";
scale = "{-1, 1}";
type = Corner;
name = _corner.CAP.leftSerif;
},
{
origin = "{0, 6}";
scale = "{0.8, -1}";
type = Corner;
name = _corner.CAP.leftSerif;
options = 1;
},
{
origin = "{0, 1}";
scale = "{0.3, 1}";
type = Corner;
name = _corner.CAP.leftSerif;
}
);
layerId = "3EDEE92B-4D9D-4D9A-9438-63C2E33416C1";
paths = (
{
closed = 1;
nodes = (
"339 292 LINE",
"616 700 LINE",
"557 700 LINE",
"330 363 LINE",
"325 363 LINE",
"112 700 LINE",
"38 700 LINE",
"297 292 LINE"
);
},
{
closed = 1;
nodes = (
"351 0 LINE",
"351 334 LINE",
"289 334 LINE",
"289 0 LINE"
);
}
);
width = 677;
}
);
unicode = 0059;
},
{
color = 8;
glyphname = Z;
lastChange = "2021-03-10 18:56:44 +0000";
layers = (
{
backgroundImage = {
crop = "{{0, 0}, {294, 68.104}}";
imagePath = "palatino-source/alphabet.jpg";
locked = "1";
transform = "{72.664, 0, 0, 72.664, -17953, -3627}";
};
hints = (
{
origin = "{1, 1}";
scale = "{1, -0.8}";
type = Corner;
name = _corner.CAP.top.EE;
},
{
origin = "{2, 3}";
scale = "{-1, 1}";
type = Corner;
name = _corner.CAP.top.EE;
}
);
layerId = "A2204D38-078E-49A4-B70C-87904FFF8E34";
paths = (
{
closed = 1;
nodes = (
"73 0 LINE {name = \"🧨\";}",
"590 694 LINE",
"589 700 LINE",
"517 700 LINE {name = \"🧨\";}",
"5 11 LINE",
"5 0 LINE"
);
},
{
closed = 1;
nodes = (
"572 0 LINE",
"572 42 LINE",
"64 42 LINE",
"64 0 LINE {name = \"🧨\";}"
);
},
{
closed = 1;
nodes = (
"546 658 LINE",
"546 700 LINE {name = \"🧨\";}",
"76 700 LINE",
"76 658 LINE"
);
}
);
width = 615;
},
{
backgroundImage = {
crop = "{{0, 0}, {305.16, 367}}";
imagePath = "img/05 Page 3.png";
locked = "1";
transform = "{42.083, 0, 0, 42.083, -10557, -8591}";
};
hints = (
{
origin = "{1, 1}";
scale = "{1, -0.8}";
type = Corner;
name = _corner.CAP.top.EE;
},
{
origin = "{2, 3}";
scale = "{-1, 1}";
type = Corner;
name = _corner.CAP.top.EE;
}
);
layerId = "3EDEE92B-4D9D-4D9A-9438-63C2E33416C1";
paths = (
{
closed = 1;
nodes = (
"73 0 LINE {name = \"🧨\";}",
"590 694 LINE",
"589 700 LINE",
"517 700 LINE {name = \"🧨\";}",
"5 11 LINE",
"5 0 LINE"
);
},
{
closed = 1;
nodes = (
"572 0 LINE",
"575 42 LINE",
"64 42 LINE",
"64 0 LINE {name = \"🧨\";}"
);
},
{
closed = 1;
nodes = (
"546 658 LINE",
"546 700 LINE {name = \"🧨\";}",
"76 700 LINE",
"76 658 LINE"
);
}
);
width = 632;
}
);
rightMetricsKey = Y;
unicode = 005A;
},
{
color = 8;
glyphname = O.001;
lastChange = "2021-03-15 19:56:44 +0000";
layers = (
{
background = {
paths = (
{
closed = 1;
nodes = (
"630 -13 OFFCURVE",
"779 173 OFFCURVE",
"779 380 CURVE SMOOTH",
"779 565 OFFCURVE",
"650 710 OFFCURVE",
"442 710 CURVE SMOOTH",
"223 710 OFFCURVE",
"35 549 OFFCURVE",
"35 335 CURVE SMOOTH",
"35 152 OFFCURVE",
"154 -13 OFFCURVE",
"357 -13 CURVE SMOOTH"
);
},
{
closed = 1;
nodes = (
"245 37 OFFCURVE",
"116 179 OFFCURVE",
"116 353 CURVE SMOOTH",
"116 525 OFFCURVE",
"245 667 OFFCURVE",
"406 667 CURVE SMOOTH",
"567 667 OFFCURVE",
"698 525 OFFCURVE",
"698 353 CURVE SMOOTH",
"698 179 OFFCURVE",
"567 37 OFFCURVE",
"406 37 CURVE SMOOTH"
);
}
);
};
guideLines = (
{
position = "{-61, 710}";
}
);
layerId = "A2204D38-078E-49A4-B70C-87904FFF8E34";
paths = (
{
closed = 1;
nodes = (
"635 323 OFFCURVE",
"639 285 OFFCURVE",
"631 256 CURVE SMOOTH",
"618 219 OFFCURVE",
"600 185 OFFCURVE",
"586 149 CURVE SMOOTH",
"571 113 OFFCURVE",
"562 68 OFFCURVE",
"536 37 CURVE SMOOTH",
"517 12 OFFCURVE",
"482 -6 OFFCURVE",
"453 -16 CURVE SMOOTH",
"409 -35 OFFCURVE",
"364 -26 OFFCURVE",
"322 -6 CURVE SMOOTH",
"268 21 OFFCURVE",
"217 73 OFFCURVE",
"181 112 CURVE SMOOTH",
"132 166 OFFCURVE",
"67 240 OFFCURVE",
"53 316 CURVE SMOOTH",
"45 361 OFFCURVE",
"57 398 OFFCURVE",
"76 439 CURVE SMOOTH",
"91 474 OFFCURVE",
"106 510 OFFCURVE",
"132 540 CURVE SMOOTH",
"245 675 OFFCURVE",
"437 793 OFFCURVE",
"605 677 CURVE SMOOTH",
"623 664 OFFCURVE",
"652 637 OFFCURVE",
"665 618 CURVE SMOOTH",
"679 589 OFFCURVE",
"683 552 OFFCURVE",
"689 521 CURVE SMOOTH",
"714 404 OFFCURVE",
"714 396 OFFCURVE",
"710 384 CURVE",
"701 366 OFFCURVE",
"698 366 OFFCURVE",
"668 361 CURVE SMOOTH",
"657 359 OFFCURVE",
"646 359 OFFCURVE",
"635 357 CURVE",
"632 357 LINE"
);
},
{
closed = 1;
nodes = (
"664 408 OFFCURVE",
"664 409 OFFCURVE",
"664 410 CURVE SMOOTH",
"656 443 OFFCURVE",
"650 477 OFFCURVE",
"644 509 CURVE SMOOTH",
"639 536 OFFCURVE",
"637 571 OFFCURVE",
"623 595 CURVE SMOOTH",
"615 610 OFFCURVE",
"592 630 OFFCURVE",
"579 638 CURVE SMOOTH",
"507 689 OFFCURVE",
"430 687 OFFCURVE",
"359 658 CURVE SMOOTH",
"284 630 OFFCURVE",
"217 571 OFFCURVE",
"167 510 CURVE SMOOTH",
"145 485 OFFCURVE",
"132 451 OFFCURVE",
"117 421 CURVE SMOOTH",
"102 387 OFFCURVE",
"92 359 OFFCURVE",
"99 324 CURVE SMOOTH",
"111 256 OFFCURVE",
"171 191 OFFCURVE",
"215 143 CURVE SMOOTH",
"242 113 OFFCURVE",
"279 74 OFFCURVE",
"319 47 CURVE SMOOTH",
"355 25 OFFCURVE",
"397 10 OFFCURVE",
"437 26 CURVE SMOOTH",
"459 34 OFFCURVE",
"486 46 OFFCURVE",
"501 66 CURVE SMOOTH",
"522 93 OFFCURVE",
"531 135 OFFCURVE",
"543 167 CURVE SMOOTH",
"557 201 OFFCURVE",
"574 235 OFFCURVE",
"586 270 CURVE SMOOTH",
"590 285 OFFCURVE",
"591 302 OFFCURVE",
"589 319 CURVE SMOOTH",
"586 350 LINE",
"580 350 LINE SMOOTH",
"578 350 OFFCURVE",
"575 350 OFFCURVE",
"571 349 CURVE",
"564 349 LINE",
"564 347 LINE SMOOTH",
"564 303 OFFCURVE",
"534 259 OFFCURVE",
"518 218 CURVE SMOOTH",
"511 201 OFFCURVE",
"507 183 OFFCURVE",
"499 166 CURVE SMOOTH",
"488 144 OFFCURVE",
"475 126 OFFCURVE",
"454 116 CURVE SMOOTH",
"411 93 OFFCURVE",
"385 108 OFFCURVE",
"349 135 CURVE SMOOTH",
"282 181 OFFCURVE",
"216 244 OFFCURVE",
"182 319 CURVE SMOOTH",
"159 370 OFFCURVE",
"173 397 OFFCURVE",
"201 441 CURVE SMOOTH",
"223 479 OFFCURVE",
"243 502 OFFCURVE",
"281 527 CURVE SMOOTH",
"304 539 OFFCURVE",
"325 555 OFFCURVE",
"348 568 CURVE SMOOTH",
"404 604 OFFCURVE",
"473 603 OFFCURVE",
"532 578 CURVE SMOOTH",
"607 547 OFFCURVE",
"621 475 OFFCURVE",
"626 402 CURVE",
"639 404 OFFCURVE",
"649 404 OFFCURVE",
"661 406 CURVE SMOOTH",
"662 406 OFFCURVE",
"664 406 OFFCURVE",
"665 407 CURVE"
);
},
{
closed = 1;
nodes = (
"581 418 OFFCURVE",
"579 438 OFFCURVE",
"574 459 CURVE SMOOTH",
"566 491 OFFCURVE",
"551 522 OFFCURVE",
"513 535 CURVE SMOOTH",
"467 555 OFFCURVE",
"415 557 OFFCURVE",
"372 530 CURVE SMOOTH",
"349 516 OFFCURVE",
"327 500 OFFCURVE",
"305 487 CURVE SMOOTH",
"274 468 OFFCURVE",
"258 450 OFFCURVE",
"240 418 CURVE SMOOTH",
"220 387 OFFCURVE",
"210 371 OFFCURVE",
"225 338 CURVE SMOOTH",
"255 269 OFFCURVE",
"315 214 OFFCURVE",
"375 171 CURVE SMOOTH",
"396 158 OFFCURVE",
"409 143 OFFCURVE",
"432 157 CURVE SMOOTH",
"444 162 OFFCURVE",
"451 172 OFFCURVE",
"456 185 CURVE SMOOTH",
"465 201 OFFCURVE",
"469 219 OFFCURVE",
"476 235 CURVE SMOOTH",
"489 269 OFFCURVE",
"513 306 OFFCURVE",
"517 345 CURVE",
"514 343 OFFCURVE",
"512 343 OFFCURVE",
"509 343 CURVE",
"482 339 OFFCURVE",
"449 338 OFFCURVE",
"426 324 CURVE SMOOTH",
"421 320 OFFCURVE",
"411 316 OFFCURVE",
"410 314 CURVE",
"405 301 LINE",
"388 302 LINE SMOOTH",
"373 303 OFFCURVE",
"362 308 OFFCURVE",
"354 318 CURVE SMOOTH",
"348 326 OFFCURVE",
"344 337 OFFCURVE",
"344 350 CURVE SMOOTH",
"343 366 OFFCURVE",
"351 387 OFFCURVE",
"360 399 CURVE SMOOTH",
"366 407 OFFCURVE",
"377 427 OFFCURVE",
"387 437 CURVE SMOOTH",
"397 445 OFFCURVE",
"406 451 OFFCURVE",
"412 453 CURVE SMOOTH",
"423 455 OFFCURVE",
"438 453 OFFCURVE",
"451 449 CURVE SMOOTH",
"466 443 OFFCURVE",
"483 434 OFFCURVE",
"491 430 CURVE SMOOTH",
"505 423 OFFCURVE",
"517 419 OFFCURVE",
"529 411 CURVE SMOOTH",
"537 407 OFFCURVE",
"544 400 OFFCURVE",
"552 394 CURVE",
"565 394 LINE",
"571 395 OFFCURVE",
"571 395 OFFCURVE",
"579 395 CURVE",
"582 396 LINE"
);
},
{
closed = 1;
nodes = (
"422 406 OFFCURVE",
"418 403 OFFCURVE",
"416 399 CURVE SMOOTH",
"408 390 OFFCURVE",
"403 379 OFFCURVE",
"398 373 CURVE SMOOTH",
"393 369 OFFCURVE",
"391 361 OFFCURVE",
"389 355 CURVE",
"393 358 OFFCURVE",
"398 360 OFFCURVE",
"401 361 CURVE",
"422 375 OFFCURVE",
"451 382 OFFCURVE",
"479 385 CURVE",
"471 389 LINE SMOOTH",
"463 393 OFFCURVE",
"450 400 OFFCURVE",
"437 405 CURVE SMOOTH",
"432 406 OFFCURVE",
"429 407 OFFCURVE",
"423 407 CURVE"
);
}
);
width = 717;
},
{
backgroundImage = {
crop = "{{0, 0}, {305.16, 367}}";
imagePath = "img/05 Page 3.png";
locked = "1";
transform = "{41.25784, 0, 0, 41.25784, -1885, -8426}";
};
guideLines = (
{
position = "{-53, 710}";
}
);
layerId = "3EDEE92B-4D9D-4D9A-9438-63C2E33416C1";
paths = (
{
closed = 1;
nodes = (
"640 323 OFFCURVE",
"644 285 OFFCURVE",
"636 256 CURVE SMOOTH",
"623 219 OFFCURVE",
"605 185 OFFCURVE",
"591 149 CURVE SMOOTH",
"576 113 OFFCURVE",
"567 68 OFFCURVE",
"541 37 CURVE SMOOTH",
"522 12 OFFCURVE",
"487 -6 OFFCURVE",
"458 -16 CURVE SMOOTH",
"414 -35 OFFCURVE",
"369 -26 OFFCURVE",
"327 -6 CURVE SMOOTH",
"273 21 OFFCURVE",
"222 73 OFFCURVE",
"186 112 CURVE SMOOTH",
"137 166 OFFCURVE",
"72 240 OFFCURVE",
"58 316 CURVE SMOOTH",
"50 361 OFFCURVE",
"62 398 OFFCURVE",
"81 439 CURVE SMOOTH",
"96 474 OFFCURVE",
"111 510 OFFCURVE",
"137 540 CURVE SMOOTH",
"250 675 OFFCURVE",
"442 793 OFFCURVE",
"610 677 CURVE SMOOTH",
"628 664 OFFCURVE",
"657 637 OFFCURVE",
"670 618 CURVE SMOOTH",
"684 589 OFFCURVE",
"688 552 OFFCURVE",
"694 521 CURVE SMOOTH",
"719 404 OFFCURVE",
"719 396 OFFCURVE",
"715 384 CURVE",
"706 366 OFFCURVE",
"703 366 OFFCURVE",
"673 361 CURVE SMOOTH",
"662 359 OFFCURVE",
"651 359 OFFCURVE",
"640 357 CURVE",
"637 357 LINE"
);
},
{
closed = 1;
nodes = (
"669 408 OFFCURVE",
"669 409 OFFCURVE",
"669 410 CURVE SMOOTH",
"661 443 OFFCURVE",
"655 477 OFFCURVE",
"649 509 CURVE SMOOTH",
"644 536 OFFCURVE",
"642 571 OFFCURVE",
"628 595 CURVE SMOOTH",
"620 610 OFFCURVE",
"597 630 OFFCURVE",
"584 638 CURVE SMOOTH",
"512 689 OFFCURVE",
"435 687 OFFCURVE",
"364 658 CURVE SMOOTH",
"289 630 OFFCURVE",
"222 571 OFFCURVE",
"172 510 CURVE SMOOTH",
"150 485 OFFCURVE",
"137 451 OFFCURVE",
"122 421 CURVE SMOOTH",
"107 387 OFFCURVE",
"97 359 OFFCURVE",
"104 324 CURVE SMOOTH",
"116 256 OFFCURVE",
"176 191 OFFCURVE",
"220 143 CURVE SMOOTH",
"247 113 OFFCURVE",
"284 74 OFFCURVE",
"324 47 CURVE SMOOTH",
"360 25 OFFCURVE",
"402 10 OFFCURVE",
"442 26 CURVE SMOOTH",
"464 34 OFFCURVE",
"491 46 OFFCURVE",
"506 66 CURVE SMOOTH",
"527 93 OFFCURVE",
"536 135 OFFCURVE",
"548 167 CURVE SMOOTH",
"562 201 OFFCURVE",
"579 235 OFFCURVE",
"591 270 CURVE SMOOTH",
"595 285 OFFCURVE",
"596 302 OFFCURVE",
"594 319 CURVE SMOOTH",
"591 350 LINE",
"585 350 LINE SMOOTH",
"583 350 OFFCURVE",
"580 350 OFFCURVE",
"576 349 CURVE",
"569 349 LINE",
"569 347 LINE SMOOTH",
"569 303 OFFCURVE",
"539 259 OFFCURVE",
"523 218 CURVE SMOOTH",
"516 201 OFFCURVE",
"512 183 OFFCURVE",
"504 166 CURVE SMOOTH",
"493 144 OFFCURVE",
"480 126 OFFCURVE",
"459 116 CURVE SMOOTH",
"416 93 OFFCURVE",
"390 108 OFFCURVE",
"354 135 CURVE SMOOTH",
"287 181 OFFCURVE",
"221 244 OFFCURVE",
"187 319 CURVE SMOOTH",
"164 370 OFFCURVE",
"178 397 OFFCURVE",
"206 441 CURVE SMOOTH",
"228 479 OFFCURVE",
"248 502 OFFCURVE",
"286 527 CURVE SMOOTH",
"309 539 OFFCURVE",
"330 555 OFFCURVE",
"353 568 CURVE SMOOTH",
"409 604 OFFCURVE",
"478 603 OFFCURVE",
"537 578 CURVE SMOOTH",
"612 547 OFFCURVE",
"626 475 OFFCURVE",
"631 402 CURVE",
"644 404 OFFCURVE",
"654 404 OFFCURVE",
"666 406 CURVE SMOOTH",
"667 406 OFFCURVE",
"669 406 OFFCURVE",
"670 407 CURVE"
);
},
{
closed = 1;
nodes = (
"586 418 OFFCURVE",
"584 438 OFFCURVE",
"579 459 CURVE SMOOTH",
"571 491 OFFCURVE",
"556 522 OFFCURVE",
"518 535 CURVE SMOOTH",
"472 555 OFFCURVE",
"420 557 OFFCURVE",
"377 530 CURVE SMOOTH",
"354 516 OFFCURVE",
"332 500 OFFCURVE",
"310 487 CURVE SMOOTH",
"279 468 OFFCURVE",
"263 450 OFFCURVE",
"245 418 CURVE SMOOTH",
"225 387 OFFCURVE",
"215 371 OFFCURVE",
"230 338 CURVE SMOOTH",
"260 269 OFFCURVE",
"320 214 OFFCURVE",
"380 171 CURVE SMOOTH",
"401 158 OFFCURVE",
"414 143 OFFCURVE",
"437 157 CURVE SMOOTH",
"449 162 OFFCURVE",
"456 172 OFFCURVE",
"461 185 CURVE SMOOTH",
"470 201 OFFCURVE",
"474 219 OFFCURVE",
"481 235 CURVE SMOOTH",
"494 269 OFFCURVE",
"518 306 OFFCURVE",
"522 345 CURVE",
"519 343 OFFCURVE",
"517 343 OFFCURVE",
"514 343 CURVE",
"487 339 OFFCURVE",
"454 338 OFFCURVE",
"431 324 CURVE SMOOTH",
"426 320 OFFCURVE",
"416 316 OFFCURVE",
"415 314 CURVE",
"410 301 LINE",
"393 302 LINE SMOOTH",
"378 303 OFFCURVE",
"367 308 OFFCURVE",
"359 318 CURVE SMOOTH",
"353 326 OFFCURVE",
"349 337 OFFCURVE",
"349 350 CURVE SMOOTH",
"348 366 OFFCURVE",
"356 387 OFFCURVE",
"365 399 CURVE SMOOTH",
"371 407 OFFCURVE",
"382 427 OFFCURVE",
"392 437 CURVE SMOOTH",
"402 445 OFFCURVE",
"411 451 OFFCURVE",
"417 453 CURVE SMOOTH",
"428 455 OFFCURVE",
"443 453 OFFCURVE",
"456 449 CURVE SMOOTH",
"471 443 OFFCURVE",
"488 434 OFFCURVE",
"496 430 CURVE SMOOTH",
"510 423 OFFCURVE",
"522 419 OFFCURVE",
"534 411 CURVE SMOOTH",
"542 407 OFFCURVE",
"549 400 OFFCURVE",
"557 394 CURVE",
"570 394 LINE",
"576 395 OFFCURVE",
"576 395 OFFCURVE",
"584 395 CURVE",
"587 396 LINE"
);
},
{
closed = 1;
nodes = (
"427 406 OFFCURVE",
"423 403 OFFCURVE",
"421 399 CURVE SMOOTH",
"413 390 OFFCURVE",
"408 379 OFFCURVE",
"403 373 CURVE SMOOTH",
"398 369 OFFCURVE",
"396 361 OFFCURVE",
"394 355 CURVE",
"398 358 OFFCURVE",
"403 360 OFFCURVE",
"406 361 CURVE",
"427 375 OFFCURVE",
"456 382 OFFCURVE",
"484 385 CURVE",
"476 389 LINE SMOOTH",
"468 393 OFFCURVE",
"455 400 OFFCURVE",
"442 405 CURVE SMOOTH",
"437 406 OFFCURVE",
"434 407 OFFCURVE",
"428 407 CURVE"
);
}
);
width = 722;
}
);
leftMetricsKey = O;
},
{
color = 4;
glyphname = a;
lastChange = "2021-03-13 16:12:12 +0000";
layers = (
{
background = {
hints = (
{
origin = "{0, 0}";
type = Corner;
name = _corner.rightSerif;
},
{
origin = "{0, 16}";
scale = "{0.2, 1}";
type = Corner;
name = _corner.leftSerif;
}
);
paths = (
{
closed = 1;
nodes = (
"371 0 LINE",
"371 280 LINE SMOOTH",
"371 395 OFFCURVE",
"345 448 OFFCURVE",
"243 448 CURVE SMOOTH",
"167 448 OFFCURVE",
"114 413 OFFCURVE",
"78 378 CURVE",
"79 344 LINE",
"89 339 LINE",
"105 375 OFFCURVE",
"155 400 OFFCURVE",
"214 400 CURVE SMOOTH",
"288 400 OFFCURVE",
"311 345 OFFCURVE",
"311 270 CURVE SMOOTH",
"311 0 LINE"
);
},
{
closed = 1;
nodes = (
"235 -12 OFFCURVE",
"316 96 OFFCURVE",
"346 141 CURVE",
"346 178 LINE",
"322 131 OFFCURVE",
"256 44 OFFCURVE",
"189 44 CURVE SMOOTH",
"140 44 OFFCURVE",
"106 74 OFFCURVE",
"106 110 CURVE SMOOTH",
"106 194 OFFCURVE",
"243 239 OFFCURVE",
"337 260 CURVE",
"337 286 LINE",
"182 247 OFFCURVE",
"42 221 OFFCURVE",
"42 99 CURVE SMOOTH",
"42 37 OFFCURVE",
"87 -12 OFFCURVE",
"167 -12 CURVE SMOOTH"
);
}
);
};
hints = (
{
origin = "{0, 0}";
type = Corner;
name = _corner.rightSerif;
},
{
origin = "{0, 16}";
scale = "{0.2, 1}";
type = Corner;
name = _corner.leftSerif;
}
);
layerId = "A2204D38-078E-49A4-B70C-87904FFF8E34";
paths = (
{
closed = 1;
nodes = (
"371 0 LINE",
"371 303 LINE SMOOTH",
"371 395 OFFCURVE",
"329 447 OFFCURVE",
"237 448 CURVE SMOOTH",
"157 449 OFFCURVE",
"98 409 OFFCURVE",
"62 374 CURVE",
"82 348 LINE",
"89 339 LINE",
"106 361 OFFCURVE",
"155 400 OFFCURVE",
"203 400 CURVE SMOOTH",
"288 400 OFFCURVE",
"311 347 OFFCURVE",
"311 270 CURVE SMOOTH",
"311 0 LINE"
);
},
{
closed = 1;
nodes = (
"200 -12 OFFCURVE",
"225 -12 OFFCURVE",
"346 141 CURVE",
"337 186 LINE",
"312 133 OFFCURVE",
"266 44 OFFCURVE",
"189 44 CURVE SMOOTH",
"140 44 OFFCURVE",
"106 74 OFFCURVE",
"106 116 CURVE SMOOTH",
"106 199 OFFCURVE",
"243 236 OFFCURVE",
"337 257 CURVE",
"337 286 LINE",
"182 247 OFFCURVE",
"41 223 OFFCURVE",
"41 99 CURVE SMOOTH",
"41 27 OFFCURVE",
"89 -12 OFFCURVE",
"151 -12 CURVE SMOOTH"
);
}
);
width = 425;
},
{
associatedMasterId = "A2204D38-078E-49A4-B70C-87904FFF8E34";
background = {
paths = (
{
closed = 1;
nodes = (
"63 416 LINE",
"104 473 OFFCURVE",
"168 510 OFFCURVE",
"236 510 CURVE SMOOTH",
"349 510 OFFCURVE",
"402 433 OFFCURVE",
"402 337 CURVE SMOOTH",
"402 0 LINE",
"342 0 LINE",
"342 316 LINE",
"342 399 OFFCURVE",
"292 460 OFFCURVE",
"223 460 CURVE SMOOTH",
"179 460 OFFCURVE",
"132 444 OFFCURVE",
"95 398 CURVE"
);
},
{
closed = 1;
nodes = (
"355 288 LINE",
"287 275 OFFCURVE",
"102 232 OFFCURVE",
"102 123 CURVE SMOOTH",
"102 78 OFFCURVE",
"132 45 OFFCURVE",
"195 45 CURVE SMOOTH",
"271 45 OFFCURVE",
"331 126 OFFCURVE",
"354 175 CURVE",
"354 138 LINE",
"311 74 OFFCURVE",
"265 -10 OFFCURVE",
"153 -10 CURVE SMOOTH",
"58 -10 OFFCURVE",
"30 70 OFFCURVE",
"30 118 CURVE SMOOTH",
"30 258 OFFCURVE",
"191 288 OFFCURVE",
"355 322 CURVE"
);
}
);
};
backgroundImage = {
crop = "{{0, 0}, {320, 437}}";
imagePath = "../../Screenshot 2020-10-15 at 11.24.38.png";
locked = "1";
transform = "{1.83102, 0, 0, 1.83102, -73, -186}";
};
layerId = "7BCF6627-4367-41A7-93C7-86B12A22C6E6";
name = "Oct 15 20, 11:30";
paths = (
{
closed = 1;
nodes = (
"63 425 LINE",
"94 461 OFFCURVE",
"162 510 OFFCURVE",
"248 510 CURVE SMOOTH",
"349 510 OFFCURVE",
"402 453 OFFCURVE",
"402 337 CURVE SMOOTH",
"402 0 LINE",
"332 0 LINE",
"332 316 LINE",
"332 413 OFFCURVE",
"296 460 OFFCURVE",
"217 460 CURVE SMOOTH",
"179 460 OFFCURVE",
"117 434 OFFCURVE",
"80 388 CURVE"
);
},
{
closed = 1;
nodes = (
"355 288 LINE",
"271 271 OFFCURVE",
"106 231 OFFCURVE",
"106 127 CURVE SMOOTH",
"106 81 OFFCURVE",
"145 51 OFFCURVE",
"184 51 CURVE SMOOTH",
"252 51 OFFCURVE",
"320 125 OFFCURVE",
"349 174 CURVE",
"354 128 LINE",
"311 64 OFFCURVE",
"240 -10 OFFCURVE",
"159 -10 CURVE SMOOTH",
"65 -10 OFFCURVE",
"24 50 OFFCURVE",
"24 115 CURVE SMOOTH",
"24 236 OFFCURVE",
"191 283 OFFCURVE",
"355 320 CURVE"
);
}
);
width = 447;
},
{
backgroundImage = {
crop = "{{0, 0}, {305.16, 367}}";
imagePath = "img/05 Page 3.png";
locked = "1";
transform = "{42.08316, 0, 0, 42.08316, -1685, -10271}";
};
hints = (
{
origin = "{0, 16}";
scale = "{0.2, 1}";
type = Corner;
name = _corner.leftSerif;
},
{
origin = "{0, 0}";
type = Corner;
name = _corner.rightSerif;
}
);
layerId = "3EDEE92B-4D9D-4D9A-9438-63C2E33416C1";
paths = (
{
closed = 1;
nodes = (
"362 0 LINE",
"362 303 LINE SMOOTH",
"362 395 OFFCURVE",
"320 447 OFFCURVE",
"228 448 CURVE SMOOTH",
"148 449 OFFCURVE",
"89 409 OFFCURVE",
"53 374 CURVE",
"68 338 LINE",
"83 338 LINE",
"90 365 OFFCURVE",
"130 400 OFFCURVE",
"194 400 CURVE SMOOTH",
"279 400 OFFCURVE",
"302 347 OFFCURVE",
"302 270 CURVE SMOOTH",
"302 0 LINE"
);
},
{
closed = 1;
nodes = (
"191 -12 OFFCURVE",
"216 -12 OFFCURVE",
"337 141 CURVE",
"328 186 LINE",
"303 133 OFFCURVE",
"257 44 OFFCURVE",
"180 44 CURVE SMOOTH",
"131 44 OFFCURVE",
"97 74 OFFCURVE",
"97 116 CURVE SMOOTH",
"97 199 OFFCURVE",
"234 236 OFFCURVE",
"328 257 CURVE",
"328 286 LINE",
"173 247 OFFCURVE",
"32 223 OFFCURVE",
"32 99 CURVE SMOOTH",
"32 27 OFFCURVE",
"80 -12 OFFCURVE",
"142 -12 CURVE SMOOTH"
);
}
);
width = 454;
},
{
associatedMasterId = "3EDEE92B-4D9D-4D9A-9438-63C2E33416C1";
background = {
paths = (
{
closed = 1;
nodes = (
"63 416 LINE",
"104 473 OFFCURVE",
"168 510 OFFCURVE",
"236 510 CURVE SMOOTH",
"349 510 OFFCURVE",
"402 433 OFFCURVE",
"402 337 CURVE SMOOTH",
"402 0 LINE",
"342 0 LINE",
"342 316 LINE",
"342 399 OFFCURVE",
"292 460 OFFCURVE",
"223 460 CURVE SMOOTH",
"179 460 OFFCURVE",
"132 444 OFFCURVE",
"95 398 CURVE"
);
},
{
closed = 1;
nodes = (
"355 288 LINE",
"287 275 OFFCURVE",
"102 232 OFFCURVE",
"102 123 CURVE SMOOTH",
"102 78 OFFCURVE",
"132 45 OFFCURVE",
"195 45 CURVE SMOOTH",
"271 45 OFFCURVE",
"331 126 OFFCURVE",
"354 175 CURVE",
"354 138 LINE",
"311 74 OFFCURVE",
"265 -10 OFFCURVE",
"153 -10 CURVE SMOOTH",
"58 -10 OFFCURVE",
"30 70 OFFCURVE",
"30 118 CURVE SMOOTH",
"30 258 OFFCURVE",
"191 288 OFFCURVE",
"355 322 CURVE"
);
}
);
};
backgroundImage = {
crop = "{{0, 0}, {320, 437}}";
imagePath = "../../Screenshot 2020-10-15 at 11.24.38.png";
locked = "1";
transform = "{1.83102, 0, 0, 1.83102, -73, -186}";
};
layerId = "CFA403A6-0876-4B87-9D85-CF7E3A582D40";
name = "Oct 15 20, 11:30";
paths = (
{
closed = 1;
nodes = (
"63 425 LINE",
"94 461 OFFCURVE",
"162 510 OFFCURVE",
"248 510 CURVE SMOOTH",
"349 510 OFFCURVE",
"402 453 OFFCURVE",
"402 337 CURVE SMOOTH",
"402 0 LINE",
"332 0 LINE",
"332 316 LINE",
"332 413 OFFCURVE",
"296 460 OFFCURVE",
"217 460 CURVE SMOOTH",
"179 460 OFFCURVE",
"117 434 OFFCURVE",
"80 388 CURVE"
);
},
{
closed = 1;
nodes = (
"355 288 LINE",
"271 271 OFFCURVE",
"106 231 OFFCURVE",
"106 127 CURVE SMOOTH",
"106 81 OFFCURVE",
"145 51 OFFCURVE",
"184 51 CURVE SMOOTH",
"252 51 OFFCURVE",
"320 125 OFFCURVE",
"349 174 CURVE",
"354 128 LINE",
"311 64 OFFCURVE",
"240 -10 OFFCURVE",
"159 -10 CURVE SMOOTH",
"65 -10 OFFCURVE",
"24 50 OFFCURVE",
"24 115 CURVE SMOOTH",
"24 236 OFFCURVE",
"191 283 OFFCURVE",
"355 320 CURVE"
);
}
);
width = 447;
},
{
associatedMasterId = "3EDEE92B-4D9D-4D9A-9438-63C2E33416C1";
background = {
paths = (
{
closed = 1;
nodes = (
"59 416 LINE",
"100 473 OFFCURVE",
"164 510 OFFCURVE",
"232 510 CURVE SMOOTH",
"345 510 OFFCURVE",
"398 433 OFFCURVE",
"398 337 CURVE SMOOTH",
"398 0 LINE",
"338 0 LINE",
"338 316 LINE",
"338 399 OFFCURVE",
"288 460 OFFCURVE",
"219 460 CURVE SMOOTH",
"175 460 OFFCURVE",
"128 444 OFFCURVE",
"91 398 CURVE"
);
},
{
closed = 1;
nodes = (
"351 288 LINE",
"283 275 OFFCURVE",
"98 232 OFFCURVE",
"98 123 CURVE SMOOTH",
"98 78 OFFCURVE",
"128 45 OFFCURVE",
"191 45 CURVE SMOOTH",
"267 45 OFFCURVE",
"327 126 OFFCURVE",
"350 175 CURVE",
"350 138 LINE",
"307 74 OFFCURVE",
"261 -10 OFFCURVE",
"149 -10 CURVE SMOOTH",
"54 -10 OFFCURVE",
"26 70 OFFCURVE",
"26 118 CURVE SMOOTH",
"26 258 OFFCURVE",
"187 288 OFFCURVE",
"351 322 CURVE"
);
}
);
};
backgroundImage = {
crop = "{{0, 0}, {305.926, 73.749}}";
imagePath = ../pala/pala.png;
locked = "1";
transform = "{82.77348, 0, 0, 82.77348, -1308, -1413}";
};
layerId = "5BC199BB-61E6-42F5-8CAB-8EB0595BC485";
name = "Dec 3 20, 14:07";
paths = (
{
closed = 1;
nodes = (
"72 410 LINE",
"102 445 OFFCURVE",
"168 490 OFFCURVE",
"251 490 CURVE SMOOTH",
"347 490 OFFCURVE",
"398 433 OFFCURVE",
"398 322 CURVE SMOOTH",
"398 37 LINE",
"473 20 LINE",
"473 0 LINE",
"325 0 LINE",
"331 37 LINE",
"331 302 LINE",
"331 395 OFFCURVE",
"296 440 OFFCURVE",
"221 440 CURVE SMOOTH",
"184 440 OFFCURVE",
"130 410 OFFCURVE",
"94 366 CURVE"
);
},
{
closed = 1;
nodes = (
"353 275 LINE",
"273 259 OFFCURVE",
"115 221 OFFCURVE",
"115 121 CURVE SMOOTH",
"115 77 OFFCURVE",
"152 48 OFFCURVE",
"189 48 CURVE SMOOTH",
"254 48 OFFCURVE",
"319 119 OFFCURVE",
"347 166 CURVE",
"352 122 LINE",
"311 61 OFFCURVE",
"243 -10 OFFCURVE",
"165 -10 CURVE SMOOTH",
"75 -10 OFFCURVE",
"36 47 OFFCURVE",
"36 110 CURVE SMOOTH",
"36 226 OFFCURVE",
"196 271 OFFCURVE",
"353 306 CURVE"
);
},
{
closed = 1;
nodes = (
"94 366 LINE",
"90 356 LINE",
"76 357 LINE",
"72 410 LINE"
);
}
);
width = 509;
},
{
associatedMasterId = "3EDEE92B-4D9D-4D9A-9438-63C2E33416C1";
background = {
paths = (
{
closed = 1;
nodes = (
"59 416 LINE",
"100 473 OFFCURVE",
"164 510 OFFCURVE",
"232 510 CURVE SMOOTH",
"345 510 OFFCURVE",
"398 433 OFFCURVE",
"398 337 CURVE SMOOTH",
"398 0 LINE",
"338 0 LINE",
"338 316 LINE",
"338 399 OFFCURVE",
"288 460 OFFCURVE",
"219 460 CURVE SMOOTH",
"175 460 OFFCURVE",
"128 444 OFFCURVE",
"91 398 CURVE"
);
},
{
closed = 1;
nodes = (
"351 288 LINE",
"283 275 OFFCURVE",
"98 232 OFFCURVE",
"98 123 CURVE SMOOTH",
"98 78 OFFCURVE",
"128 45 OFFCURVE",
"191 45 CURVE SMOOTH",
"267 45 OFFCURVE",
"327 126 OFFCURVE",
"350 175 CURVE",
"350 138 LINE",
"307 74 OFFCURVE",
"261 -10 OFFCURVE",
"149 -10 CURVE SMOOTH",
"54 -10 OFFCURVE",
"26 70 OFFCURVE",
"26 118 CURVE SMOOTH",
"26 258 OFFCURVE",
"187 288 OFFCURVE",
"351 322 CURVE"
);
}
);
};
backgroundImage = {
crop = "{{0, 0}, {305.926, 73.749}}";
imagePath = ../pala/pala.png;
locked = "1";
transform = "{82.77348, 0, 0, 82.77348, -1308, -1413}";
};
layerId = "83C95EE3-BDD5-49E9-A3BC-71176E07CD37";
name = "Dec 3 20, 14:11";
paths = (
{
closed = 1;
nodes = (
"72 410 LINE",
"102 445 OFFCURVE",
"164 490 OFFCURVE",
"247 490 CURVE SMOOTH",
"343 490 OFFCURVE",
"394 433 OFFCURVE",
"394 322 CURVE SMOOTH",
"394 37 LINE",
"469 20 LINE",
"469 0 LINE",
"325 0 LINE",
"331 37 LINE",
"331 302 LINE SMOOTH",
"331 400 OFFCURVE",
"306 450 OFFCURVE",
"221 450 CURVE SMOOTH",
"184 450 OFFCURVE",
"124 427 OFFCURVE",
"94 366 CURVE"
);
},
{
closed = 1;
nodes = (
"353 275 LINE",
"273 259 OFFCURVE",
"113 221 OFFCURVE",
"113 121 CURVE SMOOTH",
"113 73 OFFCURVE",
"150 46 OFFCURVE",
"189 46 CURVE SMOOTH",
"254 46 OFFCURVE",
"321 105 OFFCURVE",
"349 152 CURVE",
"352 122 LINE",
"311 61 OFFCURVE",
"243 -10 OFFCURVE",
"165 -10 CURVE SMOOTH",
"75 -10 OFFCURVE",
"36 47 OFFCURVE",
"36 110 CURVE SMOOTH",
"36 226 OFFCURVE",
"196 271 OFFCURVE",
"353 306 CURVE"
);
},
{
closed = 1;
nodes = (
"94 366 LINE",
"90 356 LINE",
"76 357 LINE",
"72 410 LINE"
);
}
);
width = 505;
}
);
rightMetricsKey = n;
unicode = 0061;
},
{
color = 4;
glyphname = b;
lastChange = "2021-03-06 12:19:38 +0000";
layers = (
{
hints = (
{
origin = "{1, 2}";
type = Corner;
name = _corner.topLeft;
},
{
origin = "{1, 3}";
type = Corner;
name = _corner.angledSerif;
}
);
layerId = "A2204D38-078E-49A4-B70C-87904FFF8E34";
paths = (
{
closed = 1;
nodes = (
"303 -12 OFFCURVE",
"484 94 OFFCURVE",
"484 243 CURVE SMOOTH",
"484 366 OFFCURVE",
"408 448 OFFCURVE",
"309 448 CURVE SMOOTH",
"255 448 OFFCURVE",
"205 423 OFFCURVE",
"115 333 CURVE",
"115 222 LINE",
"114 311 OFFCURVE",
"204 392 OFFCURVE",
"271 392 CURVE SMOOTH",
"332 392 OFFCURVE",
"411 348 OFFCURVE",
"416 241 CURVE SMOOTH",
"420 140 OFFCURVE",
"370 29 OFFCURVE",
"242 29 CURVE SMOOTH",
"183 29 OFFCURVE",
"143 52 OFFCURVE",
"117 83 CURVE",
"91 32 LINE",
"122 5 OFFCURVE",
"162 -12 OFFCURVE",
"206 -12 CURVE SMOOTH"
);
},
{
closed = 1;
nodes = (
"134 29 LINE",
"134 762 LINE",
"74 762 LINE",
"74 0 LINE"
);
}
);
width = 526;
},
{
backgroundImage = {
crop = "{{0, 0}, {305.16, 367}}";
imagePath = "img/05 Page 3.png";
locked = "1";
transform = "{42.083, 0, 0, 42.083, -2135, -10267}";
};
hints = (
{
origin = "{1, 2}";
type = Corner;
name = _corner.topLeft;
},
{
origin = "{1, 3}";
type = Corner;
name = _corner.angledSerif;
}
);
layerId = "3EDEE92B-4D9D-4D9A-9438-63C2E33416C1";
paths = (
{
closed = 1;
nodes = (
"327 -12 OFFCURVE",
"508 94 OFFCURVE",
"508 243 CURVE SMOOTH",
"508 366 OFFCURVE",
"432 448 OFFCURVE",
"333 448 CURVE SMOOTH",
"279 448 OFFCURVE",
"229 423 OFFCURVE",
"139 333 CURVE",
"139 222 LINE",
"138 311 OFFCURVE",
"228 392 OFFCURVE",
"295 392 CURVE SMOOTH",
"356 392 OFFCURVE",
"435 348 OFFCURVE",
"440 241 CURVE SMOOTH",
"444 140 OFFCURVE",
"394 29 OFFCURVE",
"266 29 CURVE SMOOTH",
"207 29 OFFCURVE",
"167 52 OFFCURVE",
"141 83 CURVE",
"115 32 LINE",
"146 5 OFFCURVE",
"186 -12 OFFCURVE",
"230 -12 CURVE SMOOTH"
);
},
{
closed = 1;
nodes = (
"158 29 LINE",
"158 762 LINE",
"98 762 LINE",
"98 0 LINE"
);
}
);
width = 546;
}
);
leftMetricsKey = n;
rightMetricsKey = o;
unicode = 0062;
},
{
color = 4;
glyphname = c;
lastChange = "2021-03-10 16:55:48 +0000";
layers = (
{
background = {
paths = (
{
closed = 1;
nodes = (
"331 -12 OFFCURVE",
"380 15 OFFCURVE",
"401 28 CURVE",
"409 72 LINE",
"402 72 LINE",
"385 58 OFFCURVE",
"352 32 OFFCURVE",
"282 32 CURVE SMOOTH",
"183 32 OFFCURVE",
"111 124 OFFCURVE",
"111 224 CURVE SMOOTH",
"111 320 OFFCURVE",
"158 412 OFFCURVE",
"260 412 CURVE SMOOTH",
"323 412 OFFCURVE",
"368 379 OFFCURVE",
"369 315 CURVE",
"393 315 LINE",
"408 417 LINE",
"377 436 OFFCURVE",
"329 448 OFFCURVE",
"288 448 CURVE SMOOTH",
"132 448 OFFCURVE",
"42 339 OFFCURVE",
"42 211 CURVE SMOOTH",
"42 88 OFFCURVE",
"129 -12 OFFCURVE",
"253 -12 CURVE SMOOTH"
);
}
);
};
layerId = "A2204D38-078E-49A4-B70C-87904FFF8E34";
paths = (
{
closed = 1;
nodes = (
"331 -12 OFFCURVE",
"380 15 OFFCURVE",
"401 28 CURVE",
"406 72 LINE",
"402 72 LINE",
"385 58 OFFCURVE",
"352 32 OFFCURVE",
"282 32 CURVE SMOOTH",
"183 32 OFFCURVE",
"111 124 OFFCURVE",
"111 224 CURVE SMOOTH",
"111 320 OFFCURVE",
"158 412 OFFCURVE",
"260 412 CURVE SMOOTH",
"336 412 OFFCURVE",
"359 365 OFFCURVE",
"378 341 CURVE",
"381 341 LINE",
"428 390 LINE",
"390 439 OFFCURVE",
"324 448 OFFCURVE",
"289 448 CURVE SMOOTH",
"132 448 OFFCURVE",
"42 339 OFFCURVE",
"42 211 CURVE SMOOTH",
"42 88 OFFCURVE",
"129 -12 OFFCURVE",
"253 -12 CURVE SMOOTH"
);
}
);
width = 461;
},
{
backgroundImage = {
crop = "{{0, 0}, {305.16, 367}}";
imagePath = "img/05 Page 3.png";
locked = "1";
transform = "{42.083, 0, 0, 42.083, -2693, -10270}";
};
layerId = "3EDEE92B-4D9D-4D9A-9438-63C2E33416C1";
paths = (
{
closed = 1;
nodes = (
"327 -12 OFFCURVE",
"376 15 OFFCURVE",
"397 28 CURVE",
"405 72 LINE",
"398 72 LINE",
"381 58 OFFCURVE",
"348 32 OFFCURVE",
"278 32 CURVE SMOOTH",
"179 32 OFFCURVE",
"107 124 OFFCURVE",
"107 224 CURVE SMOOTH",
"107 320 OFFCURVE",
"154 412 OFFCURVE",
"256 412 CURVE SMOOTH",
"319 412 OFFCURVE",
"364 379 OFFCURVE",
"365 315 CURVE",
"389 315 LINE",
"404 417 LINE",
"373 436 OFFCURVE",
"325 448 OFFCURVE",
"284 448 CURVE SMOOTH",
"128 448 OFFCURVE",
"38 339 OFFCURVE",
"38 211 CURVE SMOOTH",
"38 88 OFFCURVE",
"125 -12 OFFCURVE",
"249 -12 CURVE SMOOTH"
);
}
);
width = 426;
}
);
leftMetricsKey = o;
unicode = 0063;
},
{
color = 4;
glyphname = d;
lastChange = "2021-03-06 12:05:37 +0000";
layers = (
{
background = {
hints = (
{
origin = "{0, 0}";
scale = "{0.2, 1}";
type = Corner;
name = _corner.leftSerif;
},
{
origin = "{0, 1}";
type = Corner;
name = _corner.rightSerif;
},
{
origin = "{0, 3}";
type = Corner;
name = _corner.topLeft;
}
);
paths = (
{
closed = 1;
nodes = (
"398 0 LINE",
"458 0 LINE",
"458 762 LINE",
"398 762 LINE"
);
},
{
closed = 1;
nodes = (
"412 155 LINE",
"368 69 OFFCURVE",
"311 40 OFFCURVE",
"239 40 CURVE SMOOTH",
"189 40 OFFCURVE",
"110 95 OFFCURVE",
"110 208 CURVE SMOOTH",
"110 318 OFFCURVE",
"171 403 OFFCURVE",
"271 403 CURVE SMOOTH",
"337 403 OFFCURVE",
"388 361 OFFCURVE",
"399 335 CURVE",
"427 377 LINE",
"389 414 OFFCURVE",
"355 448 OFFCURVE",
"291 448 CURVE SMOOTH",
"206 448 OFFCURVE",
"42 356 OFFCURVE",
"42 196 CURVE SMOOTH",
"42 78 OFFCURVE",
"112 -12 OFFCURVE",
"217 -12 CURVE SMOOTH",
"275 -12 OFFCURVE",
"323 4 OFFCURVE",
"419 101 CURVE"
);
}
);
};
hints = (
{
origin = "{1, 3}";
scale = "{0.2, 1}";
type = Corner;
name = _corner.leftSerif;
},
{
origin = "{1, 0}";
type = Corner;
name = _corner.rightSerif;
},
{
origin = "{1, 2}";
type = Corner;
name = _corner.topLeft;
}
);
layerId = "A2204D38-078E-49A4-B70C-87904FFF8E34";
paths = (
{
closed = 1;
nodes = (
"275 -12 OFFCURVE",
"323 4 OFFCURVE",
"419 101 CURVE",
"412 155 LINE",
"368 69 OFFCURVE",
"311 40 OFFCURVE",
"239 40 CURVE SMOOTH",
"189 40 OFFCURVE",
"110 95 OFFCURVE",
"110 208 CURVE SMOOTH",
"110 318 OFFCURVE",
"171 403 OFFCURVE",
"271 403 CURVE SMOOTH",
"337 403 OFFCURVE",
"388 361 OFFCURVE",
"399 335 CURVE",
"427 377 LINE",
"389 414 OFFCURVE",
"355 448 OFFCURVE",
"291 448 CURVE SMOOTH",
"206 448 OFFCURVE",
"42 356 OFFCURVE",
"42 196 CURVE SMOOTH",
"42 78 OFFCURVE",
"112 -12 OFFCURVE",
"217 -12 CURVE SMOOTH"
);
},
{
closed = 1;
nodes = (
"458 0 LINE",
"458 762 LINE",
"398 762 LINE",
"398 0 LINE"
);
}
);
width = 507;
},
{
backgroundImage = {
crop = "{{0, 0}, {305.16, 367}}";
imagePath = "img/05 Page 3.png";
locked = "1";
transform = "{42.083, 0, 0, 42.083, -3131, -10272}";
};
guideLines = (
{
angle = 13;
position = "{369, 749}";
}
);
hints = (
{
origin = "{1, 0}";
type = Corner;
name = _corner.rightSerif;
},
{
origin = "{1, 3}";
scale = "{0.2, 1}";
type = Corner;
name = _corner.leftSerif;
},
{
origin = "{1, 2}";
type = Corner;
name = _corner.topLeft;
}
);
layerId = "3EDEE92B-4D9D-4D9A-9438-63C2E33416C1";
paths = (
{
closed = 1;
nodes = (
"271 -12 OFFCURVE",
"319 4 OFFCURVE",
"415 101 CURVE",
"408 155 LINE",
"364 69 OFFCURVE",
"307 40 OFFCURVE",
"235 40 CURVE SMOOTH",
"185 40 OFFCURVE",
"106 95 OFFCURVE",
"106 208 CURVE SMOOTH",
"106 318 OFFCURVE",
"167 403 OFFCURVE",
"267 403 CURVE SMOOTH",
"333 403 OFFCURVE",
"384 361 OFFCURVE",
"395 335 CURVE",
"423 377 LINE",
"385 414 OFFCURVE",
"351 448 OFFCURVE",
"287 448 CURVE SMOOTH",
"202 448 OFFCURVE",
"38 356 OFFCURVE",
"38 196 CURVE SMOOTH",
"38 78 OFFCURVE",
"108 -12 OFFCURVE",
"213 -12 CURVE SMOOTH"
);
},
{
closed = 1;
nodes = (
"454 0 LINE",
"454 762 LINE",
"394 762 LINE",
"394 0 LINE"
);
}
);
width = 546;
}
);
leftMetricsKey = o;
unicode = 0064;
},
{
color = 4;
glyphname = e;
lastChange = "2021-03-13 17:26:07 +0000";
layers = (
{
layerId = "A2204D38-078E-49A4-B70C-87904FFF8E34";
paths = (
{
closed = 1;
nodes = (
"338 -12 OFFCURVE",
"385 28 OFFCURVE",
"410 48 CURVE",
"408 77 LINE",
"404 80 LINE",
"380 61 OFFCURVE",
"336 31 OFFCURVE",
"275 31 CURVE SMOOTH",
"174 31 OFFCURVE",
"108 121 OFFCURVE",
"108 235 CURVE",
"349 235 LINE",
"424 286 LINE",
"424 389 OFFCURVE",
"357 448 OFFCURVE",
"261 448 CURVE SMOOTH",
"145 448 OFFCURVE",
"42 357 OFFCURVE",
"42 226 CURVE SMOOTH",
"42 50 OFFCURVE",
"146 -12 OFFCURVE",
"251 -12 CURVE SMOOTH"
);
},
{
closed = 1;
nodes = (
"108 326 OFFCURVE",
"147 416 OFFCURVE",
"246 416 CURVE SMOOTH",
"329 416 OFFCURVE",
"362 353 OFFCURVE",
"362 277 CURVE",
"349 266 LINE",
"108 266 LINE"
);
}
);
width = 464;
},
{
backgroundImage = {
crop = "{{0, 0}, {305.16, 367}}";
imagePath = "img/05 Page 3.png";
locked = "1";
transform = "{42.083, 0, 0, 42.083, -3703, -10265}";
};
guideLines = (
{
angle = 214;
locked = 1;
position = "{418, 286}";
}
);
layerId = "3EDEE92B-4D9D-4D9A-9438-63C2E33416C1";
paths = (
{
closed = 1;
nodes = (
"332 -12 OFFCURVE",
"379 28 OFFCURVE",
"404 48 CURVE",
"402 77 LINE",
"398 80 LINE",
"374 61 OFFCURVE",
"330 31 OFFCURVE",
"269 31 CURVE SMOOTH",
"168 31 OFFCURVE",
"102 121 OFFCURVE",
"102 235 CURVE",
"343 235 LINE",
"418 286 LINE",
"418 389 OFFCURVE",
"351 448 OFFCURVE",
"255 448 CURVE SMOOTH",
"139 448 OFFCURVE",
"36 357 OFFCURVE",
"36 226 CURVE SMOOTH",
"36 50 OFFCURVE",
"140 -12 OFFCURVE",
"245 -12 CURVE SMOOTH"
);
},
{
closed = 1;
nodes = (
"102 326 OFFCURVE",
"141 416 OFFCURVE",
"240 416 CURVE SMOOTH",
"323 416 OFFCURVE",
"356 353 OFFCURVE",
"356 277 CURVE",
"343 266 LINE",
"102 266 LINE"
);
}
);
width = 449;
},
{
associatedMasterId = "3EDEE92B-4D9D-4D9A-9438-63C2E33416C1";
backgroundImage = {
crop = "{{0, 0}, {305.926, 73.749}}";
imagePath = ../pala/pala.png;
locked = "1";
transform = "{82.773, 0, 0, 82.773, -3614, -1413}";
};
layerId = "817A4564-64A0-4D36-8E8D-F6BB38019082";
name = "Dec 3 20, 16:53";
paths = (
{
closed = 1;
nodes = (
"106 367 OFFCURVE",
"153 455 OFFCURVE",
"248 455 CURVE SMOOTH",
"331 455 OFFCURVE",
"375 395 OFFCURVE",
"375 308 CURVE",
"364 297 LINE",
"106 293 LINE"
);
},
{
closed = 1;
nodes = (
"440 308 LINE",
"440 421 OFFCURVE",
"363 490 OFFCURVE",
"251 490 CURVE SMOOTH",
"136 490 OFFCURVE",
"30 384 OFFCURVE",
"30 215 CURVE SMOOTH",
"30 82 OFFCURVE",
"124 -12 OFFCURVE",
"248 -12 CURVE SMOOTH",
"345 -12 OFFCURVE",
"402 31 OFFCURVE",
"425 54 CURVE",
"425 85 LINE",
"421 88 LINE",
"394 61 OFFCURVE",
"344 39 OFFCURVE",
"278 39 CURVE SMOOTH",
"158 39 OFFCURVE",
"106 130 OFFCURVE",
"106 246 CURVE",
"373 255 LINE"
);
}
);
width = 470;
}
);
unicode = 0065;
},
{
color = 5;
glyphname = egrave;
lastChange = "2021-03-16 08:38:00 +0000";
layers = (
{
background = {
paths = (
{
closed = 1;
nodes = (
"101 395 OFFCURVE",
"167 463 OFFCURVE",
"246 463 CURVE",
"347 463 OFFCURVE",
"369 362 OFFCURVE",
"369 306 CURVE",
"101 306 LINE"
);
},
{
closed = 1;
nodes = (
"331 -10 OFFCURVE",
"396 33 OFFCURVE",
"437 89 CURVE",
"399 89 LINE",
"361 57 OFFCURVE",
"315 43 OFFCURVE",
"266 43 CURVE SMOOTH",
"166 43 OFFCURVE",
"101 164 OFFCURVE",
"101 268 CURVE",
"350 268 LINE",
"439 314 LINE",
"439 412 OFFCURVE",
"375 510 OFFCURVE",
"256 510 CURVE SMOOTH",
"136 510 OFFCURVE",
"32 399 OFFCURVE",
"32 263 CURVE SMOOTH",
"32 84 OFFCURVE",
"131 -10 OFFCURVE",
"246 -10 CURVE SMOOTH"
);
}
);
};
backgroundImage = {
crop = "{{0, 0}, {584.826, 615}}";
imagePath = 43107733732_e84851c66c_5k.jpg;
locked = "1";
transform = "{37.925, 0, 0, 37.925, -16987, -13383}";
};
components = (
{
name = e;
},
{
name = gravecomb;
transform = "{1, 0, 0, 1, -140, 0}";
}
);
layerId = "A2204D38-078E-49A4-B70C-87904FFF8E34";
width = 464;
},
{
background = {
paths = (
{
closed = 1;
nodes = (
"101 395 OFFCURVE",
"167 463 OFFCURVE",
"246 463 CURVE",
"347 463 OFFCURVE",
"369 362 OFFCURVE",
"369 306 CURVE",
"101 306 LINE"
);
},
{
closed = 1;
nodes = (
"331 -10 OFFCURVE",
"396 33 OFFCURVE",
"437 89 CURVE",
"399 89 LINE",
"361 57 OFFCURVE",
"315 43 OFFCURVE",
"266 43 CURVE SMOOTH",
"166 43 OFFCURVE",
"101 164 OFFCURVE",
"101 268 CURVE",
"350 268 LINE",
"439 314 LINE",
"439 412 OFFCURVE",
"375 510 OFFCURVE",
"256 510 CURVE SMOOTH",
"136 510 OFFCURVE",
"32 399 OFFCURVE",
"32 263 CURVE SMOOTH",
"32 84 OFFCURVE",
"131 -10 OFFCURVE",
"246 -10 CURVE SMOOTH"
);
}
);
};
backgroundImage = {
crop = "{{0, 0}, {584.826, 615}}";
imagePath = img/43107733732_e84851c66c_5k.jpg;
locked = "1";
transform = "{37.925, 0, 0, 37.925, -16987, -13383}";
};
components = (
{
name = e;
},
{
name = gravecomb;
transform = "{1, 0, 0, 1, -140, 0}";
}
);
layerId = "3EDEE92B-4D9D-4D9A-9438-63C2E33416C1";
width = 449;
}
);
leftMetricsKey = e;
rightMetricsKey = e;
unicode = 00E8;
},
{
color = 4;
glyphname = f;
lastChange = "2021-03-13 15:34:39 +0000";
layers = (
{
hints = (
{
origin = "{0, 3}";
scale = "{0.7, 1}";
type = Corner;
name = _corner.piek;
},
{
origin = "{1, 0}";
scale = "{1.3, 1}";
type = Corner;
name = _corner.rightSerif;
},
{
origin = "{1, 21}";
type = Corner;
name = _corner.leftSerif;
}
);
layerId = "A2204D38-078E-49A4-B70C-87904FFF8E34";
paths = (
{
closed = 1;
nodes = (
"267 367 LINE",
"268 417 LINE",
"88 417 LINE",
"88 367 LINE"
);
},
{
closed = 1;
nodes = (
"133 0 LINE",
"133 525 LINE SMOOTH",
"133 654 OFFCURVE",
"173 705 OFFCURVE",
"231 705 CURVE SMOOTH",
"257 705 OFFCURVE",
"284 695 OFFCURVE",
"293 686 CURVE",
"299 688 LINE",
"313 751 LINE",
"312 754 LINE",
"302 758 OFFCURVE",
"288 762 OFFCURVE",
"267 762 CURVE SMOOTH",
"238 762 OFFCURVE",
"202 760 OFFCURVE",
"154 700 CURVE",
"122 658 LINE SMOOTH",
"81 604 OFFCURVE",
"74 566 OFFCURVE",
"74 506 CURVE SMOOTH",
"74 0 LINE"
);
}
);
width = 313;
},
{
backgroundImage = {
crop = "{{0, 0}, {305.16, 367}}";
imagePath = "img/05 Page 3.png";
locked = "1";
transform = "{42.083, 0, 0, 42.083, -4158, -10272}";
};
guideLines = (
{
angle = 52;
locked = 1;
position = "{204, 720}";
}
);
hints = (
{
origin = "{0, 3}";
scale = "{0.7, 1}";
type = Corner;
name = _corner.piek;
},
{
origin = "{1, 0}";
scale = "{1.3, 1}";
type = Corner;
name = _corner.rightSerif;
},
{
origin = "{1, 21}";
type = Corner;
name = _corner.leftSerif;
}
);
layerId = "3EDEE92B-4D9D-4D9A-9438-63C2E33416C1";
paths = (
{
closed = 1;
nodes = (
"325 367 LINE",
"336 417 LINE",
"106 417 LINE",
"106 367 LINE"
);
},
{
closed = 1;
nodes = (
"167 0 LINE",
"167 525 LINE SMOOTH",
"167 654 OFFCURVE",
"207 705 OFFCURVE",
"265 705 CURVE SMOOTH",
"291 705 OFFCURVE",
"318 695 OFFCURVE",
"327 686 CURVE",
"333 688 LINE",
"347 751 LINE",
"346 754 LINE",
"336 758 OFFCURVE",
"322 762 OFFCURVE",
"301 762 CURVE SMOOTH",
"272 762 OFFCURVE",
"236 760 OFFCURVE",
"188 700 CURVE",
"156 658 LINE SMOOTH",
"115 604 OFFCURVE",
"108 566 OFFCURVE",
"108 506 CURVE SMOOTH",
"108 0 LINE"
);
}
);
width = 347;
}
);
leftMetricsKey = n;
rightMetricsKey = r;
unicode = 0066;
},
{
color = 4;
glyphname = g;
lastChange = "2021-03-06 12:05:37 +0000";
layers = (
{
layerId = "A2204D38-078E-49A4-B70C-87904FFF8E34";
paths = (
{
closed = 1;
nodes = (
"375 -217 OFFCURVE",
"462 -142 OFFCURVE",
"462 -50 CURVE SMOOTH",
"462 42 OFFCURVE",
"406 77 OFFCURVE",
"318 77 CURVE SMOOTH",
"276 77 OFFCURVE",
"258 77 OFFCURVE",
"207 77 CURVE SMOOTH",
"172 77 OFFCURVE",
"146 87 OFFCURVE",
"146 111 CURVE SMOOTH",
"146 157 OFFCURVE",
"205 162 OFFCURVE",
"225 167 CURVE",
"193 174 LINE",
"165 167 OFFCURVE",
"73 129 OFFCURVE",
"73 87 CURVE SMOOTH",
"73 58 OFFCURVE",
"103 31 OFFCURVE",
"161 31 CURVE SMOOTH",
"180 31 OFFCURVE",
"225 34 OFFCURVE",
"269 34 CURVE SMOOTH",
"364 34 OFFCURVE",
"407 -5 OFFCURVE",
"407 -70 CURVE SMOOTH",
"407 -124 OFFCURVE",
"361 -189 OFFCURVE",
"235 -189 CURVE SMOOTH",
"144 -189 OFFCURVE",
"76 -139 OFFCURVE",
"76 -59 CURVE SMOOTH",
"76 14 OFFCURVE",
"136 31 OFFCURVE",
"198 53 CURVE",
"154 53 LINE",
"133 44 OFFCURVE",
"20 6 OFFCURVE",
"20 -79 CURVE SMOOTH",
"20 -167 OFFCURVE",
"97 -217 OFFCURVE",
"227 -217 CURVE SMOOTH"
);
},
{
closed = 1;
nodes = (
"311 159 OFFCURVE",
"418 220 OFFCURVE",
"418 321 CURVE SMOOTH",
"418 430 OFFCURVE",
"340 448 OFFCURVE",
"264 448 CURVE SMOOTH",
"145 448 OFFCURVE",
"69 391 OFFCURVE",
"69 287 CURVE SMOOTH",
"69 190 OFFCURVE",
"148 159 OFFCURVE",
"218 159 CURVE SMOOTH"
);
},
{
closed = 1;
nodes = (
"180 189 OFFCURVE",
"131 227 OFFCURVE",
"131 306 CURVE SMOOTH",
"131 353 OFFCURVE",
"157 425 OFFCURVE",
"245 425 CURVE SMOOTH",
"310 425 OFFCURVE",
"355 381 OFFCURVE",
"355 311 CURVE SMOOTH",
"355 252 OFFCURVE",
"324 189 OFFCURVE",
"232 189 CURVE SMOOTH"
);
},
{
closed = 1;
nodes = (
"400 442 LINE",
"392 467 LINE",
"264 448 LINE {name = \"🔥\";}",
"265 430 LINE",
"340 410 LINE"
);
}
);
width = 494;
},
{
layerId = "3EDEE92B-4D9D-4D9A-9438-63C2E33416C1";
paths = (
{
closed = 1;
nodes = (
"377 -217 OFFCURVE",
"464 -142 OFFCURVE",
"464 -50 CURVE SMOOTH",
"464 42 OFFCURVE",
"408 77 OFFCURVE",
"320 77 CURVE SMOOTH",
"278 77 OFFCURVE",
"260 77 OFFCURVE",
"209 77 CURVE SMOOTH",
"174 77 OFFCURVE",
"148 87 OFFCURVE",
"148 111 CURVE SMOOTH",
"148 157 OFFCURVE",
"207 162 OFFCURVE",
"227 167 CURVE",
"195 174 LINE",
"167 167 OFFCURVE",
"75 129 OFFCURVE",
"75 87 CURVE SMOOTH",
"75 58 OFFCURVE",
"105 31 OFFCURVE",
"163 31 CURVE SMOOTH",
"182 31 OFFCURVE",
"227 34 OFFCURVE",
"271 34 CURVE SMOOTH",
"366 34 OFFCURVE",
"409 -5 OFFCURVE",
"409 -70 CURVE SMOOTH",
"409 -124 OFFCURVE",
"363 -189 OFFCURVE",
"237 -189 CURVE SMOOTH",
"146 -189 OFFCURVE",
"78 -139 OFFCURVE",
"78 -59 CURVE SMOOTH",
"78 14 OFFCURVE",
"138 31 OFFCURVE",
"200 53 CURVE",
"156 53 LINE",
"135 44 OFFCURVE",
"22 6 OFFCURVE",
"22 -79 CURVE SMOOTH",
"22 -167 OFFCURVE",
"99 -217 OFFCURVE",
"229 -217 CURVE SMOOTH"
);
},
{
closed = 1;
nodes = (
"313 159 OFFCURVE",
"420 220 OFFCURVE",
"420 321 CURVE SMOOTH",
"420 430 OFFCURVE",
"342 448 OFFCURVE",
"266 448 CURVE SMOOTH",
"147 448 OFFCURVE",
"71 391 OFFCURVE",
"71 287 CURVE SMOOTH",
"71 190 OFFCURVE",
"150 159 OFFCURVE",
"220 159 CURVE SMOOTH"
);
},
{
closed = 1;
nodes = (
"182 189 OFFCURVE",
"133 227 OFFCURVE",
"133 306 CURVE SMOOTH",
"133 353 OFFCURVE",
"159 425 OFFCURVE",
"247 425 CURVE SMOOTH",
"312 425 OFFCURVE",
"357 381 OFFCURVE",
"357 311 CURVE SMOOTH",
"357 252 OFFCURVE",
"326 189 OFFCURVE",
"234 189 CURVE SMOOTH"
);
},
{
closed = 1;
nodes = (
"486 369 LINE",
"506 411 LINE",
"504 417 LINE",
"370 417 LINE",
"371 369 LINE"
);
}
);
width = 496;
}
);
unicode = 0067;
},
{
color = 4;
glyphname = h;
lastChange = "2021-03-10 16:33:38 +0000";
layers = (
{
hints = (
{
origin = "{0, 0}";
type = Corner;
name = _corner.rightSerif;
},
{
origin = "{0, 2}";
type = Corner;
name = _corner.topLeft;
},
{
origin = "{0, 3}";
type = Corner;
name = _corner.leftSerif;
},
{
origin = "{1, 0}";
scale = "{-1, 1}";
type = Corner;
name = _corner.leftSerif;
},
{
origin = "{1, 15}";
scale = "{0.4, 1}";
type = Corner;
name = _corner.leftSerif;
}
);
layerId = "A2204D38-078E-49A4-B70C-87904FFF8E34";
paths = (
{
closed = 1;
nodes = (
"168 0 LINE",
"168 762 LINE",
"108 762 LINE",
"108 0 LINE"
);
},
{
closed = 1;
nodes = (
"473 0 LINE",
"473 261 LINE SMOOTH",
"473 373 OFFCURVE",
"436 448 OFFCURVE",
"317 448 CURVE SMOOTH",
"270 448 OFFCURVE",
"270 444 OFFCURVE",
"129 326 CURVE",
"129 230 LINE",
"142 266 OFFCURVE",
"200 394 OFFCURVE",
"291 394 CURVE SMOOTH",
"364 394 OFFCURVE",
"413 358 OFFCURVE",
"413 253 CURVE SMOOTH",
"413 0 LINE"
);
}
);
width = 483;
},
{
associatedMasterId = "A2204D38-078E-49A4-B70C-87904FFF8E34";
background = {
paths = (
{
closed = 1;
nodes = (
"202 510 OFFCURVE",
"144 460 OFFCURVE",
"80 365 CURVE",
"103 350 LINE",
"103 762 LINE",
"43 762 LINE",
"43 0 LINE",
"103 0 LINE",
"103 324 LINE",
"134 392 OFFCURVE",
"193 445 OFFCURVE",
"256 445 CURVE SMOOTH",
"347 445 OFFCURVE",
"380 376 OFFCURVE",
"380 267 CURVE SMOOTH",
"380 0 LINE",
"440 0 LINE",
"440 322 LINE SMOOTH",
"440 448 OFFCURVE",
"393 510 OFFCURVE",
"285 510 CURVE SMOOTH"
);
}
);
};
backgroundImage = {
crop = "{{0, 0}, {194, 196}}";
imagePath = "../../Screenshot 2020-10-15 at 11.32.52.png";
transform = "{5.23478, 0, 0, 5.23478, -536, -298}";
};
layerId = "A9E281D5-F84D-4FB4-A69F-ACA557920CC3";
name = "Oct 15 20, 11:33";
paths = (
{
closed = 1;
nodes = (
"43 762 LINE",
"43 0 LINE",
"103 0 LINE",
"103 762 LINE"
);
},
{
closed = 1;
nodes = (
"116 358 OFFCURVE",
"174 448 OFFCURVE",
"256 448 CURVE SMOOTH",
"342 448 OFFCURVE",
"382 386 OFFCURVE",
"382 265 CURVE SMOOTH",
"382 0 LINE",
"442 0 LINE",
"442 279 LINE SMOOTH",
"442 442 OFFCURVE",
"407 509 OFFCURVE",
"285 510 CURVE SMOOTH",
"181 511 OFFCURVE",
"122 422 OFFCURVE",
"96 387 CURVE",
"98 314 LINE"
);
}
);
width = 492;
},
{
backgroundImage = {
crop = "{{0, 0}, {305.16, 367}}";
imagePath = "img/05 Page 3.png";
locked = "1";
transform = "{42.49966, 0, 0, 42.49966, -5053, -10366}";
};
guideLines = (
{
position = "{418, 436}";
}
);
hints = (
{
origin = "{0, 2}";
type = Corner;
name = _corner.topLeft;
},
{
origin = "{0, 3}";
type = Corner;
name = _corner.leftSerif;
},
{
origin = "{0, 0}";
type = Corner;
name = _corner.rightSerif;
},
{
origin = "{1, 0}";
scale = "{-1, 1}";
type = Corner;
name = _corner.leftSerif;
},
{
origin = "{1, 15}";
scale = "{0.4, 1}";
type = Corner;
name = _corner.leftSerif;
}
);
layerId = "3EDEE92B-4D9D-4D9A-9438-63C2E33416C1";
paths = (
{
closed = 1;
nodes = (
"168 0 LINE",
"168 762 LINE",
"108 762 LINE",
"108 0 LINE"
);
},
{
closed = 1;
nodes = (
"473 0 LINE",
"473 261 LINE SMOOTH",
"473 373 OFFCURVE",
"436 448 OFFCURVE",
"317 448 CURVE SMOOTH",
"270 448 OFFCURVE",
"270 444 OFFCURVE",
"129 326 CURVE",
"129 230 LINE",
"142 266 OFFCURVE",
"200 394 OFFCURVE",
"291 394 CURVE SMOOTH",
"364 394 OFFCURVE",
"413 358 OFFCURVE",
"413 253 CURVE SMOOTH",
"413 0 LINE"
);
}
);
width = 555;
},
{
associatedMasterId = "3EDEE92B-4D9D-4D9A-9438-63C2E33416C1";
background = {
paths = (
{
closed = 1;
nodes = (
"202 510 OFFCURVE",
"144 460 OFFCURVE",
"80 365 CURVE",
"103 350 LINE",
"103 762 LINE",
"43 762 LINE",
"43 0 LINE",
"103 0 LINE",
"103 324 LINE",
"134 392 OFFCURVE",
"193 445 OFFCURVE",
"256 445 CURVE SMOOTH",
"347 445 OFFCURVE",
"380 376 OFFCURVE",
"380 267 CURVE SMOOTH",
"380 0 LINE",
"440 0 LINE",
"440 322 LINE SMOOTH",
"440 448 OFFCURVE",
"393 510 OFFCURVE",
"285 510 CURVE SMOOTH"
);
}
);
};
backgroundImage = {
crop = "{{0, 0}, {194, 196}}";
imagePath = "../../Screenshot 2020-10-15 at 11.32.52.png";
transform = "{5.23478, 0, 0, 5.23478, -536, -298}";
};
layerId = "23A60301-284F-4BA8-8883-5AACA35A98E0";
name = "Oct 15 20, 11:33";
paths = (
{
closed = 1;
nodes = (
"43 762 LINE",
"43 0 LINE",
"103 0 LINE",
"103 762 LINE"
);
},
{
closed = 1;
nodes = (
"116 358 OFFCURVE",
"174 448 OFFCURVE",
"256 448 CURVE SMOOTH",
"342 448 OFFCURVE",
"382 386 OFFCURVE",
"382 265 CURVE SMOOTH",
"382 0 LINE",
"442 0 LINE",
"442 279 LINE SMOOTH",
"442 442 OFFCURVE",
"407 509 OFFCURVE",
"285 510 CURVE SMOOTH",
"181 511 OFFCURVE",
"122 422 OFFCURVE",
"96 387 CURVE",
"98 314 LINE"
);
}
);
width = 492;
}
);
unicode = 0068;
},
{
color = 4;
glyphname = i;
lastChange = "2021-03-13 11:05:41 +0000";
layers = (
{
components = (
{
name = idotless;
transform = "{1, 0, 0, 1, 14, 0}";
}
);
layerId = "A2204D38-078E-49A4-B70C-87904FFF8E34";
paths = (
{
closed = 1;
nodes = (
"121 558 OFFCURVE",
"141 580 OFFCURVE",
"141 605 CURVE SMOOTH",
"141 632 OFFCURVE",
"121 654 OFFCURVE",
"96 654 CURVE SMOOTH",
"70 654 OFFCURVE",
"50 632 OFFCURVE",
"50 605 CURVE SMOOTH",
"50 580 OFFCURVE",
"70 558 OFFCURVE",
"96 558 CURVE SMOOTH"
);
}
);
width = 191;
},
{
backgroundImage = {
crop = "{{0, 0}, {305.16, 367}}";
imagePath = "img/05 Page 3.png";
locked = "1";
transform = "{42.083, 0, 0, 42.083, -5583, -10272}";
};
components = (
{
name = idotless;
transform = "{1, 0, 0, 1, 2, 0}";
}
);
guideLines = (
{
angle = 90;
locked = 1;
position = "{101, 848}";
},
{
angle = 90;
locked = 1;
position = "{164, 598}";
},
{
angle = 14.7255;
position = "{30, 453}";
}
);
layerId = "3EDEE92B-4D9D-4D9A-9438-63C2E33416C1";
paths = (
{
closed = 1;
nodes = (
"156 558 OFFCURVE",
"176 580 OFFCURVE",
"176 605 CURVE SMOOTH",
"176 632 OFFCURVE",
"156 654 OFFCURVE",
"131 654 CURVE SMOOTH",
"105 654 OFFCURVE",
"85 632 OFFCURVE",
"85 605 CURVE SMOOTH",
"85 580 OFFCURVE",
"105 558 OFFCURVE",
"131 558 CURVE SMOOTH"
);
}
);
width = 260;
}
);
unicode = 0069;
},
{
color = 4;
glyphname = idieresis;
lastChange = "2021-03-13 15:22:08 +0000";
layers = (
{
components = (
{
name = idotless;
transform = "{1, 0, 0, 1, 75, 0}";
}
);
layerId = "A2204D38-078E-49A4-B70C-87904FFF8E34";
paths = (
{
closed = 1;
nodes = (
"241 558 OFFCURVE",
"261 580 OFFCURVE",
"261 605 CURVE SMOOTH",
"261 632 OFFCURVE",
"241 654 OFFCURVE",
"216 654 CURVE SMOOTH",
"190 654 OFFCURVE",
"170 632 OFFCURVE",
"170 605 CURVE SMOOTH",
"170 580 OFFCURVE",
"190 558 OFFCURVE",
"216 558 CURVE SMOOTH"
);
},
{
closed = 1;
nodes = (
"121 558 OFFCURVE",
"141 580 OFFCURVE",
"141 605 CURVE SMOOTH",
"141 632 OFFCURVE",
"121 654 OFFCURVE",
"96 654 CURVE SMOOTH",
"70 654 OFFCURVE",
"50 632 OFFCURVE",
"50 605 CURVE SMOOTH",
"50 580 OFFCURVE",
"70 558 OFFCURVE",
"96 558 CURVE SMOOTH"
);
}
);
width = 311;
},
{
components = (
{
name = idotless;
transform = "{1, 0, 0, 1, 25, 0}";
}
);
layerId = "3EDEE92B-4D9D-4D9A-9438-63C2E33416C1";
paths = (
{
closed = 1;
nodes = (
"221 558 OFFCURVE",
"241 580 OFFCURVE",
"241 605 CURVE SMOOTH",
"241 632 OFFCURVE",
"221 654 OFFCURVE",
"196 654 CURVE SMOOTH",
"170 654 OFFCURVE",
"150 632 OFFCURVE",
"150 605 CURVE SMOOTH",
"150 580 OFFCURVE",
"170 558 OFFCURVE",
"196 558 CURVE SMOOTH"
);
},
{
closed = 1;
nodes = (
"101 558 OFFCURVE",
"121 580 OFFCURVE",
"121 605 CURVE SMOOTH",
"121 632 OFFCURVE",
"101 654 OFFCURVE",
"76 654 CURVE SMOOTH",
"50 654 OFFCURVE",
"30 632 OFFCURVE",
"30 605 CURVE SMOOTH",
"30 580 OFFCURVE",
"50 558 OFFCURVE",
"76 558 CURVE SMOOTH"
);
}
);
width = 283;
}
);
leftMetricsKey = i;
rightMetricsKey = i;
unicode = 00EF;
},
{
color = 4;
glyphname = j;
lastChange = "2021-03-13 15:22:08 +0000";
layers = (
{
guideLines = (
{
angle = 90;
position = "{149, -253}";
}
);
hints = (
{
origin = "{2, 4}";
type = Corner;
name = _corner.topLeft;
}
);
layerId = "A2204D38-078E-49A4-B70C-87904FFF8E34";
paths = (
{
closed = 1;
nodes = (
"77 -209 OFFCURVE",
"169 -170 OFFCURVE",
"169 -36 CURVE SMOOTH",
"169 85 LINE {name = \"🧨\";}",
"109 85 LINE {name = \"🧨\";}",
"109 -34 LINE SMOOTH",
"109 -90 OFFCURVE",
"101 -175 OFFCURVE",
"41 -179 CURVE SMOOTH",
"27 -180 OFFCURVE",
"18 -173 OFFCURVE",
"14 -171 CURVE",
"3 -201 LINE",
"7 -204 OFFCURVE",
"15 -209 OFFCURVE",
"31 -209 CURVE SMOOTH"
);
},
{
closed = 0;
nodes = (
"80 -235 LINE"
);
},
{
closed = 1;
nodes = (
"169 60 LINE {name = \"🧨\";}",
"169 438 LINE",
"148 433 OFFCURVE",
"130 433 OFFCURVE",
"109 438 CURVE",
"109 60 LINE {name = \"🧨\";}"
);
},
{
closed = 1;
nodes = (
"174 558 OFFCURVE",
"194 580 OFFCURVE",
"194 605 CURVE SMOOTH",
"194 632 OFFCURVE",
"174 654 OFFCURVE",
"149 654 CURVE SMOOTH",
"123 654 OFFCURVE",
"103 632 OFFCURVE",
"103 605 CURVE SMOOTH",
"103 580 OFFCURVE",
"123 558 OFFCURVE",
"149 558 CURVE SMOOTH"
);
}
);
width = 244;
},
{
backgroundImage = {
crop = "{{0, 0}, {305.16, 367}}";
imagePath = "img/05 Page 3.png";
locked = "1";
transform = "{42.083, 0, 0, 42.083, -5844, -10272}";
};
guideLines = (
{
angle = 90;
position = "{109, -253}";
}
);
hints = (
{
origin = "{2, 4}";
type = Corner;
name = _corner.topLeft;
}
);
layerId = "3EDEE92B-4D9D-4D9A-9438-63C2E33416C1";
paths = (
{
closed = 1;
nodes = (
"79 -209 OFFCURVE",
"171 -170 OFFCURVE",
"171 -36 CURVE SMOOTH",
"171 85 LINE {name = \"🧨\";}",
"111 85 LINE {name = \"🧨\";}",
"111 -34 LINE SMOOTH",
"111 -90 OFFCURVE",
"103 -175 OFFCURVE",
"43 -179 CURVE SMOOTH",
"29 -180 OFFCURVE",
"20 -173 OFFCURVE",
"16 -171 CURVE",
"5 -201 LINE",
"9 -204 OFFCURVE",
"17 -209 OFFCURVE",
"33 -209 CURVE SMOOTH"
);
},
{
closed = 0;
nodes = (
"82 -235 LINE"
);
},
{
closed = 1;
nodes = (
"171 60 LINE {name = \"🧨\";}",
"171 438 LINE",
"150 433 OFFCURVE",
"132 433 OFFCURVE",
"111 438 CURVE",
"111 60 LINE {name = \"🧨\";}"
);
},
{
closed = 1;
nodes = (
"166 558 OFFCURVE",
"186 580 OFFCURVE",
"186 605 CURVE SMOOTH",
"186 632 OFFCURVE",
"166 654 OFFCURVE",
"141 654 CURVE SMOOTH",
"115 654 OFFCURVE",
"95 632 OFFCURVE",
"95 605 CURVE SMOOTH",
"95 580 OFFCURVE",
"115 558 OFFCURVE",
"141 558 CURVE SMOOTH"
);
}
);
width = 216;
}
);
rightMetricsKey = i;
unicode = 006A;
},
{
color = 4;
glyphname = k;
lastChange = "2021-03-15 20:24:06 +0000";
layers = (
{
background = {
components = (
{
name = _part.fut;
transform = "{1, 0, 0, 1, 8, 0}";
}
);
hints = (
{
origin = "{0, 0}";
type = Corner;
name = _corner.ke;
}
);
paths = (
{
closed = 1;
nodes = (
"470 0 LINE",
"197 267 LINE {name = \"🧨\";}",
"115 253 LINE",
"105 235 LINE",
"155 235 LINE",
"379 0 LINE"
);
},
{
closed = 1;
nodes = (
"182 248 LINE",
"421 444 LINE",
"421 456 LINE",
"388 455 OFFCURVE",
"367 454 OFFCURVE",
"338 451 CURVE",
"264 365 OFFCURVE",
"213 315 OFFCURVE",
"128 242 CURVE"
);
}
);
};
components = (
{
name = _part.fut;
transform = "{1, 0, 0, 1, 8, 0}";
}
);
hints = (
{
origin = "{0, 0}";
type = Corner;
name = _corner.ke;
}
);
layerId = "A2204D38-078E-49A4-B70C-87904FFF8E34";
paths = (
{
closed = 1;
nodes = (
"470 0 LINE",
"197 267 LINE {name = \"🧨\";}",
"115 253 LINE",
"105 235 LINE",
"155 235 LINE",
"379 0 LINE"
);
},
{
closed = 1;
nodes = (
"182 248 LINE",
"409 434 LINE",
"406 436 LINE",
"373 436 OFFCURVE",
"350 436 OFFCURVE",
"324 436 CURVE",
"250 350 OFFCURVE",
"213 315 OFFCURVE",
"128 242 CURVE"
);
}
);
width = 470;
},
{
background = {
anchors = (
{
name = _connect;
position = "{177, 0}";
}
);
paths = (
{
closed = 1;
nodes = (
"238 269 LINE",
"465 454 LINE",
"465 466 LINE",
"432 458 OFFCURVE",
"413 450 OFFCURVE",
"384 461 CURVE",
"316 382 OFFCURVE",
"258 325 OFFCURVE",
"183 259 CURVE",
"168 256 LINE",
"168 762 LINE",
"108 762 LINE",
"108 0 LINE",
"168 0 LINE",
"168 235 LINE",
"189 235 LINE",
"423 -11 LINE",
"532 26 LINE",
"528 45 LINE",
"463 40 LINE"
);
}
);
};
backgroundImage = {
crop = "{{0, 0}, {305.16, 367}}";
imagePath = "img/05 Page 3.png";
locked = "1";
transform = "{42.083, 0, 0, 42.083, -6099, -10272}";
};
components = (
{
name = _part.fut;
transform = "{1, 0, 0, 1, 42, 0}";
}
);
hints = (
{
origin = "{0, 0}";
type = Corner;
name = _corner.ke;
}
);
layerId = "3EDEE92B-4D9D-4D9A-9438-63C2E33416C1";
paths = (
{
closed = 1;
nodes = (
"509 -6 LINE",
"231 267 LINE {name = \"🧨\";}",
"149 253 LINE",
"139 235 LINE",
"189 235 LINE",
"423 -11 LINE"
);
},
{
closed = 1;
nodes = (
"213 248 LINE",
"452 444 LINE",
"452 456 LINE",
"418 448 OFFCURVE",
"397 447 OFFCURVE",
"369 451 CURVE",
"295 365 OFFCURVE",
"244 315 OFFCURVE",
"159 242 CURVE"
);
}
);
width = 531;
}
);
leftMetricsKey = n;
rightMetricsKey = r;
unicode = 006B;
},
{
color = 4;
glyphname = m;
lastChange = "2021-03-13 15:19:56 +0000";
layers = (
{
hints = (
{
origin = "{0, 0}";
scale = "{-1, 1}";
type = Corner;
name = _corner.leftSerif;
},
{
origin = "{0, 15}";
scale = "{0.4, 1}";
type = Corner;
name = _corner.leftSerif;
},
{
origin = "{1, 0}";
scale = "{-1, 1}";
type = Corner;
name = _corner.leftSerif;
},
{
origin = "{1, 2}";
type = Corner;
name = _corner.topLeft;
},
{
origin = "{1, 3}";
type = Corner;
name = _corner.leftSerif;
},
{
origin = "{2, 0}";
scale = "{-1, 1}";
type = Corner;
name = _corner.leftSerif;
}
);
layerId = "A2204D38-078E-49A4-B70C-87904FFF8E34";
paths = (
{
closed = 1;
nodes = (
"409 0 LINE",
"409 261 LINE SMOOTH",
"409 383 OFFCURVE",
"382 448 OFFCURVE",
"263 448 CURVE SMOOTH",
"216 448 OFFCURVE",
"216 444 OFFCURVE",
"75 326 CURVE",
"85 220 LINE",
"108 286 OFFCURVE",
"146 394 OFFCURVE",
"257 394 CURVE SMOOTH",
"320 394 OFFCURVE",
"349 359 OFFCURVE",
"349 253 CURVE SMOOTH",
"349 0 LINE"
);
},
{
closed = 1;
nodes = (
"134 0 LINE",
"134 448 LINE",
"74 448 LINE",
"74 0 LINE"
);
},
{
closed = 1;
nodes = (
"702 0 LINE",
"702 261 LINE SMOOTH",
"702 383 OFFCURVE",
"682 448 OFFCURVE",
"555 448 CURVE SMOOTH",
"508 448 OFFCURVE",
"508 444 OFFCURVE",
"367 326 CURVE",
"377 220 LINE",
"400 286 OFFCURVE",
"448 394 OFFCURVE",
"525 394 CURVE SMOOTH",
"614 394 OFFCURVE",
"642 346 OFFCURVE",
"642 253 CURVE SMOOTH",
"642 0 LINE"
);
}
);
width = 756;
},
{
backgroundImage = {
crop = "{{0, 0}, {305.16, 367}}";
imagePath = "img/05 Page 3.png";
locked = "1";
transform = "{42.083, 0, 0, 42.083, -6907, -10263}";
};
guideLines = (
{
angle = 40;
position = "{183, 391}";
},
{
angle = 40;
position = "{433, 354}";
}
);
hints = (
{
origin = "{0, 0}";
scale = "{-1, 1}";
type = Corner;
name = _corner.leftSerif;
},
{
origin = "{0, 15}";
scale = "{0.4, 1}";
type = Corner;
name = _corner.leftSerif;
},
{
origin = "{1, 0}";
scale = "{-1, 1}";
type = Corner;
name = _corner.leftSerif;
},
{
origin = "{1, 2}";
type = Corner;
name = _corner.topLeft;
},
{
origin = "{1, 3}";
type = Corner;
name = _corner.leftSerif;
},
{
origin = "{2, 0}";
scale = "{-1, 1}";
type = Corner;
name = _corner.leftSerif;
}
);
layerId = "3EDEE92B-4D9D-4D9A-9438-63C2E33416C1";
paths = (
{
closed = 1;
nodes = (
"443 0 LINE",
"443 261 LINE SMOOTH",
"443 383 OFFCURVE",
"416 448 OFFCURVE",
"297 448 CURVE SMOOTH",
"250 448 OFFCURVE",
"250 444 OFFCURVE",
"109 326 CURVE",
"119 220 LINE",
"142 286 OFFCURVE",
"180 394 OFFCURVE",
"291 394 CURVE SMOOTH",
"354 394 OFFCURVE",
"383 359 OFFCURVE",
"383 253 CURVE SMOOTH",
"383 0 LINE"
);
},
{
closed = 1;
nodes = (
"168 0 LINE",
"168 448 LINE",
"108 448 LINE",
"108 0 LINE"
);
},
{
closed = 1;
nodes = (
"736 0 LINE",
"736 261 LINE SMOOTH",
"736 383 OFFCURVE",
"716 448 OFFCURVE",
"589 448 CURVE SMOOTH",
"542 448 OFFCURVE",
"542 444 OFFCURVE",
"401 326 CURVE",
"411 220 LINE",
"434 286 OFFCURVE",
"482 394 OFFCURVE",
"559 394 CURVE SMOOTH",
"648 394 OFFCURVE",
"676 346 OFFCURVE",
"676 253 CURVE SMOOTH",
"676 0 LINE"
);
}
);
width = 828;
}
);
leftMetricsKey = n;
rightMetricsKey = n;
unicode = 006D;
},
{
color = 4;
glyphname = n;
lastChange = "2021-03-13 15:13:56 +0000";
layers = (
{
guideLines = (
{
angle = 40;
position = "{149, 409}";
}
);
hints = (
{
origin = "{0, 0}";
scale = "{-1, 1}";
type = Corner;
name = _corner.leftSerif;
},
{
origin = "{0, 15}";
scale = "{0.4, 1}";
type = Corner;
name = _corner.leftSerif;
},
{
origin = "{1, 0}";
scale = "{-1, 1}";
type = Corner;
name = _corner.leftSerif;
},
{
origin = "{1, 2}";
type = Corner;
name = _corner.topLeft;
},
{
origin = "{1, 3}";
type = Corner;
name = _corner.leftSerif;
}
);
layerId = "A2204D38-078E-49A4-B70C-87904FFF8E34";
paths = (
{
closed = 1;
nodes = (
"429 0 LINE",
"429 261 LINE SMOOTH",
"429 373 OFFCURVE",
"402 448 OFFCURVE",
"283 448 CURVE SMOOTH",
"236 448 OFFCURVE",
"236 444 OFFCURVE",
"95 326 CURVE",
"95 230 LINE",
"108 266 OFFCURVE",
"166 394 OFFCURVE",
"257 394 CURVE SMOOTH",
"330 394 OFFCURVE",
"369 358 OFFCURVE",
"369 253 CURVE SMOOTH",
"369 0 LINE"
);
},
{
closed = 1;
nodes = (
"134 0 LINE",
"134 436 LINE",
"74 436 LINE",
"74 0 LINE"
);
}
);
width = 483;
},
{
background = {
hints = (
{
origin = "{0, 3}";
type = Corner;
name = _corner.leftSerif;
},
{
origin = "{0, 4}";
scale = "{-1, 1}";
type = Corner;
name = _corner.leftSerif;
}
);
paths = (
{
closed = 1;
nodes = (
"34 465 LINE",
"34 442 LINE",
"104 438 LINE",
"104 0 LINE",
"173 0 LINE",
"173 485 LINE"
);
}
);
};
backgroundImage = {
crop = "{{0, 0}, {305.16, 367}}";
imagePath = "img/05 Page 3.png";
locked = "1";
transform = "{42.083, 0, 0, 42.083, -7733, -10263}";
};
guideLines = (
{
angle = 40;
position = "{183, 371}";
}
);
hints = (
{
origin = "{1, 3}";
type = Corner;
name = _corner.leftSerif;
},
{
origin = "{1, 2}";
type = Corner;
name = _corner.topLeft;
},
{
origin = "{0, 15}";
scale = "{0.4, 1}";
type = Corner;
name = _corner.leftSerif;
},
{
origin = "{0, 0}";
scale = "{-1, 1}";
type = Corner;
name = _corner.leftSerif;
},
{
origin = "{1, 0}";
scale = "{-1, 1}";
type = Corner;
name = _corner.leftSerif;
}
);
layerId = "3EDEE92B-4D9D-4D9A-9438-63C2E33416C1";
paths = (
{
closed = 1;
nodes = (
"463 0 LINE",
"463 261 LINE SMOOTH",
"463 373 OFFCURVE",
"436 448 OFFCURVE",
"317 448 CURVE SMOOTH",
"270 448 OFFCURVE",
"270 445 OFFCURVE",
"129 326 CURVE",
"129 230 LINE",
"142 266 OFFCURVE",
"200 394 OFFCURVE",
"291 394 CURVE SMOOTH",
"364 394 OFFCURVE",
"403 358 OFFCURVE",
"403 253 CURVE SMOOTH",
"403 0 LINE"
);
},
{
closed = 1;
nodes = (
"168 0 LINE",
"168 448 LINE",
"108 448 LINE",
"108 0 LINE"
);
}
);
width = 555;
}
);
unicode = 006E;
},
{
color = 4;
glyphname = o;
lastChange = "2021-03-11 16:19:29 +0000";
layers = (
{
guideLines = (
{
angle = 90;
position = "{275, 604}";
}
);
layerId = "A2204D38-078E-49A4-B70C-87904FFF8E34";
paths = (
{
closed = 1;
nodes = (
"384 -12 OFFCURVE",
"488 88 OFFCURVE",
"488 231 CURVE SMOOTH",
"488 370 OFFCURVE",
"416 448 OFFCURVE",
"282 448 CURVE SMOOTH",
"154 448 OFFCURVE",
"42 346 OFFCURVE",
"42 206 CURVE SMOOTH",
"42 41 OFFCURVE",
"154 -12 OFFCURVE",
"251 -12 CURVE SMOOTH"
);
},
{
closed = 1;
nodes = (
"180 22 OFFCURVE",
"108 112 OFFCURVE",
"108 221 CURVE SMOOTH",
"108 351 OFFCURVE",
"175 416 OFFCURVE",
"269 416 CURVE SMOOTH",
"342 416 OFFCURVE",
"422 358 OFFCURVE",
"422 203 CURVE SMOOTH",
"422 91 OFFCURVE",
"357 22 OFFCURVE",
"268 22 CURVE SMOOTH"
);
}
);
width = 530;
},
{
associatedMasterId = "A2204D38-078E-49A4-B70C-87904FFF8E34";
backgroundImage = {
crop = "{{0, 0}, {29.329, 35.339}}";
imagePath = letters/oooo.tif;
locked = "1";
transform = "{23.43353, 0, 0, 23.43353, -91, -196}";
};
layerId = "2281934C-8464-4B17-8387-0B8969141099";
name = "Oct 15 20, 15:55";
paths = (
{
closed = 1;
nodes = (
"387 -10 OFFCURVE",
"543 83 OFFCURVE",
"543 272 CURVE SMOOTH",
"543 432 OFFCURVE",
"447 510 OFFCURVE",
"309 510 CURVE SMOOTH",
"150 510 OFFCURVE",
"35 388 OFFCURVE",
"35 231 CURVE SMOOTH",
"35 84 OFFCURVE",
"154 -10 OFFCURVE",
"269 -10 CURVE SMOOTH"
);
},
{
closed = 1;
nodes = (
"182 30 OFFCURVE",
"116 151 OFFCURVE",
"116 273 CURVE SMOOTH",
"116 377 OFFCURVE",
"172 475 OFFCURVE",
"292 475 CURVE SMOOTH",
"409 475 OFFCURVE",
"470 368 OFFCURVE",
"470 227 CURVE SMOOTH",
"470 123 OFFCURVE",
"409 30 OFFCURVE",
"303 30 CURVE SMOOTH"
);
}
);
width = 578;
},
{
backgroundImage = {
crop = "{{0, 0}, {305.16, 367}}";
imagePath = "img/05 Page 3.png";
locked = "1";
transform = "{42.083, 0, 0, 42.083, -8313, -10263}";
};
guideLines = (
{
angle = -0.4835;
position = "{136, 221}";
},
{
angle = 90;
position = "{278, 340}";
},
{
angle = 90;
position = "{247, 340}";
},
{
angle = -0.4835;
position = "{136, 205}";
},
{
angle = -0.4835;
position = "{390, 232}";
}
);
layerId = "3EDEE92B-4D9D-4D9A-9438-63C2E33416C1";
paths = (
{
closed = 1;
nodes = (
"380 -12 OFFCURVE",
"484 88 OFFCURVE",
"484 231 CURVE SMOOTH",
"484 370 OFFCURVE",
"412 448 OFFCURVE",
"278 448 CURVE SMOOTH",
"150 448 OFFCURVE",
"38 346 OFFCURVE",
"38 206 CURVE SMOOTH",
"38 41 OFFCURVE",
"150 -12 OFFCURVE",
"247 -12 CURVE SMOOTH"
);
},
{
closed = 1;
nodes = (
"176 22 OFFCURVE",
"104 112 OFFCURVE",
"104 221 CURVE SMOOTH",
"104 351 OFFCURVE",
"171 416 OFFCURVE",
"265 416 CURVE SMOOTH",
"338 416 OFFCURVE",
"418 358 OFFCURVE",
"418 203 CURVE SMOOTH",
"418 91 OFFCURVE",
"353 22 OFFCURVE",
"264 22 CURVE SMOOTH"
);
}
);
width = 522;
},
{
associatedMasterId = "3EDEE92B-4D9D-4D9A-9438-63C2E33416C1";
backgroundImage = {
crop = "{{0, 0}, {29.329, 35.339}}";
imagePath = letters/oooo.tif;
locked = "1";
transform = "{23.43353, 0, 0, 23.43353, -91, -196}";
};
layerId = "E782AF22-3249-4EA2-A84D-A9D5CF23617F";
name = "Oct 15 20, 15:55";
paths = (
{
closed = 1;
nodes = (
"387 -10 OFFCURVE",
"543 83 OFFCURVE",
"543 272 CURVE SMOOTH",
"543 432 OFFCURVE",
"447 510 OFFCURVE",
"309 510 CURVE SMOOTH",
"150 510 OFFCURVE",
"35 388 OFFCURVE",
"35 231 CURVE SMOOTH",
"35 84 OFFCURVE",
"154 -10 OFFCURVE",
"269 -10 CURVE SMOOTH"
);
},
{
closed = 1;
nodes = (
"182 30 OFFCURVE",
"116 151 OFFCURVE",
"116 273 CURVE SMOOTH",
"116 377 OFFCURVE",
"172 475 OFFCURVE",
"292 475 CURVE SMOOTH",
"409 475 OFFCURVE",
"470 368 OFFCURVE",
"470 227 CURVE SMOOTH",
"470 123 OFFCURVE",
"409 30 OFFCURVE",
"303 30 CURVE SMOOTH"
);
}
);
width = 578;
}
);
unicode = 006F;
},
{
color = 4;
glyphname = p;
lastChange = "2021-03-08 18:21:41 +0000";
layers = (
{
hints = (
{
origin = "{1, 2}";
type = Corner;
name = _corner.topLeft;
},
{
origin = "{1, 3}";
type = Corner;
name = _corner.pop;
}
);
layerId = "A2204D38-078E-49A4-B70C-87904FFF8E34";
paths = (
{
closed = 1;
nodes = (
"310 -12 OFFCURVE",
"478 100 OFFCURVE",
"478 242 CURVE SMOOTH",
"478 386 OFFCURVE",
"413 448 OFFCURVE",
"282 448 CURVE SMOOTH",
"251 448 OFFCURVE",
"210 416 OFFCURVE",
"114 319 CURVE",
"134 212 LINE {name = \"🧨\";}",
"139 347 OFFCURVE",
"212 392 OFFCURVE",
"273 392 CURVE SMOOTH",
"353 392 OFFCURVE",
"418 337 OFFCURVE",
"418 212 CURVE SMOOTH",
"418 160 OFFCURVE",
"375 29 OFFCURVE",
"240 29 CURVE SMOOTH",
"183 29 OFFCURVE",
"153 57 OFFCURVE",
"114 105 CURVE",
"89 56 LINE",
"127 19 OFFCURVE",
"161 -12 OFFCURVE",
"225 -12 CURVE SMOOTH"
);
},
{
closed = 1;
nodes = (
"134 -207 LINE",
"134 436 LINE",
"74 436 LINE",
"74 -207 LINE"
);
}
);
width = 520;
},
{
backgroundImage = {
crop = "{{0, 0}, {305.16, 367}}";
imagePath = "img/05 Page 3.png";
locked = "1";
transform = "{42.083, 0, 0, 42.083, -8837, -10266}";
};
hints = (
{
origin = "{1, 2}";
type = Corner;
name = _corner.topLeft;
},
{
origin = "{1, 3}";
type = Corner;
name = _corner.pop;
}
);
layerId = "3EDEE92B-4D9D-4D9A-9438-63C2E33416C1";
paths = (
{
closed = 1;
nodes = (
"332 -12 OFFCURVE",
"503 90 OFFCURVE",
"503 242 CURVE SMOOTH",
"503 377 OFFCURVE",
"433 448 OFFCURVE",
"306 448 CURVE SMOOTH",
"275 448 OFFCURVE",
"234 416 OFFCURVE",
"138 319 CURVE",
"158 212 LINE {name = \"🧨\";}",
"163 347 OFFCURVE",
"236 392 OFFCURVE",
"297 392 CURVE SMOOTH",
"377 392 OFFCURVE",
"442 337 OFFCURVE",
"442 212 CURVE SMOOTH",
"442 160 OFFCURVE",
"399 29 OFFCURVE",
"264 29 CURVE SMOOTH",
"207 29 OFFCURVE",
"177 57 OFFCURVE",
"138 105 CURVE",
"113 56 LINE",
"151 19 OFFCURVE",
"185 -12 OFFCURVE",
"249 -12 CURVE SMOOTH"
);
},
{
closed = 1;
nodes = (
"158 -197 LINE",
"158 448 LINE",
"98 448 LINE",
"98 -197 LINE"
);
}
);
width = 541;
}
);
leftMetricsKey = n;
rightMetricsKey = o;
unicode = 0070;
},
{
color = 4;
glyphname = q;
lastChange = "2021-03-06 12:05:37 +0000";
layers = (
{
hints = (
{
origin = "{1, 3}";
type = Corner;
name = _corner.pop;
},
{
origin = "{1, 1}";
type = Corner;
name = _corner.pop;
}
);
layerId = "A2204D38-078E-49A4-B70C-87904FFF8E34";
paths = (
{
closed = 1;
nodes = (
"275 -12 OFFCURVE",
"304 8 OFFCURVE",
"400 105 CURVE",
"380 195 LINE {name = \"🧨\";}",
"376 96 OFFCURVE",
"318 35 OFFCURVE",
"242 35 CURVE SMOOTH",
"178 35 OFFCURVE",
"101 112 OFFCURVE",
"103 213 CURVE SMOOTH",
"105 301 OFFCURVE",
"147 402 OFFCURVE",
"253 402 CURVE SMOOTH",
"342 402 OFFCURVE",
"372 363 OFFCURVE",
"406 315 CURVE",
"425 364 LINE",
"387 401 OFFCURVE",
"345 448 OFFCURVE",
"289 448 CURVE SMOOTH",
"208 448 OFFCURVE",
"42 369 OFFCURVE",
"42 211 CURVE SMOOTH",
"42 95 OFFCURVE",
"90 -12 OFFCURVE",
"212 -12 CURVE SMOOTH"
);
},
{
closed = 1;
nodes = (
"440 -227 LINE",
"440 436 LINE",
"380 436 LINE",
"380 -227 LINE"
);
}
);
width = 513;
},
{
backgroundImage = {
crop = "{{0, 0}, {305.16, 367}}";
imagePath = "img/05 Page 3.png";
locked = "1";
transform = "{42.083, 0, 0, 42.083, -9401, -10258}";
};
hints = (
{
origin = "{1, 1}";
type = Corner;
name = _corner.pop;
},
{
origin = "{1, 3}";
type = Corner;
name = _corner.pop;
}
);
layerId = "3EDEE92B-4D9D-4D9A-9438-63C2E33416C1";
paths = (
{
closed = 1;
nodes = (
"273 -12 OFFCURVE",
"302 2 OFFCURVE",
"398 113 CURVE",
"378 195 LINE {name = \"🧨\";}",
"374 96 OFFCURVE",
"319 35 OFFCURVE",
"240 36 CURVE SMOOTH",
"176 37 OFFCURVE",
"101 111 OFFCURVE",
"102 212 CURVE SMOOTH",
"103 311 OFFCURVE",
"148 405 OFFCURVE",
"248 405 CURVE SMOOTH",
"346 405 OFFCURVE",
"391 346 OFFCURVE",
"409 315 CURVE",
"419 368 LINE",
"381 405 OFFCURVE",
"343 448 OFFCURVE",
"294 448 CURVE SMOOTH",
"176 448 OFFCURVE",
"38 344 OFFCURVE",
"38 195 CURVE SMOOTH",
"38 80 OFFCURVE",
"102 -12 OFFCURVE",
"210 -12 CURVE SMOOTH"
);
},
{
closed = 1;
nodes = (
"438 -227 LINE",
"438 431 LINE",
"378 426 LINE",
"378 -227 LINE"
);
}
);
width = 494;
}
);
leftMetricsKey = o;
rightMetricsKey = n;
unicode = 0071;
},
{
color = 4;
glyphname = r;
lastChange = "2021-03-13 16:14:12 +0000";
layers = (
{
background = {
hints = (
{
origin = "{0, 0}";
scale = "{-1, 1}";
type = Corner;
name = _corner.leftSerif;
},
{
origin = "{0, 15}";
scale = "{0.4, 1}";
type = Corner;
name = _corner.leftSerif;
},
{
origin = "{1, 0}";
scale = "{-1, 1}";
type = Corner;
name = _corner.leftSerif;
},
{
origin = "{1, 2}";
type = Corner;
name = _corner.topLeft;
},
{
origin = "{1, 3}";
type = Corner;
name = _corner.leftSerif;
}
);
paths = (
{
closed = 1;
nodes = (
"429 0 LINE",
"429 261 LINE SMOOTH",
"429 373 OFFCURVE",
"402 448 OFFCURVE",
"283 448 CURVE SMOOTH",
"236 448 OFFCURVE",
"236 444 OFFCURVE",
"95 326 CURVE",
"95 230 LINE",
"108 266 OFFCURVE",
"166 394 OFFCURVE",
"257 394 CURVE SMOOTH",
"330 394 OFFCURVE",
"369 358 OFFCURVE",
"369 253 CURVE SMOOTH",
"369 0 LINE"
);
},
{
closed = 1;
nodes = (
"134 0 LINE",
"134 436 LINE",
"74 436 LINE",
"74 0 LINE"
);
}
);
};
guideLines = (
{
angle = 40;
position = "{183, 401}";
}
);
hints = (
{
origin = "{0, 0}";
type = Corner;
name = _corner.rightSerif;
},
{
origin = "{0, 2}";
type = Corner;
name = _corner.topLeft;
},
{
origin = "{0, 3}";
type = Corner;
name = _corner.leftSerif;
}
);
layerId = "A2204D38-078E-49A4-B70C-87904FFF8E34";
paths = (
{
closed = 1;
nodes = (
"134 0 LINE",
"134 448 LINE",
"74 448 LINE",
"74 0 LINE"
);
},
{
closed = 1;
nodes = (
"134 333 OFFCURVE",
"189 381 OFFCURVE",
"222 381 CURVE SMOOTH",
"245 381 OFFCURVE",
"256 374 OFFCURVE",
"265 365 CURVE",
"269 365 LINE",
"291 388 OFFCURVE",
"309 402 OFFCURVE",
"328 418 CURVE",
"326 422 LINE",
"317 433 OFFCURVE",
"301 448 OFFCURVE",
"271 448 CURVE SMOOTH",
"236 448 OFFCURVE",
"236 444 OFFCURVE",
"119 347 CURVE",
"134 268 LINE"
);
}
);
width = 328;
},
{
background = {
hints = (
{
origin = "{0, 0}";
type = Corner;
name = _corner.rightSerif;
},
{
origin = "{0, 2}";
type = Corner;
name = _corner.topLeft;
},
{
origin = "{0, 3}";
type = Corner;
name = _corner.leftSerif;
}
);
paths = (
{
closed = 1;
nodes = (
"168 0 LINE",
"168 448 LINE",
"108 448 LINE",
"108 0 LINE"
);
},
{
closed = 1;
nodes = (
"168 333 OFFCURVE",
"223 381 OFFCURVE",
"256 381 CURVE SMOOTH",
"279 381 OFFCURVE",
"290 374 OFFCURVE",
"299 365 CURVE",
"303 365 LINE",
"325 388 OFFCURVE",
"343 402 OFFCURVE",
"362 418 CURVE",
"360 422 LINE",
"351 433 OFFCURVE",
"335 448 OFFCURVE",
"305 448 CURVE SMOOTH",
"270 448 OFFCURVE",
"270 444 OFFCURVE",
"153 347 CURVE",
"168 268 LINE"
);
}
);
};
backgroundImage = {
crop = "{{0, 0}, {305.16, 367}}";
imagePath = "img/05 Page 3.png";
locked = "1";
transform = "{42.083, 0, 0, 42.083, -9913, -10262}";
};
guideLines = (
{
angle = 40;
position = "{183, 371}";
}
);
hints = (
{
origin = "{0, 3}";
type = Corner;
name = _corner.leftSerif;
},
{
origin = "{0, 0}";
type = Corner;
name = _corner.rightSerif;
},
{
origin = "{0, 2}";
type = Corner;
name = _corner.topLeft;
}
);
layerId = "3EDEE92B-4D9D-4D9A-9438-63C2E33416C1";
paths = (
{
closed = 1;
nodes = (
"168 0 LINE",
"168 448 LINE",
"108 448 LINE",
"108 0 LINE"
);
},
{
closed = 1;
nodes = (
"168 333 OFFCURVE",
"223 381 OFFCURVE",
"256 381 CURVE SMOOTH",
"297 381 OFFCURVE",
"312 352 OFFCURVE",
"321 336 CURVE",
"333 339 LINE",
"340 372 OFFCURVE",
"351 397 OFFCURVE",
"362 418 CURVE",
"360 422 LINE",
"351 433 OFFCURVE",
"335 448 OFFCURVE",
"305 448 CURVE SMOOTH",
"270 448 OFFCURVE",
"270 444 OFFCURVE",
"153 347 CURVE",
"168 268 LINE"
);
}
);
width = 362;
}
);
leftMetricsKey = n;
unicode = 0072;
},
{
color = 4;
glyphname = s;
lastChange = "2021-03-06 12:05:37 +0000";
layers = (
{
background = {
paths = (
{
closed = 1;
nodes = (
"364 222 OFFCURVE",
"335 257 OFFCURVE",
"280 257 CURVE SMOOTH",
"243 257 OFFCURVE",
"213 247 OFFCURVE",
"187 247 CURVE SMOOTH",
"136 247 OFFCURVE",
"109 274 OFFCURVE",
"109 317 CURVE SMOOTH",
"109 370 OFFCURVE",
"146 407 OFFCURVE",
"221 407 CURVE SMOOTH",
"259 407 OFFCURVE",
"306 381 OFFCURVE",
"314 369 CURVE",
"321 327 LINE",
"324 327 OFFCURVE",
"347 330 OFFCURVE",
"351 330 CURVE",
"348 349 OFFCURVE",
"351 384 OFFCURVE",
"356 410 CURVE",
"336 427 OFFCURVE",
"286 448 OFFCURVE",
"242 448 CURVE SMOOTH",
"149 448 OFFCURVE",
"57 387 OFFCURVE",
"57 286 CURVE SMOOTH",
"57 210 OFFCURVE",
"112 189 OFFCURVE",
"153 189 CURVE SMOOTH",
"187 189 OFFCURVE",
"214 197 OFFCURVE",
"243 197 CURVE SMOOTH",
"292 197 OFFCURVE",
"317 166 OFFCURVE",
"317 125 CURVE SMOOTH",
"317 68 OFFCURVE",
"264 28 OFFCURVE",
"207 28 CURVE SMOOTH",
"148 28 OFFCURVE",
"103 48 OFFCURVE",
"79 84 CURVE",
"65 79 LINE",
"68 48 OFFCURVE",
"65 34 OFFCURVE",
"57 26 CURVE",
"78 9 OFFCURVE",
"118 -12 OFFCURVE",
"178 -12 CURVE SMOOTH",
"286 -12 OFFCURVE",
"364 61 OFFCURVE",
"364 165 CURVE SMOOTH"
);
}
);
};
layerId = "A2204D38-078E-49A4-B70C-87904FFF8E34";
paths = (
{
closed = 1;
nodes = (
"287 -12 OFFCURVE",
"365 61 OFFCURVE",
"365 165 CURVE SMOOTH",
"365 222 OFFCURVE",
"336 257 OFFCURVE",
"281 257 CURVE SMOOTH",
"244 257 OFFCURVE",
"214 247 OFFCURVE",
"188 247 CURVE SMOOTH",
"137 247 OFFCURVE",
"110 274 OFFCURVE",
"110 317 CURVE SMOOTH",
"110 370 OFFCURVE",
"147 407 OFFCURVE",
"222 407 CURVE SMOOTH",
"279 407 OFFCURVE",
"317 371 OFFCURVE",
"325 359 CURVE",
"332 359 LINE",
"341 370 OFFCURVE",
"362 406 OFFCURVE",
"365 407 CURVE",
"365 411 OFFCURVE",
"365 414 OFFCURVE",
"366 417 CURVE",
"346 434 OFFCURVE",
"287 448 OFFCURVE",
"243 448 CURVE SMOOTH",
"150 448 OFFCURVE",
"58 387 OFFCURVE",
"58 286 CURVE SMOOTH",
"58 210 OFFCURVE",
"113 189 OFFCURVE",
"154 189 CURVE SMOOTH",
"188 189 OFFCURVE",
"215 197 OFFCURVE",
"244 197 CURVE SMOOTH",
"293 197 OFFCURVE",
"318 166 OFFCURVE",
"318 125 CURVE SMOOTH",
"318 68 OFFCURVE",
"265 28 OFFCURVE",
"208 28 CURVE SMOOTH",
"149 28 OFFCURVE",
"112 56 OFFCURVE",
"88 92 CURVE",
"84 93 LINE",
"74 84 OFFCURVE",
"43 66 OFFCURVE",
"34 62 CURVE",
"34 59 LINE",
"54 10 OFFCURVE",
"118 -12 OFFCURVE",
"179 -12 CURVE SMOOTH"
);
}
);
width = 400;
},
{
background = {
paths = (
{
closed = 1;
nodes = (
"342 222 OFFCURVE",
"313 257 OFFCURVE",
"258 257 CURVE SMOOTH",
"221 257 OFFCURVE",
"191 247 OFFCURVE",
"165 247 CURVE SMOOTH",
"114 247 OFFCURVE",
"87 274 OFFCURVE",
"87 317 CURVE SMOOTH",
"87 370 OFFCURVE",
"124 407 OFFCURVE",
"199 407 CURVE SMOOTH",
"237 407 OFFCURVE",
"284 381 OFFCURVE",
"292 369 CURVE",
"299 327 LINE",
"302 327 OFFCURVE",
"325 330 OFFCURVE",
"329 330 CURVE",
"326 349 OFFCURVE",
"329 384 OFFCURVE",
"334 410 CURVE",
"314 427 OFFCURVE",
"264 448 OFFCURVE",
"220 448 CURVE SMOOTH",
"127 448 OFFCURVE",
"35 387 OFFCURVE",
"35 286 CURVE SMOOTH",
"35 210 OFFCURVE",
"90 189 OFFCURVE",
"131 189 CURVE SMOOTH",
"165 189 OFFCURVE",
"192 197 OFFCURVE",
"221 197 CURVE SMOOTH",
"270 197 OFFCURVE",
"295 166 OFFCURVE",
"295 125 CURVE SMOOTH",
"295 68 OFFCURVE",
"242 28 OFFCURVE",
"185 28 CURVE SMOOTH",
"126 28 OFFCURVE",
"81 48 OFFCURVE",
"57 84 CURVE",
"43 79 LINE",
"46 48 OFFCURVE",
"43 34 OFFCURVE",
"35 26 CURVE",
"56 9 OFFCURVE",
"96 -12 OFFCURVE",
"156 -12 CURVE SMOOTH",
"264 -12 OFFCURVE",
"342 61 OFFCURVE",
"342 165 CURVE SMOOTH"
);
}
);
};
backgroundImage = {
crop = "{{0, 0}, {305.16, 367}}";
imagePath = "img/05 Page 3.png";
locked = "1";
transform = "{42.083, 0, 0, 42.083, -10289, -10266}";
};
layerId = "3EDEE92B-4D9D-4D9A-9438-63C2E33416C1";
paths = (
{
closed = 1;
nodes = (
"264 -12 OFFCURVE",
"342 61 OFFCURVE",
"342 165 CURVE SMOOTH",
"342 222 OFFCURVE",
"313 257 OFFCURVE",
"258 257 CURVE SMOOTH",
"221 257 OFFCURVE",
"191 247 OFFCURVE",
"165 247 CURVE SMOOTH",
"114 247 OFFCURVE",
"87 274 OFFCURVE",
"87 317 CURVE SMOOTH",
"87 370 OFFCURVE",
"124 407 OFFCURVE",
"199 407 CURVE SMOOTH",
"237 407 OFFCURVE",
"284 381 OFFCURVE",
"292 369 CURVE",
"299 327 LINE",
"302 327 OFFCURVE",
"325 330 OFFCURVE",
"329 330 CURVE",
"326 349 OFFCURVE",
"329 384 OFFCURVE",
"334 410 CURVE",
"314 427 OFFCURVE",
"264 448 OFFCURVE",
"220 448 CURVE SMOOTH",
"127 448 OFFCURVE",
"35 387 OFFCURVE",
"35 286 CURVE SMOOTH",
"35 210 OFFCURVE",
"90 189 OFFCURVE",
"131 189 CURVE SMOOTH",
"165 189 OFFCURVE",
"192 197 OFFCURVE",
"221 197 CURVE SMOOTH",
"270 197 OFFCURVE",
"295 166 OFFCURVE",
"295 125 CURVE SMOOTH",
"295 68 OFFCURVE",
"242 28 OFFCURVE",
"185 28 CURVE SMOOTH",
"126 28 OFFCURVE",
"81 48 OFFCURVE",
"57 84 CURVE",
"43 79 LINE",
"46 52 OFFCURVE",
"44 37 OFFCURVE",
"38 29 CURVE",
"37 25 LINE",
"58 8 OFFCURVE",
"96 -12 OFFCURVE",
"156 -12 CURVE SMOOTH"
);
}
);
width = 376;
}
);
unicode = 0073;
},
{
color = 4;
glyphname = t;
lastChange = "2021-03-13 15:34:16 +0000";
layers = (
{
backgroundImage = {
crop = "{{0, 0}, {584.826, 615}}";
imagePath = 43107733732_e84851c66c_5k.jpg;
locked = "1";
transform = "{37.925, 0, 0, 37.925, -17878, -13383}";
};
hints = (
{
origin = "{1, 4}";
scale = "{0.7, 1}";
type = Corner;
name = _corner.piek;
}
);
layerId = "A2204D38-078E-49A4-B70C-87904FFF8E34";
paths = (
{
closed = 1;
nodes = (
"244 -12 OFFCURVE",
"278 19 OFFCURVE",
"285 27 CURVE",
"278 47 LINE",
"275 47 LINE",
"272 45 OFFCURVE",
"254 36 OFFCURVE",
"233 36 CURVE SMOOTH",
"178 36 OFFCURVE",
"168 58 OFFCURVE",
"168 166 CURVE SMOOTH",
"168 619 LINE",
"161 620 LINE",
"108 589 LINE",
"108 85 LINE SMOOTH",
"108 18 OFFCURVE",
"147 -12 OFFCURVE",
"191 -12 CURVE SMOOTH"
);
},
{
closed = 1;
nodes = (
"298 367 LINE",
"316 413 LINE",
"313 417 LINE",
"108 417 LINE",
"108 367 LINE"
);
}
);
width = 316;
},
{
backgroundImage = {
crop = "{{0, 0}, {305.16, 367}}";
imagePath = "img/05 Page 3.png";
locked = "1";
transform = "{42.083, 0, 0, 42.083, -10674, -10266}";
};
hints = (
{
origin = "{1, 4}";
scale = "{0.7, 1}";
type = Corner;
name = _corner.piek;
}
);
layerId = "3EDEE92B-4D9D-4D9A-9438-63C2E33416C1";
paths = (
{
closed = 1;
nodes = (
"229 -12 OFFCURVE",
"263 19 OFFCURVE",
"270 27 CURVE",
"263 47 LINE",
"260 47 LINE",
"257 45 OFFCURVE",
"239 36 OFFCURVE",
"218 36 CURVE SMOOTH",
"163 36 OFFCURVE",
"153 58 OFFCURVE",
"153 166 CURVE SMOOTH",
"153 619 LINE",
"146 620 LINE",
"93 589 LINE",
"93 85 LINE SMOOTH",
"93 18 OFFCURVE",
"132 -12 OFFCURVE",
"176 -12 CURVE SMOOTH"
);
},
{
closed = 1;
nodes = (
"283 367 LINE",
"301 413 LINE",
"298 417 LINE",
"93 417 LINE",
"93 367 LINE"
);
}
);
width = 301;
}
);
leftMetricsKey = h;
rightMetricsKey = r;
unicode = 0074;
},
{
color = 4;
glyphname = u;
lastChange = "2021-03-06 12:05:37 +0000";
layers = (
{
hints = (
{
origin = "{1, 0}";
type = Corner;
name = _corner.rightSerif;
},
{
origin = "{1, 2}";
type = Corner;
name = _corner.topLeft;
},
{
origin = "{0, 11}";
type = Corner;
name = _corner.topLeft;
}
);
layerId = "A2204D38-078E-49A4-B70C-87904FFF8E34";
paths = (
{
closed = 1;
nodes = (
"275 -12 OFFCURVE",
"349 92 OFFCURVE",
"382 126 CURVE",
"376 171 LINE",
"330 105 OFFCURVE",
"291 43 OFFCURVE",
"229 43 CURVE SMOOTH",
"157 43 OFFCURVE",
"134 72 OFFCURVE",
"134 211 CURVE SMOOTH",
"134 436 LINE",
"74 436 LINE",
"74 133 LINE SMOOTH",
"74 43 OFFCURVE",
"105 -12 OFFCURVE",
"196 -12 CURVE SMOOTH"
);
},
{
closed = 1;
nodes = (
"426 0 LINE",
"426 436 LINE",
"366 436 LINE",
"366 0 LINE"
);
}
);
width = 480;
},
{
backgroundImage = {
crop = "{{0, 0}, {305.16, 367}}";
imagePath = "img/05 Page 3.png";
locked = "1";
transform = "{42.083, 0, 0, 42.083, -1516, -7072}";
};
hints = (
{
origin = "{1, 0}";
type = Corner;
name = _corner.rightSerif;
},
{
origin = "{0, 11}";
type = Corner;
name = _corner.topLeft;
},
{
origin = "{1, 2}";
type = Corner;
name = _corner.topLeft;
}
);
layerId = "3EDEE92B-4D9D-4D9A-9438-63C2E33416C1";
paths = (
{
closed = 1;
nodes = (
"299 -12 OFFCURVE",
"373 92 OFFCURVE",
"406 126 CURVE",
"400 171 LINE",
"354 105 OFFCURVE",
"315 43 OFFCURVE",
"253 43 CURVE SMOOTH",
"181 43 OFFCURVE",
"158 72 OFFCURVE",
"158 211 CURVE SMOOTH",
"158 436 LINE",
"98 436 LINE",
"98 133 LINE SMOOTH",
"98 43 OFFCURVE",
"129 -12 OFFCURVE",
"220 -12 CURVE SMOOTH"
);
},
{
closed = 1;
nodes = (
"450 0 LINE",
"450 436 LINE",
"390 436 LINE",
"390 0 LINE"
);
}
);
width = 542;
}
);
leftMetricsKey = n;
rightMetricsKey = n;
unicode = 0075;
},
{
color = 4;
glyphname = v;
lastChange = "2021-03-10 16:44:22 +0000";
layers = (
{
background = {
paths = (
{
closed = 1;
nodes = (
"397 399 LINE",
"461 418 LINE",
"461 436 LINE",
"279 436 LINE",
"279 416 LINE",
"355 399 LINE",
"222 79 LINE",
"215 79 LINE",
"91 399 LINE",
"119 418 LINE",
"119 436 LINE",
"-57 436 LINE",
"-57 416 LINE",
"27 399 LINE",
"182 -3 LINE",
"230 -3 LINE"
);
}
);
};
guideLines = (
{
angle = 111.9087;
position = "{126, 220}";
}
);
hints = (
{
origin = "{0, 5}";
scale = "{0.6, -1}";
type = Corner;
name = _corner.rightSerif;
options = 1;
},
{
origin = "{0, 6}";
scale = "{1, -1}";
type = Corner;
name = _corner.leftSerif;
},
{
origin = "{0, 1}";
scale = "{0.7, -1}";
type = Corner;
name = _corner.rightSerif;
options = 1;
},
{
origin = "{0, 2}";
scale = "{1.3, -1}";
type = Corner;
name = _corner.leftSerif;
}
);
layerId = "A2204D38-078E-49A4-B70C-87904FFF8E34";
paths = (
{
closed = 1;
nodes = (
"230 -3 LINE",
"412 436 LINE",
"370 436 LINE",
"222 79 LINE",
"215 79 LINE",
"77 436 LINE",
"13 436 LINE",
"182 -3 LINE"
);
}
);
width = 417;
},
{
associatedMasterId = "A2204D38-078E-49A4-B70C-87904FFF8E34";
backgroundImage = {
crop = "{{0, 0}, {140, 139}}";
imagePath = "../../Screenshot 2020-10-15 at 11.39.30.png";
locked = "1";
transform = "{4.75473, 0, 0, 4.75473, -100, -89}";
};
layerId = "931F6712-8DB6-4C5A-AEF2-3092C16EC71F";
name = "Oct 15 20, 11:40";
paths = (
{
closed = 1;
nodes = (
"232 92 LINE",
"413 500 LINE",
"466 500 LINE",
"237 0 LINE",
"188 0 LINE",
"10 500 LINE",
"82 500 LINE",
"219 92 LINE"
);
}
);
width = 491;
},
{
background = {
paths = (
{
closed = 1;
nodes = (
"459 399 LINE",
"523 418 LINE",
"523 436 LINE",
"341 436 LINE",
"341 416 LINE",
"417 399 LINE",
"284 79 LINE",
"277 79 LINE",
"153 399 LINE",
"181 418 LINE",
"181 436 LINE",
"5 436 LINE",
"5 416 LINE",
"89 399 LINE",
"244 -3 LINE",
"292 -3 LINE"
);
}
);
};
backgroundImage = {
crop = "{{0, 0}, {305.16, 367}}";
imagePath = "img/05 Page 3.png";
locked = "1";
transform = "{42.083, 0, 0, 42.083, -2060, -7074}";
};
hints = (
{
origin = "{0, 5}";
scale = "{0.6, -1}";
type = Corner;
name = _corner.rightSerif;
},
{
origin = "{0, 6}";
scale = "{1, -1}";
type = Corner;
name = _corner.leftSerif;
options = 1;
},
{
origin = "{0, 1}";
scale = "{0.7, -1}";
type = Corner;
name = _corner.rightSerif;
},
{
origin = "{0, 2}";
scale = "{1.3, -1}";
type = Corner;
name = _corner.leftSerif;
options = 1;
}
);
layerId = "3EDEE92B-4D9D-4D9A-9438-63C2E33416C1";
paths = (
{
closed = 1;
nodes = (
"292 -3 LINE",
"474 436 LINE",
"432 436 LINE",
"284 79 LINE",
"277 79 LINE",
"139 436 LINE",
"75 436 LINE",
"244 -3 LINE"
);
}
);
width = 525;
},
{
associatedMasterId = "3EDEE92B-4D9D-4D9A-9438-63C2E33416C1";
backgroundImage = {
crop = "{{0, 0}, {140, 139}}";
imagePath = "../../Screenshot 2020-10-15 at 11.39.30.png";
locked = "1";
transform = "{4.75473, 0, 0, 4.75473, -100, -89}";
};
layerId = "4043D0D9-D51B-4FF2-9F09-3F3E70E27D03";
name = "Oct 15 20, 11:40";
paths = (
{
closed = 1;
nodes = (
"232 92 LINE",
"413 500 LINE",
"466 500 LINE",
"237 0 LINE",
"188 0 LINE",
"10 500 LINE",
"82 500 LINE",
"219 92 LINE"
);
}
);
width = 491;
}
);
unicode = 0076;
},
{
color = 4;
glyphname = w;
lastChange = "2021-03-13 10:53:43 +0000";
layers = (
{
hints = (
{
origin = "{0, 0}";
scale = "{1.2, -1}";
type = Corner;
name = _corner.leftSerif;
},
{
origin = "{0, 8}";
scale = "{1, -1}";
type = Corner;
name = _corner.leftSerif;
},
{
origin = "{0, 14}";
scale = "{-0.8, -1}";
type = Corner;
name = _corner.leftSerif;
options = 1;
}
);
layerId = "A2204D38-078E-49A4-B70C-87904FFF8E34";
paths = (
{
closed = 1;
nodes = (
"613 436 LINE",
"492 108 LINE",
"481 108 LINE",
"328 464 LINE",
"316 464 LINE",
"124 118 LINE",
"109 118 LINE",
"73 436 LINE",
"13 436 LINE",
"62 -3 LINE",
"96 -3 LINE",
"303 370 LINE",
"464 -3 LINE",
"488 -3 LINE",
"649 436 LINE"
);
}
);
width = 654;
},
{
backgroundImage = {
crop = "{{0, 0}, {305.16, 367}}";
imagePath = "img/05 Page 3.png";
locked = "1";
transform = "{42.083, 0, 0, 42.083, -2585, -7072}";
};
hints = (
{
origin = "{0, 0}";
scale = "{1.2, -1}";
type = Corner;
name = _corner.leftSerif;
options = 1;
},
{
origin = "{0, 14}";
scale = "{-0.8, -1}";
type = Corner;
name = _corner.leftSerif;
},
{
origin = "{0, 8}";
scale = "{1, -1}";
type = Corner;
name = _corner.leftSerif;
options = 1;
}
);
layerId = "3EDEE92B-4D9D-4D9A-9438-63C2E33416C1";
paths = (
{
closed = 1;
nodes = (
"675 436 LINE",
"554 108 LINE",
"543 108 LINE",
"390 464 LINE",
"378 464 LINE",
"186 118 LINE",
"171 118 LINE",
"135 436 LINE",
"75 436 LINE",
"124 -3 LINE",
"158 -3 LINE",
"365 370 LINE",
"526 -3 LINE",
"550 -3 LINE",
"711 436 LINE"
);
}
);
width = 769;
}
);
leftMetricsKey = v;
rightMetricsKey = v;
unicode = 0077;
},
{
color = 4;
glyphname = x;
lastChange = "2021-03-10 18:56:44 +0000";
layers = (
{
background = {
paths = (
{
closed = 1;
nodes = (
"250 237 LINE",
"428 443 LINE",
"423 450 LINE",
"363 450 LINE",
"231 263 LINE",
"99 448 LINE",
"94 448 LINE",
"-2 420 LINE",
"-1 401 LINE",
"64 395 LINE",
"193 214 LINE",
"30 20 LINE",
"-5 -6 LINE",
"-3 -12 LINE",
"83 0 LINE",
"75 0 LINE",
"210 190 LINE",
"349 -5 LINE",
"355 -5 LINE",
"451 23 LINE",
"449 42 LINE",
"385 48 LINE"
);
}
);
};
hints = (
{
origin = "{0, 0}";
type = Corner;
name = _corner.xe;
},
{
origin = "{0, 2}";
type = Corner;
name = _corner.xe;
},
{
origin = "{1, 3}";
type = Corner;
name = _corner.xe.2;
}
);
layerId = "A2204D38-078E-49A4-B70C-87904FFF8E34";
paths = (
{
closed = 1;
nodes = (
"420 0 LINE",
"99 448 LINE",
"26 448 LINE",
"346 0 LINE"
);
},
{
closed = 1;
nodes = (
"75 0 LINE",
"220 204 LINE",
"203 226 LINE",
"13 0 LINE"
);
},
{
closed = 1;
nodes = (
"428 443 LINE",
"423 450 LINE",
"363 450 LINE",
"221 249 LINE",
"232 217 LINE"
);
}
);
width = 433;
},
{
background = {
paths = (
{
closed = 1;
nodes = (
"260 237 LINE",
"438 443 LINE",
"433 450 LINE",
"373 450 LINE",
"241 263 LINE",
"109 448 LINE",
"104 448 LINE",
"8 420 LINE",
"9 401 LINE",
"74 395 LINE",
"203 214 LINE",
"40 20 LINE",
"5 -6 LINE",
"7 -12 LINE",
"93 0 LINE",
"85 0 LINE",
"220 190 LINE",
"359 -5 LINE",
"365 -5 LINE",
"461 23 LINE",
"459 42 LINE",
"395 48 LINE"
);
}
);
};
backgroundImage = {
crop = "{{0, 0}, {305.16, 367}}";
imagePath = "img/05 Page 3.png";
locked = "1";
transform = "{42.083, 0, 0, 42.083, -3373, -7072}";
};
hints = (
{
origin = "{0, 2}";
type = Corner;
name = _corner.xe;
},
{
origin = "{0, 0}";
type = Corner;
name = _corner.xe;
},
{
origin = "{1, 3}";
type = Corner;
name = _corner.xe.2;
}
);
layerId = "3EDEE92B-4D9D-4D9A-9438-63C2E33416C1";
paths = (
{
closed = 1;
nodes = (
"433 -5 LINE",
"109 448 LINE",
"36 448 LINE",
"359 -5 LINE"
);
},
{
closed = 1;
nodes = (
"85 0 LINE",
"230 204 LINE",
"213 226 LINE",
"23 0 LINE"
);
},
{
closed = 1;
nodes = (
"438 443 LINE",
"433 450 LINE",
"373 450 LINE",
"231 249 LINE",
"242 217 LINE"
);
}
);
width = 463;
}
);
leftMetricsKey = v;
rightMetricsKey = v;
unicode = 0078;
},
{
color = 4;
glyphname = y;
lastChange = "2021-03-10 18:56:44 +0000";
layers = (
{
background = {
paths = (
{
closed = 1;
nodes = (
"150 -128 OFFCURVE",
"127 -161 OFFCURVE",
"85 -161 CURVE SMOOTH",
"65 -161 OFFCURVE",
"48 -153 OFFCURVE",
"37 -138 CURVE",
"22 -149 LINE",
"26 -160 OFFCURVE",
"52 -207 OFFCURVE",
"90 -207 CURVE SMOOTH",
"133 -207 OFFCURVE",
"172 -166 OFFCURVE",
"201 -92 CURVE SMOOTH",
"407 401 LINE",
"456 420 LINE",
"456 438 LINE",
"288 438 LINE",
"288 418 LINE",
"364 401 LINE",
"235 78 LINE",
"218 78 LINE",
"94 401 LINE",
"164 420 LINE",
"164 438 LINE",
"-57 438 LINE",
"-57 418 LINE",
"27 401 LINE",
"176 20 LINE",
"218 29 LINE",
"180 -59 LINE SMOOTH"
);
}
);
};
hints = (
{
origin = "{0, 3}";
scale = "{0.7, -1}";
type = Corner;
name = _corner.rightSerif;
options = 1;
},
{
origin = "{0, 4}";
scale = "{1.3, -1}";
type = Corner;
name = _corner.leftSerif;
},
{
origin = "{0, 7}";
scale = "{1, -1}";
type = Corner;
name = _corner.rightSerif;
options = 1;
},
{
origin = "{0, 8}";
scale = "{1, -1}";
type = Corner;
name = _corner.leftSerif;
}
);
layerId = "A2204D38-078E-49A4-B70C-87904FFF8E34";
paths = (
{
closed = 1;
nodes = (
"133 -207 OFFCURVE",
"171 -165 OFFCURVE",
"201 -92 CURVE SMOOTH",
"422 436 LINE",
"374 436 LINE",
"231 78 LINE",
"218 78 LINE",
"81 436 LINE",
"13 436 LINE",
"176 20 LINE",
"218 29 LINE",
"180 -59 LINE SMOOTH",
"150 -128 OFFCURVE",
"127 -161 OFFCURVE",
"85 -161 CURVE SMOOTH",
"65 -161 OFFCURVE",
"48 -153 OFFCURVE",
"37 -138 CURVE",
"22 -149 LINE",
"26 -160 OFFCURVE",
"52 -207 OFFCURVE",
"90 -207 CURVE SMOOTH"
);
}
);
width = 427;
},
{
background = {
hints = (
{
origin = "{0, 3}";
scale = "{0.7, -1}";
type = Corner;
name = _corner.rightSerif;
options = 1;
},
{
origin = "{0, 4}";
scale = "{1.3, -1}";
type = Corner;
name = _corner.leftSerif;
},
{
origin = "{0, 7}";
scale = "{1, -1}";
type = Corner;
name = _corner.rightSerif;
options = 1;
},
{
origin = "{0, 8}";
scale = "{1, -1}";
type = Corner;
name = _corner.leftSerif;
}
);
paths = (
{
closed = 1;
nodes = (
"194 -207 OFFCURVE",
"232 -165 OFFCURVE",
"262 -92 CURVE SMOOTH",
"483 436 LINE",
"435 436 LINE",
"292 78 LINE",
"279 78 LINE",
"142 436 LINE",
"74 436 LINE",
"237 20 LINE",
"279 29 LINE",
"241 -59 LINE SMOOTH",
"211 -128 OFFCURVE",
"188 -161 OFFCURVE",
"146 -161 CURVE SMOOTH",
"126 -161 OFFCURVE",
"109 -153 OFFCURVE",
"98 -138 CURVE",
"83 -149 LINE",
"87 -160 OFFCURVE",
"113 -207 OFFCURVE",
"151 -207 CURVE SMOOTH"
);
}
);
};
backgroundImage = {
crop = "{{0, 0}, {305.16, 367}}";
imagePath = "img/05 Page 3.png";
locked = "1";
transform = "{41.258, 0, 0, 41.258, -3815, -6929}";
};
guideLines = (
{
angle = 66.2;
locked = 1;
position = "{425, 271}";
}
);
hints = (
{
origin = "{0, 7}";
scale = "{1, -1}";
type = Corner;
name = _corner.rightSerif;
},
{
origin = "{0, 8}";
scale = "{1, -1}";
type = Corner;
name = _corner.leftSerif;
options = 1;
},
{
origin = "{0, 3}";
scale = "{0.7, -1}";
type = Corner;
name = _corner.rightSerif;
},
{
origin = "{0, 4}";
scale = "{1.3, -1}";
type = Corner;
name = _corner.leftSerif;
options = 1;
}
);
layerId = "3EDEE92B-4D9D-4D9A-9438-63C2E33416C1";
paths = (
{
closed = 1;
nodes = (
"191 -207 OFFCURVE",
"232 -166 OFFCURVE",
"263 -92 CURVE SMOOTH",
"483 438 LINE",
"437 438 LINE",
"293 78 LINE",
"277 78 LINE",
"139 438 LINE",
"75 438 LINE",
"235 20 LINE",
"276 29 LINE",
"238 -59 LINE SMOOTH",
"208 -128 OFFCURVE",
"185 -161 OFFCURVE",
"143 -161 CURVE SMOOTH",
"123 -161 OFFCURVE",
"106 -153 OFFCURVE",
"95 -138 CURVE",
"80 -149 LINE",
"84 -160 OFFCURVE",
"110 -207 OFFCURVE",
"148 -207 CURVE SMOOTH"
);
}
);
width = 534;
}
);
leftMetricsKey = v;
rightMetricsKey = v;
unicode = 0079;
},
{
color = 0;
glyphname = z;
lastChange = "2021-03-10 18:56:44 +0000";
layers = (
{
layerId = "A2204D38-078E-49A4-B70C-87904FFF8E34";
paths = (
{
closed = 1;
nodes = (
"84 0 LINE {name = \"🧨\";}",
"402 419 LINE",
"402 436 LINE",
"337 436 LINE {name = \"🧨\";}",
"13 6 LINE",
"19 0 LINE"
);
},
{
closed = 1;
nodes = (
"392 0 LINE",
"392 43 LINE",
"371 43 LINE",
"353 43 LINE",
"65 43 LINE",
"65 0 LINE {name = \"🧨\";}"
);
},
{
closed = 1;
nodes = (
"78 396 LINE",
"93 396 LINE",
"363 396 LINE",
"363 436 LINE {name = \"🧨\";}",
"59 436 LINE",
"59 396 LINE"
);
}
);
width = 407;
},
{
background = {
paths = (
{
closed = 1;
nodes = (
"327 430 LINE",
"4 2 LINE",
"53 -35 LINE",
"376 393 LINE"
);
}
);
};
backgroundImage = {
crop = "{{0, 0}, {305.16, 367}}";
imagePath = "img/05 Page 3.png";
locked = "1";
transform = "{41.258, 0, 0, 41.258, -4352, -6929}";
};
layerId = "3EDEE92B-4D9D-4D9A-9438-63C2E33416C1";
paths = (
{
closed = 1;
nodes = (
"75 0 LINE {name = \"🧨\";}",
"391 419 LINE",
"391 436 LINE",
"329 436 LINE {name = \"🧨\";}",
"5 6 LINE",
"11 0 LINE"
);
},
{
closed = 1;
nodes = (
"384 0 LINE",
"396 118 LINE",
"375 118 LINE",
"345 42 LINE",
"57 42 LINE",
"57 0 LINE {name = \"🧨\";}"
);
},
{
closed = 1;
nodes = (
"71 347 LINE",
"98 398 LINE",
"355 398 LINE",
"355 436 LINE {name = \"🧨\";}",
"64 436 LINE",
"52 347 LINE"
);
}
);
width = 398;
}
);
leftMetricsKey = v;
rightMetricsKey = v;
unicode = 007A;
},
{
export = 0;
glyphname = idotless;
lastChange = "2021-03-08 18:19:52 +0000";
layers = (
{
hints = (
{
origin = "{0, 4}";
type = Corner;
name = _corner.topLeft;
},
{
origin = "{0, 5}";
type = Corner;
name = _corner.leftSerif;
},
{
origin = "{0, 0}";
type = Corner;
name = _corner.rightSerif;
}
);
layerId = "A2204D38-078E-49A4-B70C-87904FFF8E34";
paths = (
{
closed = 1;
nodes = (
"112 0 LINE",
"112 445 LINE",
"91 440 OFFCURVE",
"72 440 OFFCURVE",
"51 445 CURVE",
"51 0 LINE"
);
}
);
width = 163;
},
{
hints = (
{
origin = "{0, 4}";
type = Corner;
name = _corner.topLeft;
},
{
origin = "{0, 5}";
type = Corner;
name = _corner.leftSerif;
},
{
origin = "{0, 0}";
type = Corner;
name = _corner.rightSerif;
}
);
layerId = "3EDEE92B-4D9D-4D9A-9438-63C2E33416C1";
paths = (
{
closed = 1;
nodes = (
"158 0 LINE",
"158 445 LINE",
"137 440 OFFCURVE",
"119 440 OFFCURVE",
"98 445 CURVE",
"98 0 LINE"
);
}
);
width = 256;
}
);
unicode = 0131;
},
{
color = 1;
export = 0;
glyphname = a.001;
lastChange = "2021-03-06 12:05:37 +0000";
layers = (
{
layerId = "A2204D38-078E-49A4-B70C-87904FFF8E34";
paths = (
{
closed = 1;
nodes = (
"404 0 LINE",
"404 21 LINE",
"404 37 LINE",
"404 322 LINE SMOOTH",
"404 433 OFFCURVE",
"353 488 OFFCURVE",
"257 488 CURVE SMOOTH",
"174 488 OFFCURVE",
"108 445 OFFCURVE",
"78 410 CURVE",
"100 366 LINE",
"136 410 OFFCURVE",
"190 440 OFFCURVE",
"227 440 CURVE SMOOTH",
"302 440 OFFCURVE",
"337 395 OFFCURVE",
"337 302 CURVE",
"337 37 LINE",
"337 0 LINE"
);
},
{
closed = 1;
nodes = (
"249 -10 OFFCURVE",
"317 61 OFFCURVE",
"358 122 CURVE",
"353 166 LINE",
"325 119 OFFCURVE",
"260 48 OFFCURVE",
"195 48 CURVE SMOOTH",
"158 48 OFFCURVE",
"121 77 OFFCURVE",
"121 121 CURVE SMOOTH",
"121 221 OFFCURVE",
"279 259 OFFCURVE",
"359 275 CURVE",
"359 306 LINE",
"202 271 OFFCURVE",
"42 226 OFFCURVE",
"42 110 CURVE SMOOTH",
"42 47 OFFCURVE",
"81 -10 OFFCURVE",
"171 -10 CURVE SMOOTH"
);
}
);
width = 446;
},
{
associatedMasterId = "A2204D38-078E-49A4-B70C-87904FFF8E34";
background = {
paths = (
{
closed = 1;
nodes = (
"63 416 LINE",
"104 473 OFFCURVE",
"168 510 OFFCURVE",
"236 510 CURVE SMOOTH",
"349 510 OFFCURVE",
"402 433 OFFCURVE",
"402 337 CURVE SMOOTH",
"402 0 LINE",
"342 0 LINE",
"342 316 LINE",
"342 399 OFFCURVE",
"292 460 OFFCURVE",
"223 460 CURVE SMOOTH",
"179 460 OFFCURVE",
"132 444 OFFCURVE",
"95 398 CURVE"
);
},
{
closed = 1;
nodes = (
"355 288 LINE",
"287 275 OFFCURVE",
"102 232 OFFCURVE",
"102 123 CURVE SMOOTH",
"102 78 OFFCURVE",
"132 45 OFFCURVE",
"195 45 CURVE SMOOTH",
"271 45 OFFCURVE",
"331 126 OFFCURVE",
"354 175 CURVE",
"354 138 LINE",
"311 74 OFFCURVE",
"265 -10 OFFCURVE",
"153 -10 CURVE SMOOTH",
"58 -10 OFFCURVE",
"30 70 OFFCURVE",
"30 118 CURVE SMOOTH",
"30 258 OFFCURVE",
"191 288 OFFCURVE",
"355 322 CURVE"
);
}
);
};
backgroundImage = {
crop = "{{0, 0}, {320, 437}}";
imagePath = "../../Screenshot 2020-10-15 at 11.24.38.png";
locked = "1";
transform = "{1.831, 0, 0, 1.831, -73, -186}";
};
layerId = "7BCF6627-4367-41A7-93C7-86B12A22C6E6";
name = "Oct 15 20, 11:30";
paths = (
{
closed = 1;
nodes = (
"63 425 LINE",
"94 461 OFFCURVE",
"162 510 OFFCURVE",
"248 510 CURVE SMOOTH",
"349 510 OFFCURVE",
"402 453 OFFCURVE",
"402 337 CURVE SMOOTH",
"402 0 LINE",
"332 0 LINE",
"332 316 LINE",
"332 413 OFFCURVE",
"296 460 OFFCURVE",
"217 460 CURVE SMOOTH",
"179 460 OFFCURVE",
"117 434 OFFCURVE",
"80 388 CURVE"
);
},
{
closed = 1;
nodes = (
"355 288 LINE",
"271 271 OFFCURVE",
"106 231 OFFCURVE",
"106 127 CURVE SMOOTH",
"106 81 OFFCURVE",
"145 51 OFFCURVE",
"184 51 CURVE SMOOTH",
"252 51 OFFCURVE",
"320 125 OFFCURVE",
"349 174 CURVE",
"354 128 LINE",
"311 64 OFFCURVE",
"240 -10 OFFCURVE",
"159 -10 CURVE SMOOTH",
"65 -10 OFFCURVE",
"24 50 OFFCURVE",
"24 115 CURVE SMOOTH",
"24 236 OFFCURVE",
"191 283 OFFCURVE",
"355 320 CURVE"
);
}
);
width = 447;
},
{
background = {
paths = (
{
closed = 1;
nodes = (
"61 416 LINE",
"102 473 OFFCURVE",
"166 510 OFFCURVE",
"234 510 CURVE SMOOTH",
"347 510 OFFCURVE",
"400 433 OFFCURVE",
"400 337 CURVE SMOOTH",
"400 0 LINE",
"340 0 LINE",
"340 316 LINE",
"340 399 OFFCURVE",
"290 460 OFFCURVE",
"221 460 CURVE SMOOTH",
"177 460 OFFCURVE",
"130 444 OFFCURVE",
"93 398 CURVE"
);
},
{
closed = 1;
nodes = (
"353 288 LINE",
"285 275 OFFCURVE",
"100 232 OFFCURVE",
"100 123 CURVE SMOOTH",
"100 78 OFFCURVE",
"130 45 OFFCURVE",
"193 45 CURVE SMOOTH",
"269 45 OFFCURVE",
"329 126 OFFCURVE",
"352 175 CURVE",
"352 138 LINE",
"309 74 OFFCURVE",
"263 -10 OFFCURVE",
"151 -10 CURVE SMOOTH",
"56 -10 OFFCURVE",
"28 70 OFFCURVE",
"28 118 CURVE SMOOTH",
"28 258 OFFCURVE",
"189 288 OFFCURVE",
"353 322 CURVE"
);
}
);
};
backgroundImage = {
crop = "{{0, 0}, {305.926, 73.749}}";
imagePath = img/pala.png;
locked = "1";
transform = "{82.773, 0, 0, 82.773, -1306, -1413}";
};
layerId = "3EDEE92B-4D9D-4D9A-9438-63C2E33416C1";
paths = (
{
closed = 1;
nodes = (
"481 0 LINE",
"481 21 LINE",
"400 37 LINE",
"400 322 LINE SMOOTH",
"400 433 OFFCURVE",
"349 488 OFFCURVE",
"253 488 CURVE SMOOTH",
"170 488 OFFCURVE",
"104 445 OFFCURVE",
"74 410 CURVE",
"96 366 LINE",
"132 410 OFFCURVE",
"186 440 OFFCURVE",
"223 440 CURVE SMOOTH",
"298 440 OFFCURVE",
"333 395 OFFCURVE",
"333 302 CURVE",
"333 37 LINE",
"327 0 LINE"
);
},
{
closed = 1;
nodes = (
"245 -10 OFFCURVE",
"313 61 OFFCURVE",
"354 122 CURVE",
"349 166 LINE",
"321 119 OFFCURVE",
"256 48 OFFCURVE",
"191 48 CURVE SMOOTH",
"154 48 OFFCURVE",
"117 77 OFFCURVE",
"117 121 CURVE SMOOTH",
"117 221 OFFCURVE",
"275 259 OFFCURVE",
"355 275 CURVE",
"355 306 LINE",
"198 271 OFFCURVE",
"38 226 OFFCURVE",
"38 110 CURVE SMOOTH",
"38 47 OFFCURVE",
"77 -10 OFFCURVE",
"167 -10 CURVE SMOOTH"
);
}
);
width = 519;
},
{
associatedMasterId = "3EDEE92B-4D9D-4D9A-9438-63C2E33416C1";
background = {
paths = (
{
closed = 1;
nodes = (
"63 416 LINE",
"104 473 OFFCURVE",
"168 510 OFFCURVE",
"236 510 CURVE SMOOTH",
"349 510 OFFCURVE",
"402 433 OFFCURVE",
"402 337 CURVE SMOOTH",
"402 0 LINE",
"342 0 LINE",
"342 316 LINE",
"342 399 OFFCURVE",
"292 460 OFFCURVE",
"223 460 CURVE SMOOTH",
"179 460 OFFCURVE",
"132 444 OFFCURVE",
"95 398 CURVE"
);
},
{
closed = 1;
nodes = (
"355 288 LINE",
"287 275 OFFCURVE",
"102 232 OFFCURVE",
"102 123 CURVE SMOOTH",
"102 78 OFFCURVE",
"132 45 OFFCURVE",
"195 45 CURVE SMOOTH",
"271 45 OFFCURVE",
"331 126 OFFCURVE",
"354 175 CURVE",
"354 138 LINE",
"311 74 OFFCURVE",
"265 -10 OFFCURVE",
"153 -10 CURVE SMOOTH",
"58 -10 OFFCURVE",
"30 70 OFFCURVE",
"30 118 CURVE SMOOTH",
"30 258 OFFCURVE",
"191 288 OFFCURVE",
"355 322 CURVE"
);
}
);
};
backgroundImage = {
crop = "{{0, 0}, {320, 437}}";
imagePath = "../../Screenshot 2020-10-15 at 11.24.38.png";
locked = "1";
transform = "{1.831, 0, 0, 1.831, -73, -186}";
};
layerId = "CFA403A6-0876-4B87-9D85-CF7E3A582D40";
name = "Oct 15 20, 11:30";
paths = (
{
closed = 1;
nodes = (
"63 425 LINE",
"94 461 OFFCURVE",
"162 510 OFFCURVE",
"248 510 CURVE SMOOTH",
"349 510 OFFCURVE",
"402 453 OFFCURVE",
"402 337 CURVE SMOOTH",
"402 0 LINE",
"332 0 LINE",
"332 316 LINE",
"332 413 OFFCURVE",
"296 460 OFFCURVE",
"217 460 CURVE SMOOTH",
"179 460 OFFCURVE",
"117 434 OFFCURVE",
"80 388 CURVE"
);
},
{
closed = 1;
nodes = (
"355 288 LINE",
"271 271 OFFCURVE",
"106 231 OFFCURVE",
"106 127 CURVE SMOOTH",
"106 81 OFFCURVE",
"145 51 OFFCURVE",
"184 51 CURVE SMOOTH",
"252 51 OFFCURVE",
"320 125 OFFCURVE",
"349 174 CURVE",
"354 128 LINE",
"311 64 OFFCURVE",
"240 -10 OFFCURVE",
"159 -10 CURVE SMOOTH",
"65 -10 OFFCURVE",
"24 50 OFFCURVE",
"24 115 CURVE SMOOTH",
"24 236 OFFCURVE",
"191 283 OFFCURVE",
"355 320 CURVE"
);
}
);
width = 447;
}
);
leftMetricsKey = o;
rightMetricsKey = o;
},
{
color = 3;
export = 0;
glyphname = h.001;
lastChange = "2021-03-06 18:30:30 +0000";
layers = (
{
background = {
paths = (
{
closed = 1;
nodes = (
"130 510 OFFCURVE",
"72 460 OFFCURVE",
"8 365 CURVE",
"31 350 LINE",
"31 762 LINE",
"-29 762 LINE",
"-29 0 LINE",
"31 0 LINE",
"31 324 LINE",
"62 392 OFFCURVE",
"121 445 OFFCURVE",
"184 445 CURVE SMOOTH",
"275 445 OFFCURVE",
"308 376 OFFCURVE",
"308 267 CURVE SMOOTH",
"308 0 LINE",
"368 0 LINE",
"368 322 LINE SMOOTH",
"368 448 OFFCURVE",
"321 510 OFFCURVE",
"213 510 CURVE SMOOTH"
);
}
);
};
components = (
{
name = _part.fut;
transform = "{1, 0, 0, 1, 108, 0}";
},
{
name = _part.sh;
piece = {
shoulderWidth = 70;
};
transform = "{1, 0, 0, 1, 74, 0}";
}
);
layerId = "A2204D38-078E-49A4-B70C-87904FFF8E34";
width = 288;
},
{
associatedMasterId = "A2204D38-078E-49A4-B70C-87904FFF8E34";
background = {
paths = (
{
closed = 1;
nodes = (
"202 510 OFFCURVE",
"144 460 OFFCURVE",
"80 365 CURVE",
"103 350 LINE",
"103 762 LINE",
"43 762 LINE",
"43 0 LINE",
"103 0 LINE",
"103 324 LINE",
"134 392 OFFCURVE",
"193 445 OFFCURVE",
"256 445 CURVE SMOOTH",
"347 445 OFFCURVE",
"380 376 OFFCURVE",
"380 267 CURVE SMOOTH",
"380 0 LINE",
"440 0 LINE",
"440 322 LINE SMOOTH",
"440 448 OFFCURVE",
"393 510 OFFCURVE",
"285 510 CURVE SMOOTH"
);
}
);
};
backgroundImage = {
crop = "{{0, 0}, {194, 196}}";
imagePath = "../../Screenshot 2020-10-15 at 11.32.52.png";
transform = "{5.23478, 0, 0, 5.23478, -536, -298}";
};
layerId = "A9E281D5-F84D-4FB4-A69F-ACA557920CC3";
name = "Oct 15 20, 11:33";
paths = (
{
closed = 1;
nodes = (
"43 762 LINE",
"43 0 LINE",
"103 0 LINE",
"103 762 LINE"
);
},
{
closed = 1;
nodes = (
"116 358 OFFCURVE",
"174 448 OFFCURVE",
"256 448 CURVE SMOOTH",
"342 448 OFFCURVE",
"382 386 OFFCURVE",
"382 265 CURVE SMOOTH",
"382 0 LINE",
"442 0 LINE",
"442 279 LINE SMOOTH",
"442 442 OFFCURVE",
"407 509 OFFCURVE",
"285 510 CURVE SMOOTH",
"181 511 OFFCURVE",
"122 422 OFFCURVE",
"96 387 CURVE",
"98 314 LINE"
);
}
);
width = 492;
},
{
anchors = (
{
name = _connect;
position = "{177, 0}";
},
{
name = connect;
position = "{500, 0}";
}
);
backgroundImage = {
crop = "{{0, 0}, {305.926, 73.749}}";
imagePath = img/pala.png;
locked = "1";
transform = "{82.773, 0, 0, 82.773, -5129, -1413}";
};
layerId = "3EDEE92B-4D9D-4D9A-9438-63C2E33416C1";
paths = (
{
closed = 1;
nodes = (
"247 0 LINE",
"247 18 LINE",
"177 37 LINE",
"177 321 LINE",
"204 376 OFFCURVE",
"248 434 OFFCURVE",
"314 434 CURVE SMOOTH",
"390 434 OFFCURVE",
"436 381 OFFCURVE",
"436 304 CURVE SMOOTH",
"436 37 LINE",
"408 20 LINE",
"408 0 LINE",
"575 0 LINE",
"575 20 LINE",
"505 37 LINE",
"505 300 LINE SMOOTH",
"505 418 OFFCURVE",
"476 490 OFFCURVE",
"349 490 CURVE SMOOTH",
"272 490 OFFCURVE",
"213 432 OFFCURVE",
"177 388 CURVE",
"177 762 LINE",
"48 728 LINE",
"48 698 LINE",
"108 705 LINE",
"108 37 LINE",
"38 20 LINE",
"38 0 LINE"
);
}
);
width = 597;
},
{
associatedMasterId = "3EDEE92B-4D9D-4D9A-9438-63C2E33416C1";
background = {
paths = (
{
closed = 1;
nodes = (
"202 510 OFFCURVE",
"144 460 OFFCURVE",
"80 365 CURVE",
"103 350 LINE",
"103 762 LINE",
"43 762 LINE",
"43 0 LINE",
"103 0 LINE",
"103 324 LINE",
"134 392 OFFCURVE",
"193 445 OFFCURVE",
"256 445 CURVE SMOOTH",
"347 445 OFFCURVE",
"380 376 OFFCURVE",
"380 267 CURVE SMOOTH",
"380 0 LINE",
"440 0 LINE",
"440 322 LINE SMOOTH",
"440 448 OFFCURVE",
"393 510 OFFCURVE",
"285 510 CURVE SMOOTH"
);
}
);
};
backgroundImage = {
crop = "{{0, 0}, {194, 196}}";
imagePath = "../../Screenshot 2020-10-15 at 11.32.52.png";
transform = "{5.23478, 0, 0, 5.23478, -536, -298}";
};
layerId = "23A60301-284F-4BA8-8883-5AACA35A98E0";
name = "Oct 15 20, 11:33";
paths = (
{
closed = 1;
nodes = (
"43 762 LINE",
"43 0 LINE",
"103 0 LINE",
"103 762 LINE"
);
},
{
closed = 1;
nodes = (
"116 358 OFFCURVE",
"174 448 OFFCURVE",
"256 448 CURVE SMOOTH",
"342 448 OFFCURVE",
"382 386 OFFCURVE",
"382 265 CURVE SMOOTH",
"382 0 LINE",
"442 0 LINE",
"442 279 LINE SMOOTH",
"442 442 OFFCURVE",
"407 509 OFFCURVE",
"285 510 CURVE SMOOTH",
"181 511 OFFCURVE",
"122 422 OFFCURVE",
"96 387 CURVE",
"98 314 LINE"
);
}
);
width = 492;
}
);
leftMetricsKey = n;
rightMetricsKey = n;
},
{
color = 3;
export = 0;
glyphname = i.001;
lastChange = "2021-03-06 12:05:37 +0000";
layers = (
{
hints = (
{
origin = "{0, 4}";
type = Corner;
name = _corner.topLeft;
},
{
origin = "{0, 5}";
type = Corner;
name = _corner.leftSerif;
},
{
origin = "{0, 0}";
type = Corner;
name = _corner.rightSerif;
}
);
layerId = "A2204D38-078E-49A4-B70C-87904FFF8E34";
paths = (
{
closed = 1;
nodes = (
"143 0 LINE",
"143 478 LINE",
"122 473 OFFCURVE",
"95 473 OFFCURVE",
"74 478 CURVE",
"74 0 LINE"
);
},
{
closed = 1;
nodes = (
"136 588 OFFCURVE",
"157 611 OFFCURVE",
"157 638 CURVE SMOOTH",
"157 667 OFFCURVE",
"136 690 OFFCURVE",
"109 690 CURVE SMOOTH",
"81 690 OFFCURVE",
"60 667 OFFCURVE",
"60 638 CURVE SMOOTH",
"60 611 OFFCURVE",
"81 588 OFFCURVE",
"109 588 CURVE SMOOTH"
);
}
);
width = 209;
},
{
backgroundImage = {
crop = "{{0, 0}, {305.926, 73.749}}";
imagePath = img/pala.png;
locked = "1";
transform = "{82.773, 0, 0, 82.773, -5769, -1413}";
};
guideLines = (
{
angle = 90;
locked = 1;
position = "{110, 848}";
},
{
angle = 90;
locked = 1;
position = "{173, 598}";
}
);
hints = (
{
origin = "{0, 4}";
type = Corner;
name = _corner.topLeft;
},
{
origin = "{0, 5}";
type = Corner;
name = _corner.leftSerif;
},
{
origin = "{0, 0}";
type = Corner;
name = _corner.rightSerif;
}
);
layerId = "3EDEE92B-4D9D-4D9A-9438-63C2E33416C1";
paths = (
{
closed = 1;
nodes = (
"169 -6 LINE",
"169 482 LINE",
"148 477 OFFCURVE",
"121 477 OFFCURVE",
"100 482 CURVE",
"100 -6 LINE"
);
},
{
closed = 1;
nodes = (
"162 598 OFFCURVE",
"183 621 OFFCURVE",
"183 648 CURVE SMOOTH",
"183 677 OFFCURVE",
"162 700 OFFCURVE",
"135 700 CURVE SMOOTH",
"107 700 OFFCURVE",
"86 677 OFFCURVE",
"86 648 CURVE SMOOTH",
"86 621 OFFCURVE",
"107 598 OFFCURVE",
"135 598 CURVE SMOOTH"
);
}
);
width = 269;
}
);
leftMetricsKey = l;
rightMetricsKey = l;
},
{
color = 3;
export = 0;
glyphname = k.001;
lastChange = "2021-03-06 18:30:30 +0000";
layers = (
{
components = (
{
name = _part.fut;
transform = "{1, 0, 0, 1, 8, 0}";
}
);
hints = (
{
origin = "{0, 0}";
scale = "{0.8, 1}";
type = Corner;
name = _corner.ke;
}
);
layerId = "A2204D38-078E-49A4-B70C-87904FFF8E34";
paths = (
{
closed = 1;
nodes = (
"494 0 LINE",
"203 299 LINE",
"114 292 LINE",
"114 252 LINE",
"164 252 LINE",
"408 0 LINE"
);
},
{
closed = 1;
nodes = (
"470 504 LINE",
"470 516 LINE",
"437 508 OFFCURVE",
"408 510 OFFCURVE",
"379 521 CURVE",
"305 435 OFFCURVE",
"233 365 OFFCURVE",
"148 292 CURVE",
"197 288 LINE"
);
}
);
width = 494;
},
{
backgroundImage = {
crop = "{{0, 0}, {305.926, 73.749}}";
imagePath = img/pala.png;
locked = "1";
transform = "{82.773, 0, 0, 82.773, -6403, -1413}";
};
components = (
{
name = _part.fut;
transform = "{1, 0, 0, 1, 42, 0}";
}
);
hints = (
{
origin = "{0, 0}";
type = Corner;
name = _corner.ke;
}
);
layerId = "3EDEE92B-4D9D-4D9A-9438-63C2E33416C1";
paths = (
{
closed = 1;
nodes = (
"528 0 LINE",
"237 299 LINE",
"148 292 LINE",
"148 252 LINE",
"198 252 LINE",
"442 -5 LINE"
);
},
{
closed = 1;
nodes = (
"504 504 LINE",
"504 516 LINE",
"471 508 OFFCURVE",
"442 510 OFFCURVE",
"413 521 CURVE",
"339 435 OFFCURVE",
"267 365 OFFCURVE",
"182 292 CURVE",
"231 288 LINE"
);
}
);
width = 551;
}
);
leftMetricsKey = n;
rightMetricsKey = r;
},
{
color = 3;
export = 0;
glyphname = p.001;
lastChange = "2021-03-06 12:05:37 +0000";
layers = (
{
components = (
{
name = _pee;
transform = "{0.9601, 0, 0, 0.92535, -20, -1}";
}
);
hints = (
{
origin = "{0, 2}";
type = Corner;
name = _corner.topLeft;
},
{
origin = "{0, 3}";
type = Corner;
name = _corner.leftSerif;
},
{
origin = "{0, 0}";
scale = "{1.2, 1}";
type = Corner;
name = _corner.rightSerif;
}
);
layerId = "A2204D38-078E-49A4-B70C-87904FFF8E34";
paths = (
{
closed = 1;
nodes = (
"143 -198 LINE",
"143 451 LINE",
"74 451 LINE",
"74 -198 LINE"
);
}
);
width = 541;
},
{
background = {
paths = (
{
closed = 1;
nodes = (
"383 465 LINE",
"374 476 OFFCURVE",
"355 490 OFFCURVE",
"322 490 CURVE SMOOTH",
"268 490 OFFCURVE",
"256 474 OFFCURVE",
"160 376 CURVE",
"169 273 LINE",
"169 353 OFFCURVE",
"230 408 OFFCURVE",
"270 408 CURVE SMOOTH",
"302 408 OFFCURVE",
"317 385 OFFCURVE",
"327 367 CURVE",
"352 370 LINE",
"360 407 OFFCURVE",
"374 436 OFFCURVE",
"385 459 CURVE"
);
}
);
};
backgroundImage = {
crop = "{{0, 0}, {305.16, 367}}";
imagePath = "img/05 Page 3.png";
transform = "{42.454, 0, 0, 42.454, -8900, -10356}";
};
components = (
{
name = _pee;
transform = "{0.9601, 0, 0, 0.92535, 13, -1}";
}
);
hints = (
{
origin = "{0, 3}";
type = Corner;
name = _corner.leftSerif;
},
{
origin = "{0, 0}";
scale = "{1.2, 1}";
type = Corner;
name = _corner.rightSerif;
},
{
origin = "{0, 2}";
type = Corner;
name = _corner.topLeft;
}
);
layerId = "3EDEE92B-4D9D-4D9A-9438-63C2E33416C1";
paths = (
{
closed = 1;
nodes = (
"177 -198 LINE",
"177 451 LINE",
"108 451 LINE",
"108 -198 LINE"
);
}
);
width = 570;
}
);
leftMetricsKey = n;
rightMetricsKey = o;
},
{
color = 3;
export = 0;
glyphname = r.001;
lastChange = "2021-03-06 12:19:33 +0000";
layers = (
{
hints = (
{
origin = "{1, 2}";
type = Corner;
name = _corner.topLeft;
},
{
origin = "{1, 3}";
type = Corner;
name = _corner.leftSerif;
},
{
origin = "{1, 0}";
type = Corner;
name = _corner.rightSerif;
}
);
layerId = "A2204D38-078E-49A4-B70C-87904FFF8E34";
paths = (
{
closed = 1;
nodes = (
"135 353 OFFCURVE",
"200 416 OFFCURVE",
"247 416 CURVE SMOOTH",
"288 416 OFFCURVE",
"304 397 OFFCURVE",
"323 374 CURVE",
"331 372 LINE",
"338 408 OFFCURVE",
"352 430 OFFCURVE",
"367 458 CURVE",
"365 464 LINE",
"356 475 OFFCURVE",
"326 488 OFFCURVE",
"293 488 CURVE SMOOTH",
"246 488 OFFCURVE",
"196 443 OFFCURVE",
"128 355 CURVE",
"135 273 LINE"
);
},
{
closed = 1;
nodes = (
"143 0 LINE",
"143 484 LINE",
"74 484 LINE",
"74 0 LINE"
);
}
);
width = 367;
},
{
backgroundImage = {
crop = "{{0, 0}, {305.926, 73.749}}";
imagePath = img/pala.png;
locked = "1";
transform = "{82.773, 0, 0, 82.773, -10758, -1413}";
};
hints = (
{
origin = "{0, 3}";
type = Corner;
name = _corner.leftSerif;
},
{
origin = "{0, 0}";
type = Corner;
name = _corner.rightSerif;
},
{
origin = "{0, 2}";
type = Corner;
name = _corner.topLeft;
}
);
layerId = "3EDEE92B-4D9D-4D9A-9438-63C2E33416C1";
paths = (
{
closed = 1;
nodes = (
"177 0 LINE",
"177 484 LINE",
"108 484 LINE",
"108 0 LINE"
);
},
{
closed = 1;
nodes = (
"169 353 OFFCURVE",
"234 416 OFFCURVE",
"281 416 CURVE SMOOTH",
"322 416 OFFCURVE",
"338 397 OFFCURVE",
"357 374 CURVE",
"365 372 LINE",
"372 408 OFFCURVE",
"386 430 OFFCURVE",
"401 458 CURVE",
"399 464 LINE",
"390 475 OFFCURVE",
"360 488 OFFCURVE",
"327 488 CURVE SMOOTH",
"280 488 OFFCURVE",
"230 443 OFFCURVE",
"162 355 CURVE",
"169 273 LINE"
);
}
);
width = 406;
}
);
leftMetricsKey = n;
},
{
color = 0;
export = 0;
glyphname = s.001;
lastChange = "2021-03-06 12:05:37 +0000";
layers = (
{
background = {
paths = (
{
closed = 1;
nodes = (
"1364 433 OFFCURVE",
"1330 503 OFFCURVE",
"1215 503 CURVE SMOOTH",
"1145 503 OFFCURVE",
"1075 473 OFFCURVE",
"1075 376 CURVE SMOOTH",
"1075 278 OFFCURVE",
"1185 246 OFFCURVE",
"1231 231 CURVE SMOOTH",
"1289 212 OFFCURVE",
"1327 194 OFFCURVE",
"1327 135 CURVE SMOOTH",
"1327 68 OFFCURVE",
"1265 36 OFFCURVE",
"1215 36 CURVE SMOOTH",
"1161 36 OFFCURVE",
"1111 50 OFFCURVE",
"1111 129 CURVE",
"1069 129 LINE",
"1069 56 OFFCURVE",
"1100 -3 OFFCURVE",
"1215 -3 CURVE SMOOTH",
"1285 -3 OFFCURVE",
"1371 50 OFFCURVE",
"1371 147 CURVE SMOOTH",
"1371 225 OFFCURVE",
"1309 254 OFFCURVE",
"1263 269 CURVE SMOOTH",
"1225 281 OFFCURVE",
"1122 315 OFFCURVE",
"1122 388 CURVE SMOOTH",
"1122 455 OFFCURVE",
"1185 461 OFFCURVE",
"1215 461 CURVE SMOOTH",
"1250 461 OFFCURVE",
"1322 446 OFFCURVE",
"1322 376 CURVE",
"1364 376 LINE"
);
},
{
closed = 1;
nodes = (
"375 216 OFFCURVE",
"300 254 OFFCURVE",
"224 278 CURVE SMOOTH",
"161 298 OFFCURVE",
"118 320 OFFCURVE",
"118 372 CURVE SMOOTH",
"118 414 OFFCURVE",
"152 448 OFFCURVE",
"212 448 CURVE SMOOTH",
"268 448 OFFCURVE",
"294 439 OFFCURVE",
"324 402 CURVE",
"332 400 LINE",
"342 416 LINE",
"366 454 LINE",
"343 472 OFFCURVE",
"288 488 OFFCURVE",
"220 488 CURVE SMOOTH",
"140 488 OFFCURVE",
"57 439 OFFCURVE",
"57 356 CURVE SMOOTH",
"57 272 OFFCURVE",
"132 237 OFFCURVE",
"203 216 CURVE SMOOTH",
"258 200 OFFCURVE",
"314 175 OFFCURVE",
"314 120 CURVE SMOOTH",
"314 78 OFFCURVE",
"274 30 OFFCURVE",
"194 30 CURVE SMOOTH",
"140 30 OFFCURVE",
"108 46 OFFCURVE",
"89 96 CURVE",
"84 98 LINE",
"59 55 LINE",
"46 34 LINE",
"69 16 OFFCURVE",
"114 -10 OFFCURVE",
"190 -10 CURVE SMOOTH",
"287 -10 OFFCURVE",
"375 46 OFFCURVE",
"375 137 CURVE SMOOTH"
);
}
);
};
hints = (
{
origin = "{0, 12}";
type = Corner;
name = _corner.ese;
},
{
origin = "{0, 28}";
scale = "{-1, -1}";
type = Corner;
name = _corner.ese;
}
);
layerId = "A2204D38-078E-49A4-B70C-87904FFF8E34";
paths = (
{
closed = 1;
nodes = (
"283 -12 OFFCURVE",
"371 46 OFFCURVE",
"371 137 CURVE SMOOTH",
"371 216 OFFCURVE",
"296 254 OFFCURVE",
"220 278 CURVE SMOOTH",
"157 298 OFFCURVE",
"114 320 OFFCURVE",
"114 372 CURVE SMOOTH",
"114 414 OFFCURVE",
"148 446 OFFCURVE",
"208 448 CURVE SMOOTH",
"362 454 LINE",
"339 470 OFFCURVE",
"284 490 OFFCURVE",
"220 490 CURVE SMOOTH",
"136 490 OFFCURVE",
"53 439 OFFCURVE",
"53 356 CURVE SMOOTH",
"53 272 OFFCURVE",
"128 237 OFFCURVE",
"199 216 CURVE SMOOTH",
"254 200 OFFCURVE",
"310 175 OFFCURVE",
"310 120 CURVE SMOOTH",
"310 78 OFFCURVE",
"270 30 OFFCURVE",
"190 30 CURVE",
"42 34 LINE",
"65 16 OFFCURVE",
"110 -12 OFFCURVE",
"186 -12 CURVE SMOOTH"
);
}
);
width = 413;
},
{
background = {
paths = (
{
closed = 1;
nodes = (
"1356 433 OFFCURVE",
"1322 503 OFFCURVE",
"1207 503 CURVE SMOOTH",
"1137 503 OFFCURVE",
"1067 473 OFFCURVE",
"1067 376 CURVE SMOOTH",
"1067 278 OFFCURVE",
"1177 246 OFFCURVE",
"1223 231 CURVE SMOOTH",
"1281 212 OFFCURVE",
"1319 194 OFFCURVE",
"1319 135 CURVE SMOOTH",
"1319 68 OFFCURVE",
"1257 36 OFFCURVE",
"1207 36 CURVE SMOOTH",
"1153 36 OFFCURVE",
"1103 50 OFFCURVE",
"1103 129 CURVE",
"1061 129 LINE",
"1061 56 OFFCURVE",
"1092 -3 OFFCURVE",
"1207 -3 CURVE SMOOTH",
"1277 -3 OFFCURVE",
"1363 50 OFFCURVE",
"1363 147 CURVE SMOOTH",
"1363 225 OFFCURVE",
"1301 254 OFFCURVE",
"1255 269 CURVE SMOOTH",
"1217 281 OFFCURVE",
"1114 315 OFFCURVE",
"1114 388 CURVE SMOOTH",
"1114 455 OFFCURVE",
"1177 461 OFFCURVE",
"1207 461 CURVE SMOOTH",
"1242 461 OFFCURVE",
"1314 446 OFFCURVE",
"1314 376 CURVE",
"1356 376 LINE"
);
},
{
closed = 1;
nodes = (
"367 216 OFFCURVE",
"292 254 OFFCURVE",
"216 278 CURVE SMOOTH",
"153 298 OFFCURVE",
"110 320 OFFCURVE",
"110 372 CURVE SMOOTH",
"110 414 OFFCURVE",
"144 448 OFFCURVE",
"204 448 CURVE SMOOTH",
"260 448 OFFCURVE",
"286 439 OFFCURVE",
"316 402 CURVE",
"316 346 LINE",
"350 346 LINE",
"358 454 LINE",
"335 472 OFFCURVE",
"280 488 OFFCURVE",
"212 488 CURVE SMOOTH",
"132 488 OFFCURVE",
"49 439 OFFCURVE",
"49 356 CURVE SMOOTH",
"49 272 OFFCURVE",
"124 237 OFFCURVE",
"195 216 CURVE SMOOTH",
"250 200 OFFCURVE",
"306 175 OFFCURVE",
"306 120 CURVE SMOOTH",
"306 78 OFFCURVE",
"266 30 OFFCURVE",
"186 30 CURVE SMOOTH",
"132 30 OFFCURVE",
"100 46 OFFCURVE",
"81 96 CURVE",
"83 123 LINE",
"46 125 LINE",
"38 34 LINE",
"61 16 OFFCURVE",
"106 -10 OFFCURVE",
"182 -10 CURVE SMOOTH",
"279 -10 OFFCURVE",
"367 46 OFFCURVE",
"367 137 CURVE SMOOTH"
);
}
);
};
backgroundImage = {
crop = "{{0, 0}, {305.926, 73.749}}";
imagePath = img/pala.png;
locked = "1";
transform = "{82.773, 0, 0, 82.773, -11175, -1413}";
};
hints = (
{
origin = "{0, 12}";
type = Corner;
name = _corner.ese;
},
{
origin = "{0, 28}";
scale = "{-1, -1}";
type = Corner;
name = _corner.ese;
}
);
layerId = "3EDEE92B-4D9D-4D9A-9438-63C2E33416C1";
paths = (
{
closed = 1;
nodes = (
"279 -12 OFFCURVE",
"367 46 OFFCURVE",
"367 137 CURVE SMOOTH",
"367 216 OFFCURVE",
"292 254 OFFCURVE",
"216 278 CURVE SMOOTH",
"153 298 OFFCURVE",
"110 320 OFFCURVE",
"110 372 CURVE SMOOTH",
"110 414 OFFCURVE",
"144 446 OFFCURVE",
"204 448 CURVE SMOOTH",
"358 454 LINE",
"335 470 OFFCURVE",
"280 490 OFFCURVE",
"216 490 CURVE SMOOTH",
"132 490 OFFCURVE",
"49 439 OFFCURVE",
"49 356 CURVE SMOOTH",
"49 272 OFFCURVE",
"124 237 OFFCURVE",
"195 216 CURVE SMOOTH",
"250 200 OFFCURVE",
"306 175 OFFCURVE",
"306 120 CURVE SMOOTH",
"306 78 OFFCURVE",
"266 30 OFFCURVE",
"186 30 CURVE",
"38 34 LINE",
"61 16 OFFCURVE",
"106 -12 OFFCURVE",
"182 -12 CURVE SMOOTH"
);
}
);
width = 405;
}
);
leftMetricsKey = o;
rightMetricsKey = o;
},
{
color = 0;
export = 0;
glyphname = v.001;
lastChange = "2021-03-05 16:34:06 +0000";
layers = (
{
background = {
paths = (
{
closed = 1;
nodes = (
"265 88 LINE",
"436 478 LINE",
"494 478 LINE",
"270 0 LINE",
"219 0 LINE",
"30 478 LINE",
"106 478 LINE",
"256 88 LINE"
);
}
);
};
guideLines = (
{
angle = 111.9087;
position = "{141, 220}";
}
);
layerId = "A2204D38-078E-49A4-B70C-87904FFF8E34";
paths = (
{
closed = 1;
nodes = (
"267 -10 LINE",
"488 450 LINE",
"495 465 LINE",
"502 478 LINE",
"452 478 LINE",
"447 464 LINE",
"438 440 LINE",
"268 78 LINE",
"260 78 LINE",
"115 450 LINE",
"108 465 LINE",
"103 478 LINE",
"37 478 LINE",
"42 465 LINE",
"48 451 LINE",
"233 -10 LINE"
);
}
);
width = 507;
},
{
associatedMasterId = "A2204D38-078E-49A4-B70C-87904FFF8E34";
backgroundImage = {
crop = "{{0, 0}, {140, 139}}";
imagePath = "../../Screenshot 2020-10-15 at 11.39.30.png";
locked = "1";
transform = "{4.75473, 0, 0, 4.75473, -100, -89}";
};
layerId = "931F6712-8DB6-4C5A-AEF2-3092C16EC71F";
name = "Oct 15 20, 11:40";
paths = (
{
closed = 1;
nodes = (
"232 92 LINE",
"413 500 LINE",
"466 500 LINE",
"237 0 LINE",
"188 0 LINE",
"10 500 LINE",
"82 500 LINE",
"219 92 LINE"
);
}
);
width = 491;
},
{
background = {
paths = (
{
closed = 1;
nodes = (
"288 78 LINE",
"285 78 LINE",
"140 450 LINE",
"217 465 LINE",
"214 478 LINE",
"5 478 LINE",
"9 465 LINE",
"73 450 LINE",
"258 -10 LINE",
"292 -10 LINE",
"513 450 LINE",
"547 465 LINE",
"544 478 LINE",
"390 478 LINE",
"394 464 LINE",
"458 440 LINE"
);
}
);
};
backgroundImage = {
crop = "{{0, 0}, {305.926, 73.749}}";
imagePath = img/pala.png;
locked = "1";
transform = "{82.773, 0, 0, 82.773, -12580, -1413}";
};
guideLines = (
{
angle = 111.9087;
position = "{113, 220}";
}
);
layerId = "3EDEE92B-4D9D-4D9A-9438-63C2E33416C1";
paths = (
{
closed = 1;
nodes = (
"292 -10 LINE",
"513 450 LINE",
"547 465 LINE",
"544 478 LINE",
"390 478 LINE",
"394 464 LINE",
"458 440 LINE",
"288 78 LINE",
"285 78 LINE",
"140 450 LINE",
"217 465 LINE",
"214 478 LINE",
"5 478 LINE",
"9 465 LINE",
"73 450 LINE",
"258 -10 LINE"
);
}
);
width = 552;
},
{
associatedMasterId = "3EDEE92B-4D9D-4D9A-9438-63C2E33416C1";
backgroundImage = {
crop = "{{0, 0}, {140, 139}}";
imagePath = "../../Screenshot 2020-10-15 at 11.39.30.png";
locked = "1";
transform = "{4.75473, 0, 0, 4.75473, -100, -89}";
};
layerId = "4043D0D9-D51B-4FF2-9F09-3F3E70E27D03";
name = "Oct 15 20, 11:40";
paths = (
{
closed = 1;
nodes = (
"232 92 LINE",
"413 500 LINE",
"466 500 LINE",
"237 0 LINE",
"188 0 LINE",
"10 500 LINE",
"82 500 LINE",
"219 92 LINE"
);
}
);
width = 491;
}
);
},
{
color = 1;
export = 0;
glyphname = e.002;
lastChange = "2021-03-06 12:05:37 +0000";
layers = (
{
layerId = "A2204D38-078E-49A4-B70C-87904FFF8E34";
paths = (
{
closed = 1;
nodes = (
"345 -12 OFFCURVE",
"402 31 OFFCURVE",
"425 54 CURVE",
"425 85 LINE",
"421 88 LINE",
"394 61 OFFCURVE",
"344 39 OFFCURVE",
"278 39 CURVE SMOOTH",
"158 39 OFFCURVE",
"106 130 OFFCURVE",
"106 246 CURVE",
"373 255 LINE",
"440 308 LINE",
"440 421 OFFCURVE",
"363 490 OFFCURVE",
"251 490 CURVE SMOOTH",
"136 490 OFFCURVE",
"30 384 OFFCURVE",
"30 215 CURVE SMOOTH",
"30 82 OFFCURVE",
"124 -12 OFFCURVE",
"248 -12 CURVE SMOOTH"
);
},
{
closed = 1;
nodes = (
"106 367 OFFCURVE",
"153 455 OFFCURVE",
"248 455 CURVE SMOOTH",
"331 455 OFFCURVE",
"375 395 OFFCURVE",
"375 308 CURVE",
"364 297 LINE",
"106 293 LINE"
);
}
);
width = 470;
},
{
backgroundImage = {
crop = "{{0, 0}, {305.926, 73.749}}";
imagePath = img/pala.png;
locked = "1";
transform = "{82.773, 0, 0, 82.773, -3614, -1413}";
};
guideLines = (
{
angle = 218.3456;
position = "{407, 282}";
}
);
layerId = "3EDEE92B-4D9D-4D9A-9438-63C2E33416C1";
paths = (
{
closed = 1;
nodes = (
"345 -12 OFFCURVE",
"402 31 OFFCURVE",
"425 54 CURVE",
"425 85 LINE",
"421 88 LINE",
"394 61 OFFCURVE",
"344 39 OFFCURVE",
"278 39 CURVE SMOOTH",
"156 39 OFFCURVE",
"104 115 OFFCURVE",
"104 246 CURVE",
"373 255 LINE",
"440 308 LINE",
"440 421 OFFCURVE",
"363 490 OFFCURVE",
"251 490 CURVE SMOOTH",
"120 490 OFFCURVE",
"30 371 OFFCURVE",
"30 215 CURVE SMOOTH",
"30 82 OFFCURVE",
"124 -12 OFFCURVE",
"248 -12 CURVE SMOOTH"
);
},
{
closed = 1;
nodes = (
"104 367 OFFCURVE",
"153 455 OFFCURVE",
"248 455 CURVE SMOOTH",
"331 455 OFFCURVE",
"375 395 OFFCURVE",
"375 308 CURVE",
"364 297 LINE",
"104 293 LINE"
);
}
);
width = 465;
},
{
associatedMasterId = "3EDEE92B-4D9D-4D9A-9438-63C2E33416C1";
backgroundImage = {
crop = "{{0, 0}, {305.926, 73.749}}";
imagePath = ../pala/pala.png;
locked = "1";
transform = "{82.773, 0, 0, 82.773, -3614, -1413}";
};
layerId = "817A4564-64A0-4D36-8E8D-F6BB38019082";
name = "Dec 3 20, 16:53";
paths = (
{
closed = 1;
nodes = (
"106 367 OFFCURVE",
"153 455 OFFCURVE",
"248 455 CURVE SMOOTH",
"331 455 OFFCURVE",
"375 395 OFFCURVE",
"375 308 CURVE",
"364 297 LINE",
"106 293 LINE"
);
},
{
closed = 1;
nodes = (
"440 308 LINE",
"440 421 OFFCURVE",
"363 490 OFFCURVE",
"251 490 CURVE SMOOTH",
"136 490 OFFCURVE",
"30 384 OFFCURVE",
"30 215 CURVE SMOOTH",
"30 82 OFFCURVE",
"124 -12 OFFCURVE",
"248 -12 CURVE SMOOTH",
"345 -12 OFFCURVE",
"402 31 OFFCURVE",
"425 54 CURVE",
"425 85 LINE",
"421 88 LINE",
"394 61 OFFCURVE",
"344 39 OFFCURVE",
"278 39 CURVE SMOOTH",
"158 39 OFFCURVE",
"106 130 OFFCURVE",
"106 246 CURVE",
"373 255 LINE"
);
}
);
width = 470;
}
);
},
{
color = 0;
export = 0;
glyphname = o.002;
lastChange = "2021-03-06 12:05:37 +0000";
layers = (
{
guideLines = (
{
angle = 90;
position = "{266, 604}";
}
);
layerId = "A2204D38-078E-49A4-B70C-87904FFF8E34";
paths = (
{
closed = 1;
nodes = (
"398 -12 OFFCURVE",
"506 109 OFFCURVE",
"506 264 CURVE SMOOTH",
"506 373 OFFCURVE",
"462 490 OFFCURVE",
"285 490 CURVE SMOOTH",
"144 490 OFFCURVE",
"26 369 OFFCURVE",
"26 212 CURVE SMOOTH",
"26 35 OFFCURVE",
"137 -12 OFFCURVE",
"250 -12 CURVE SMOOTH"
);
},
{
closed = 1;
nodes = (
"170 28 OFFCURVE",
"94 101 OFFCURVE",
"94 255 CURVE SMOOTH",
"94 343 OFFCURVE",
"157 452 OFFCURVE",
"257 452 CURVE SMOOTH",
"401 452 OFFCURVE",
"438 321 OFFCURVE",
"438 235 CURVE SMOOTH",
"438 132 OFFCURVE",
"380 28 OFFCURVE",
"282 28 CURVE SMOOTH"
);
}
);
width = 540;
},
{
associatedMasterId = "A2204D38-078E-49A4-B70C-87904FFF8E34";
backgroundImage = {
crop = "{{0, 0}, {29.329, 35.339}}";
imagePath = letters/oooo.tif;
locked = "1";
transform = "{23.43353, 0, 0, 23.43353, -91, -196}";
};
layerId = "2281934C-8464-4B17-8387-0B8969141099";
name = "Oct 15 20, 15:55";
paths = (
{
closed = 1;
nodes = (
"387 -10 OFFCURVE",
"543 83 OFFCURVE",
"543 272 CURVE SMOOTH",
"543 432 OFFCURVE",
"447 510 OFFCURVE",
"309 510 CURVE SMOOTH",
"150 510 OFFCURVE",
"35 388 OFFCURVE",
"35 231 CURVE SMOOTH",
"35 84 OFFCURVE",
"154 -10 OFFCURVE",
"269 -10 CURVE SMOOTH"
);
},
{
closed = 1;
nodes = (
"182 30 OFFCURVE",
"116 151 OFFCURVE",
"116 273 CURVE SMOOTH",
"116 377 OFFCURVE",
"172 475 OFFCURVE",
"292 475 CURVE SMOOTH",
"409 475 OFFCURVE",
"470 368 OFFCURVE",
"470 227 CURVE SMOOTH",
"470 123 OFFCURVE",
"409 30 OFFCURVE",
"303 30 CURVE SMOOTH"
);
}
);
width = 578;
},
{
backgroundImage = {
crop = "{{0, 0}, {1800, 1552}}";
imagePath = img/Palatino_Zapf_1950_Letterpress.jpg;
locked = "1";
transform = "{4.219, 0, 0, 4.219, -3492, -5249}";
};
guideLines = (
{
position = "{206, 245}";
}
);
layerId = "3EDEE92B-4D9D-4D9A-9438-63C2E33416C1";
paths = (
{
closed = 1;
nodes = (
"398 -12 OFFCURVE",
"506 109 OFFCURVE",
"506 264 CURVE SMOOTH",
"506 373 OFFCURVE",
"462 490 OFFCURVE",
"285 490 CURVE SMOOTH",
"144 490 OFFCURVE",
"26 369 OFFCURVE",
"26 212 CURVE SMOOTH",
"26 35 OFFCURVE",
"137 -12 OFFCURVE",
"250 -12 CURVE SMOOTH"
);
},
{
closed = 1;
nodes = (
"170 28 OFFCURVE",
"94 101 OFFCURVE",
"94 255 CURVE SMOOTH",
"94 343 OFFCURVE",
"157 452 OFFCURVE",
"257 452 CURVE SMOOTH",
"401 452 OFFCURVE",
"438 321 OFFCURVE",
"438 235 CURVE SMOOTH",
"438 132 OFFCURVE",
"380 28 OFFCURVE",
"282 28 CURVE SMOOTH"
);
}
);
width = 533;
},
{
associatedMasterId = "3EDEE92B-4D9D-4D9A-9438-63C2E33416C1";
backgroundImage = {
crop = "{{0, 0}, {29.329, 35.339}}";
imagePath = letters/oooo.tif;
locked = "1";
transform = "{23.43353, 0, 0, 23.43353, -91, -196}";
};
layerId = "E782AF22-3249-4EA2-A84D-A9D5CF23617F";
name = "Oct 15 20, 15:55";
paths = (
{
closed = 1;
nodes = (
"387 -10 OFFCURVE",
"543 83 OFFCURVE",
"543 272 CURVE SMOOTH",
"543 432 OFFCURVE",
"447 510 OFFCURVE",
"309 510 CURVE SMOOTH",
"150 510 OFFCURVE",
"35 388 OFFCURVE",
"35 231 CURVE SMOOTH",
"35 84 OFFCURVE",
"154 -10 OFFCURVE",
"269 -10 CURVE SMOOTH"
);
},
{
closed = 1;
nodes = (
"182 30 OFFCURVE",
"116 151 OFFCURVE",
"116 273 CURVE SMOOTH",
"116 377 OFFCURVE",
"172 475 OFFCURVE",
"292 475 CURVE SMOOTH",
"409 475 OFFCURVE",
"470 368 OFFCURVE",
"470 227 CURVE SMOOTH",
"470 123 OFFCURVE",
"409 30 OFFCURVE",
"303 30 CURVE SMOOTH"
);
}
);
width = 578;
}
);
},
{
color = 1;
glyphname = f_f.liga;
lastChange = "2021-03-13 15:33:37 +0000";
layers = (
{
components = (
{
name = "f-without";
transform = "{1, 0, 0, 1, 36, 0}";
},
{
name = "f-without";
transform = "{1, 0, 0, 1, 326, 0}";
}
);
hints = (
{
origin = "{0, 3}";
scale = "{0.7, 1}";
type = Corner;
name = _corner.piek;
}
);
layerId = "A2204D38-078E-49A4-B70C-87904FFF8E34";
paths = (
{
closed = 1;
nodes = (
"591 393 LINE",
"592 443 LINE",
"99 443 LINE",
"99 393 LINE"
);
}
);
width = 603;
},
{
backgroundImage = {
crop = "{{0, 0}, {305.16, 367}}";
imagePath = "img/05 Page 3.png";
locked = "1";
transform = "{41.258, 0, 0, 41.258, -6698, -6937}";
};
components = (
{
name = "f-without";
},
{
name = "f-without";
transform = "{1, 0, 0, 1, 276, 0}";
}
);
hints = (
{
origin = "{0, 3}";
scale = "{0.7, 1}";
type = Corner;
name = _corner.piek;
}
);
layerId = "3EDEE92B-4D9D-4D9A-9438-63C2E33416C1";
paths = (
{
closed = 1;
nodes = (
"595 367 LINE",
"606 417 LINE",
"103 417 LINE",
"103 367 LINE"
);
}
);
width = 623;
}
);
leftMetricsKey = n;
rightMetricsKey = r;
},
{
color = 1;
glyphname = f_f_i.liga;
lastChange = "2021-03-15 20:09:13 +0000";
layers = (
{
components = (
{
name = "f-without";
transform = "{1, 0, 0, 1, 36, 0}";
},
{
name = "f-without";
transform = "{1, 0, 0, 1, 302, 0}";
}
);
layerId = "A2204D38-078E-49A4-B70C-87904FFF8E34";
paths = (
{
closed = 1;
nodes = (
"673 557 OFFCURVE",
"693 579 OFFCURVE",
"693 605 CURVE SMOOTH",
"693 633 OFFCURVE",
"673 655 OFFCURVE",
"647 655 CURVE SMOOTH",
"620 655 OFFCURVE",
"600 633 OFFCURVE",
"600 605 CURVE SMOOTH",
"600 579 OFFCURVE",
"620 557 OFFCURVE",
"647 557 CURVE SMOOTH"
);
},
{
closed = 1;
nodes = (
"585 420 OFFCURVE",
"552 417 OFFCURVE",
"479 417 CURVE",
"88 417 LINE",
"85 415 LINE",
"74 375 LINE",
"74 367 LINE",
"521 367 LINE SMOOTH",
"554 367 OFFCURVE",
"579 372 OFFCURVE",
"614 384 CURVE",
"614 37 LINE",
"614 20 LINE",
"614 0 LINE",
"674 0 LINE",
"674 18 LINE",
"674 37 LINE",
"674 445 LINE"
);
}
);
width = 743;
},
{
background = {
components = (
{
name = "f-without";
},
{
name = "f-without";
transform = "{1, 0, 0, 1, 276, 0}";
}
);
paths = (
{
closed = 1;
nodes = (
"697 557 OFFCURVE",
"717 579 OFFCURVE",
"717 605 CURVE SMOOTH",
"717 633 OFFCURVE",
"697 655 OFFCURVE",
"671 655 CURVE SMOOTH",
"644 655 OFFCURVE",
"624 633 OFFCURVE",
"624 605 CURVE SMOOTH",
"624 579 OFFCURVE",
"644 557 OFFCURVE",
"671 557 CURVE SMOOTH"
);
},
{
closed = 1;
nodes = (
"609 420 OFFCURVE",
"576 417 OFFCURVE",
"473 417 CURVE",
"82 417 LINE",
"79 415 LINE",
"48 375 LINE",
"48 367 LINE",
"515 367 LINE SMOOTH",
"548 367 OFFCURVE",
"603 372 OFFCURVE",
"638 384 CURVE",
"638 37 LINE",
"568 20 LINE",
"568 0 LINE",
"768 0 LINE",
"768 18 LINE",
"698 37 LINE",
"698 445 LINE"
);
}
);
};
components = (
{
name = "f-without";
},
{
name = "f-without";
transform = "{1, 0, 0, 1, 276, 0}";
}
);
layerId = "3EDEE92B-4D9D-4D9A-9438-63C2E33416C1";
paths = (
{
closed = 1;
nodes = (
"697 557 OFFCURVE",
"717 579 OFFCURVE",
"717 605 CURVE SMOOTH",
"717 633 OFFCURVE",
"697 655 OFFCURVE",
"671 655 CURVE SMOOTH",
"644 655 OFFCURVE",
"624 633 OFFCURVE",
"624 605 CURVE SMOOTH",
"624 579 OFFCURVE",
"644 557 OFFCURVE",
"671 557 CURVE SMOOTH"
);
},
{
closed = 1;
nodes = (
"609 420 OFFCURVE",
"576 417 OFFCURVE",
"473 417 CURVE",
"82 417 LINE",
"79 415 LINE",
"48 375 LINE",
"48 367 LINE",
"515 367 LINE SMOOTH",
"548 367 OFFCURVE",
"603 372 OFFCURVE",
"638 384 CURVE",
"638 37 LINE",
"568 20 LINE",
"568 0 LINE",
"768 0 LINE",
"768 18 LINE",
"698 37 LINE",
"698 445 LINE"
);
}
);
width = 798;
}
);
leftMetricsKey = n;
rightMetricsKey = i;
},
{
color = 1;
glyphname = f_i.liga;
lastChange = "2021-03-13 15:32:26 +0000";
layers = (
{
components = (
{
name = "f-without";
transform = "{1, 0, 0, 1, 36, 0}";
}
);
layerId = "A2204D38-078E-49A4-B70C-87904FFF8E34";
paths = (
{
closed = 1;
nodes = (
"457 557 OFFCURVE",
"477 579 OFFCURVE",
"477 605 CURVE SMOOTH",
"477 633 OFFCURVE",
"457 655 OFFCURVE",
"431 655 CURVE SMOOTH",
"404 655 OFFCURVE",
"384 633 OFFCURVE",
"384 605 CURVE SMOOTH",
"384 579 OFFCURVE",
"404 557 OFFCURVE",
"431 557 CURVE SMOOTH"
);
},
{
closed = 1;
nodes = (
"369 420 OFFCURVE",
"336 417 OFFCURVE",
"233 417 CURVE",
"127 417 LINE",
"124 415 LINE",
"93 375 LINE",
"93 367 LINE",
"275 367 LINE SMOOTH",
"308 367 OFFCURVE",
"363 372 OFFCURVE",
"398 384 CURVE",
"398 37 LINE",
"398 20 LINE",
"398 0 LINE",
"458 0 LINE",
"458 18 LINE",
"458 37 LINE",
"458 445 LINE"
);
}
);
width = 477;
},
{
background = {
hints = (
{
origin = "{0, 3}";
scale = "{0.7, 1}";
type = Corner;
name = _corner.piek;
},
{
origin = "{1, 0}";
scale = "{1.3, 1}";
type = Corner;
name = _corner.rightSerif;
},
{
origin = "{1, 21}";
type = Corner;
name = _corner.leftSerif;
}
);
paths = (
{
closed = 1;
nodes = (
"327 363 LINE",
"338 413 LINE",
"108 413 LINE",
"108 363 LINE"
);
},
{
closed = 1;
nodes = (
"169 0 LINE",
"169 525 LINE SMOOTH",
"169 654 OFFCURVE",
"209 705 OFFCURVE",
"267 705 CURVE SMOOTH",
"293 705 OFFCURVE",
"320 695 OFFCURVE",
"329 686 CURVE",
"335 688 LINE",
"349 751 LINE",
"348 754 LINE",
"338 758 OFFCURVE",
"324 762 OFFCURVE",
"303 762 CURVE SMOOTH",
"274 762 OFFCURVE",
"238 760 OFFCURVE",
"190 700 CURVE",
"158 658 LINE SMOOTH",
"117 604 OFFCURVE",
"110 566 OFFCURVE",
"110 506 CURVE SMOOTH",
"110 0 LINE"
);
}
);
};
components = (
{
name = "f-without";
}
);
layerId = "3EDEE92B-4D9D-4D9A-9438-63C2E33416C1";
paths = (
{
closed = 1;
nodes = (
"421 557 OFFCURVE",
"441 579 OFFCURVE",
"441 605 CURVE SMOOTH",
"441 633 OFFCURVE",
"421 655 OFFCURVE",
"395 655 CURVE SMOOTH",
"368 655 OFFCURVE",
"348 633 OFFCURVE",
"348 605 CURVE SMOOTH",
"348 579 OFFCURVE",
"368 557 OFFCURVE",
"395 557 CURVE SMOOTH"
);
},
{
closed = 1;
nodes = (
"333 420 OFFCURVE",
"300 417 OFFCURVE",
"197 417 CURVE",
"91 417 LINE",
"88 415 LINE",
"57 375 LINE",
"57 367 LINE",
"239 367 LINE SMOOTH",
"272 367 OFFCURVE",
"327 372 OFFCURVE",
"362 384 CURVE",
"362 37 LINE",
"292 20 LINE",
"292 0 LINE",
"492 0 LINE",
"492 18 LINE",
"422 37 LINE",
"422 445 LINE"
);
}
);
width = 492;
}
);
leftMetricsKey = n;
rightMetricsKey = r;
},
{
color = 1;
export = 0;
glyphname = f_f_i.liga.001;
lastChange = "2021-03-15 20:24:16 +0000";
layers = (
{
components = (
{
name = "f-without";
transform = "{1, 0, 0, 1, 36, 0}";
},
{
name = "f-without";
transform = "{1, 0, 0, 1, 302, 0}";
}
);
layerId = "A2204D38-078E-49A4-B70C-87904FFF8E34";
paths = (
{
closed = 1;
nodes = (
"673 557 OFFCURVE",
"693 579 OFFCURVE",
"693 605 CURVE SMOOTH",
"693 633 OFFCURVE",
"673 655 OFFCURVE",
"647 655 CURVE SMOOTH",
"620 655 OFFCURVE",
"600 633 OFFCURVE",
"600 605 CURVE SMOOTH",
"600 579 OFFCURVE",
"620 557 OFFCURVE",
"647 557 CURVE SMOOTH"
);
},
{
closed = 1;
nodes = (
"585 420 OFFCURVE",
"552 417 OFFCURVE",
"479 417 CURVE",
"88 417 LINE",
"85 415 LINE",
"74 375 LINE",
"74 367 LINE",
"521 367 LINE SMOOTH",
"554 367 OFFCURVE",
"579 372 OFFCURVE",
"614 384 CURVE",
"614 37 LINE",
"614 20 LINE",
"614 0 LINE",
"674 0 LINE",
"674 18 LINE",
"674 37 LINE",
"674 445 LINE"
);
}
);
width = 743;
},
{
background = {
components = (
{
name = "f-without";
},
{
name = "f-without";
transform = "{1, 0, 0, 1, 276, 0}";
}
);
paths = (
{
closed = 1;
nodes = (
"697 557 OFFCURVE",
"717 579 OFFCURVE",
"717 605 CURVE SMOOTH",
"717 633 OFFCURVE",
"697 655 OFFCURVE",
"671 655 CURVE SMOOTH",
"644 655 OFFCURVE",
"624 633 OFFCURVE",
"624 605 CURVE SMOOTH",
"624 579 OFFCURVE",
"644 557 OFFCURVE",
"671 557 CURVE SMOOTH"
);
},
{
closed = 1;
nodes = (
"609 420 OFFCURVE",
"576 417 OFFCURVE",
"473 417 CURVE",
"82 417 LINE",
"79 415 LINE",
"48 375 LINE",
"48 367 LINE",
"515 367 LINE SMOOTH",
"548 367 OFFCURVE",
"603 372 OFFCURVE",
"638 384 CURVE",
"638 37 LINE",
"568 20 LINE",
"568 0 LINE",
"768 0 LINE",
"768 18 LINE",
"698 37 LINE",
"698 445 LINE"
);
}
);
};
components = (
{
name = "f-without";
}
);
layerId = "3EDEE92B-4D9D-4D9A-9438-63C2E33416C1";
paths = (
{
closed = 1;
nodes = (
"631 420 OFFCURVE",
"598 417 OFFCURVE",
"473 417 CURVE",
"82 417 LINE",
"79 415 LINE",
"48 375 LINE",
"48 367 LINE",
"515 367 LINE SMOOTH",
"548 367 OFFCURVE",
"625 372 OFFCURVE",
"660 384 CURVE",
"660 37 LINE",
"590 20 LINE",
"590 0 LINE",
"790 0 LINE",
"790 18 LINE",
"720 37 LINE",
"720 445 LINE"
);
},
{
closed = 1;
nodes = (
"737 640 OFFCURVE",
"709 762 OFFCURVE",
"577 762 CURVE SMOOTH",
"550 762 OFFCURVE",
"510 760 OFFCURVE",
"464 700 CURVE SMOOTH",
"432 658 LINE SMOOTH",
"391 604 OFFCURVE",
"384 566 OFFCURVE",
"384 506 CURVE SMOOTH",
"384 37 LINE",
"314 20 LINE",
"314 0 LINE",
"534 0 LINE",
"534 18 LINE",
"443 37 LINE",
"443 525 LINE SMOOTH",
"443 654 OFFCURVE",
"483 705 OFFCURVE",
"541 705 CURVE SMOOTH",
"592 705 OFFCURVE",
"657 700 OFFCURVE",
"657 666 CURVE SMOOTH",
"657 642 OFFCURVE",
"644 639 OFFCURVE",
"644 605 CURVE SMOOTH",
"644 579 OFFCURVE",
"664 557 OFFCURVE",
"691 557 CURVE SMOOTH",
"717 557 OFFCURVE",
"737 579 OFFCURVE",
"737 605 CURVE SMOOTH"
);
}
);
width = 820;
}
);
leftMetricsKey = n;
rightMetricsKey = i;
},
{
color = 1;
export = 0;
glyphname = A_E.liga;
lastChange = "2021-03-13 15:29:52 +0000";
layers = (
{
hints = (
{
origin = "{0, 21}";
type = Corner;
name = _corner.leftSerif;
},
{
origin = "{0, 0}";
scale = "{1.3, 1}";
type = Corner;
name = _corner.rightSerif;
},
{
origin = "{2, 3}";
scale = "{0.7, 1}";
type = Corner;
name = _corner.piek;
},
{
origin = "{1, 4}";
type = Corner;
name = _corner.topLeft;
},
{
origin = "{1, 5}";
type = Corner;
name = _corner.leftSerif;
},
{
origin = "{1, 0}";
type = Corner;
name = _corner.rightSerif;
}
);
layerId = "A2204D38-078E-49A4-B70C-87904FFF8E34";
paths = (
{
closed = 1;
nodes = (
"143 0 LINE",
"143 536 LINE",
"143 617 OFFCURVE",
"165 690 OFFCURVE",
"239 690 CURVE SMOOTH",
"265 690 OFFCURVE",
"287 680 OFFCURVE",
"296 671 CURVE",
"302 673 LINE",
"326 752 LINE",
"325 755 LINE",
"315 758 OFFCURVE",
"284 762 OFFCURVE",
"266 762 CURVE SMOOTH",
"217 762 OFFCURVE",
"181 739 OFFCURVE",
"107 633 CURVE SMOOTH",
"84 601 OFFCURVE",
"74 556 OFFCURVE",
"74 517 CURVE SMOOTH",
"74 482 LINE",
"74 0 LINE"
);
},
{
closed = 1;
nodes = (
"393 0 LINE",
"393 465 LINE",
"372 460 OFFCURVE",
"345 460 OFFCURVE",
"324 465 CURVE {name = \"🧨\";}",
"324 0 LINE"
);
},
{
closed = 1;
nodes = (
"325 415 LINE",
"325 465 LINE",
"74 465 LINE {name = \"🧨\";}",
"74 415 LINE {name = \"🧨\";}"
);
},
{
closed = 1;
nodes = (
"386 598 OFFCURVE",
"407 621 OFFCURVE",
"407 648 CURVE SMOOTH",
"407 677 OFFCURVE",
"386 700 OFFCURVE",
"359 700 CURVE SMOOTH",
"331 700 OFFCURVE",
"310 677 OFFCURVE",
"310 648 CURVE SMOOTH",
"310 621 OFFCURVE",
"331 598 OFFCURVE",
"359 598 CURVE SMOOTH"
);
}
);
width = 407;
},
{
backgroundImage = {
crop = "{{0, 0}, {498, 765}}";
imagePath = img/PALATINO03.GIF;
locked = "1";
transform = "{31.61821, 0, 0, 31.61821, -3724, -5310}";
};
hints = (
{
origin = "{0, 7}";
type = Corner;
name = _corner.CAP.leftSerif;
},
{
origin = "{0, 0}";
scale = "{-1, 1}";
type = Corner;
name = _corner.CAP.leftSerif;
options = 1;
},
{
origin = "{0, 3}";
type = Corner;
name = _corner.CAP.leftSerif;
},
{
origin = "{0, 4}";
scale = "{-1, 1}";
type = Corner;
name = _corner.CAP.leftSerif;
options = 1;
}
);
layerId = "3EDEE92B-4D9D-4D9A-9438-63C2E33416C1";
paths = (
{
closed = 1;
nodes = (
"176 0 LINE",
"495 548 LINE",
"514 548 LINE",
"724 0 LINE",
"814 0 LINE",
"536 710 LINE",
"515 710 LINE",
"108 0 LINE"
);
},
{
closed = 1;
nodes = (
"617 303 LINE",
"617 358 LINE",
"337 358 LINE",
"337 303 LINE"
);
},
{
closed = 1;
nodes = (
"971 0 LINE {name = \"🧨\";}",
"971 106 LINE",
"965 106 LINE {name = \"🧨\";}",
"965 39 OFFCURVE",
"949 20 OFFCURVE",
"915 20 CURVE",
"915 0 LINE"
);
},
{
closed = 1;
nodes = (
"1338 0 LINE",
"1338 40 LINE",
"1011 40 LINE",
"1011 0 LINE {name = \"🧨\";}"
);
},
{
closed = 1;
nodes = (
"1040 0 LINE {name = \"🧨\";}",
"1040 700 LINE {name = \"🧨\";}",
"965 700 LINE {name = \"🧨\";}",
"965 0 LINE {name = \"🧨\";}"
);
},
{
closed = 1;
nodes = (
"1355 144 LINE",
"1321 143 LINE",
"1310 90 OFFCURVE",
"1297 40 OFFCURVE",
"1235 40 CURVE {name = \"🧨\";}",
"1316 11 LINE",
"1338 0 LINE {name = \"🔥\";}"
);
},
{
closed = 1;
nodes = (
"1297 336 LINE",
"1297 373 LINE",
"991 373 LINE",
"991 336 LINE"
);
},
{
closed = 1;
nodes = (
"971 594 LINE",
"971 700 LINE {name = \"🧨\";}",
"885 700 LINE",
"885 680 LINE",
"929 680 OFFCURVE",
"965 659 OFFCURVE",
"965 594 CURVE {name = \"🧨\";}"
);
},
{
closed = 1;
nodes = (
"1312 272 LINE",
"1303 299 OFFCURVE",
"1297 327 OFFCURVE",
"1297 354 CURVE SMOOTH {name = \"🧨\";}",
"1296 382 OFFCURVE",
"1303 408 OFFCURVE",
"1312 437 CURVE",
"1278 437 LINE",
"1267 384 OFFCURVE",
"1256 373 OFFCURVE",
"1192 373 CURVE {name = \"🧨\";}",
"1192 336 LINE {name = \"🧨\";}",
"1256 336 OFFCURVE",
"1267 325 OFFCURVE",
"1278 272 CURVE"
);
},
{
closed = 1;
nodes = (
"1318 663 LINE",
"1318 700 LINE",
"991 700 LINE {name = \"🧨\";}",
"991 663 LINE"
);
},
{
closed = 1;
nodes = (
"1318 700 LINE {name = \"🔥\";}",
"1296 689 LINE",
"1219 663 LINE {name = \"🧨\";}",
"1281 663 OFFCURVE",
"1290 610 OFFCURVE",
"1301 557 CURVE",
"1335 556 LINE"
);
}
);
width = 1355;
}
);
leftMetricsKey = n;
rightMetricsKey = r;
},
{
color = 0;
glyphname = zero;
lastChange = "2021-03-11 16:24:30 +0000";
layers = (
{
backgroundImage = {
crop = "{{0, 0}, {294, 68.104}}";
imagePath = "palatino-source/alphabet.jpg";
locked = "1";
transform = "{72.664, 0, 0, 72.664, -11288, -2348}";
};
layerId = "A2204D38-078E-49A4-B70C-87904FFF8E34";
paths = (
{
closed = 1;
nodes = (
"379 -10 OFFCURVE",
"486 101 OFFCURVE",
"486 348 CURVE SMOOTH",
"486 473 OFFCURVE",
"442 615 OFFCURVE",
"312 615 CURVE SMOOTH",
"136 615 OFFCURVE",
"45 468 OFFCURVE",
"45 249 CURVE SMOOTH",
"45 88 OFFCURVE",
"112 -10 OFFCURVE",
"235 -10 CURVE SMOOTH"
);
},
{
closed = 1;
nodes = (
"209 31 OFFCURVE",
"117 84 OFFCURVE",
"117 275 CURVE SMOOTH",
"117 477 OFFCURVE",
"188 561 OFFCURVE",
"257 561 CURVE SMOOTH",
"353 561 OFFCURVE",
"411 462 OFFCURVE",
"411 308 CURVE SMOOTH",
"411 98 OFFCURVE",
"338 31 OFFCURVE",
"272 31 CURVE SMOOTH"
);
}
);
width = 531;
},
{
backgroundImage = {
crop = "{{0, 0}, {305.16, 367}}";
imagePath = "img/05 Page 3.png";
transform = "{42.083, 0, 0, 42.083, -9097, -2356}";
};
guideLines = (
{
position = "{366, 621}";
}
);
layerId = "3EDEE92B-4D9D-4D9A-9438-63C2E33416C1";
paths = (
{
closed = 1;
nodes = (
"350 -12 OFFCURVE",
"461 114 OFFCURVE",
"461 348 CURVE SMOOTH",
"461 466 OFFCURVE",
"429 621 OFFCURVE",
"273 621 CURVE SMOOTH",
"112 621 OFFCURVE",
"20 484 OFFCURVE",
"20 249 CURVE SMOOTH",
"20 88 OFFCURVE",
"87 -12 OFFCURVE",
"210 -12 CURVE SMOOTH"
);
},
{
closed = 1;
nodes = (
"178 32 OFFCURVE",
"82 73 OFFCURVE",
"82 275 CURVE SMOOTH",
"82 497 OFFCURVE",
"151 580 OFFCURVE",
"242 580 CURVE SMOOTH",
"348 580 OFFCURVE",
"396 472 OFFCURVE",
"396 308 CURVE SMOOTH",
"396 86 OFFCURVE",
"328 32 OFFCURVE",
"237 32 CURVE SMOOTH"
);
}
);
width = 481;
}
);
unicode = 0030;
},
{
color = 0;
glyphname = one;
lastChange = "2021-03-12 11:18:38 +0000";
layers = (
{
guideLines = (
{
angle = 196.7373;
position = "{163, 580}";
}
);
hints = (
{
origin = "{0, 0}";
scale = "{-1.3, 1}";
type = Corner;
name = _corner.leftSerif;
},
{
origin = "{0, 3}";
scale = "{1.3, 1}";
type = Corner;
name = _corner.leftSerif;
}
);
layerId = "A2204D38-078E-49A4-B70C-87904FFF8E34";
paths = (
{
closed = 1;
nodes = (
"244 0 LINE",
"244 574 LINE {name = \"🧨\";}",
"182 554 LINE",
"182 0 LINE"
);
},
{
closed = 1;
nodes = (
"25 494 LINE",
"244 560 LINE",
"244 604 LINE",
"25 538 LINE"
);
}
);
width = 308;
},
{
backgroundImage = {
crop = "{{0, 0}, {305.16, 367}}";
imagePath = "img/05 Page 3.png";
locked = "1";
transform = "{42.083, 0, 0, 42.083, -3257, -2356}";
};
guideLines = (
{
angle = 180;
position = "{502, 621}";
}
);
hints = (
{
origin = "{0, 3}";
scale = "{1.3, 1}";
type = Corner;
name = _corner.leftSerif;
},
{
origin = "{0, 0}";
scale = "{-1.3, 1}";
type = Corner;
name = _corner.leftSerif;
}
);
layerId = "3EDEE92B-4D9D-4D9A-9438-63C2E33416C1";
paths = (
{
closed = 1;
nodes = (
"244 0 LINE",
"244 574 LINE {name = \"🧨\";}",
"182 554 LINE",
"182 0 LINE"
);
},
{
closed = 1;
nodes = (
"25 494 LINE",
"301 577 LINE",
"301 621 LINE",
"25 538 LINE"
);
}
);
width = 357;
}
);
unicode = 0031;
},
{
color = 0;
glyphname = two;
lastChange = "2021-03-12 11:17:55 +0000";
layers = (
{
backgroundImage = {
crop = "{{0, 0}, {294, 68.104}}";
imagePath = "palatino-source/alphabet.jpg";
locked = "1";
transform = "{72.664, 0, 0, 72.664, -6880, -2348}";
};
layerId = "A2204D38-078E-49A4-B70C-87904FFF8E34";
paths = (
{
closed = 1;
nodes = (
"451 1 LINE",
"451 53 LINE",
"159 53 LINE",
"156 55 LINE",
"312 219 OFFCURVE",
"418 348 OFFCURVE",
"418 476 CURVE SMOOTH",
"418 565 OFFCURVE",
"357 621 OFFCURVE",
"284 621 CURVE SMOOTH",
"213 621 OFFCURVE",
"152 581 OFFCURVE",
"118 548 CURVE",
"118 498 LINE",
"122 498 LINE",
"154 528 OFFCURVE",
"196 555 OFFCURVE",
"243 555 CURVE SMOOTH",
"309 555 OFFCURVE",
"350 510 OFFCURVE",
"353 459 CURVE SMOOTH",
"361 317 OFFCURVE",
"239 185 OFFCURVE",
"75 20 CURVE",
"75 1 LINE"
);
}
);
width = 516;
},
{
backgroundImage = {
crop = "{{0, 0}, {305.16, 367}}";
imagePath = "img/05 Page 3.png";
locked = "1";
transform = "{42.083, 0, 0, 42.083, -3734, -2357}";
};
guideLines = (
{
locked = 1;
position = "{557, 609}";
},
{
position = "{502, 621}";
}
);
layerId = "3EDEE92B-4D9D-4D9A-9438-63C2E33416C1";
paths = (
{
closed = 1;
nodes = (
"451 1 LINE",
"451 53 LINE",
"159 53 LINE",
"156 55 LINE",
"312 219 OFFCURVE",
"418 348 OFFCURVE",
"418 476 CURVE SMOOTH",
"418 565 OFFCURVE",
"357 621 OFFCURVE",
"284 621 CURVE SMOOTH",
"213 621 OFFCURVE",
"152 581 OFFCURVE",
"118 548 CURVE",
"118 498 LINE",
"122 498 LINE",
"154 528 OFFCURVE",
"196 555 OFFCURVE",
"243 555 CURVE SMOOTH",
"309 555 OFFCURVE",
"350 510 OFFCURVE",
"353 459 CURVE SMOOTH",
"361 317 OFFCURVE",
"239 185 OFFCURVE",
"75 20 CURVE",
"75 1 LINE"
);
}
);
width = 516;
}
);
unicode = 0032;
},
